<?xml version="1.0" encoding="UTF-8" standalone="no"?>
<svg
   width="115"
   height="50"
   viewBox="0 0 115 50"
   fill="none"
   version="1.1"
   id="svg3"
   sodipodi:docname="d-side.svg"
   inkscape:version="1.4 (e7c3feb100, 2024-10-09)"
   xmlns:inkscape="http://www.inkscape.org/namespaces/inkscape"
   xmlns:sodipodi="http://sodipodi.sourceforge.net/DTD/sodipodi-0.dtd"
   xmlns="http://www.w3.org/2000/svg"
   xmlns:svg="http://www.w3.org/2000/svg">
  <sodipodi:namedview
     id="namedview3"
     pagecolor="#ffffff"
     bordercolor="#000000"
     borderopacity="0.25"
     inkscape:showpageshadow="2"
     inkscape:pageopacity="0.0"
     inkscape:pagecheckerboard="0"
     inkscape:deskcolor="#d1d1d1"
     inkscape:zoom="10.678261"
     inkscape:cx="57.5"
     inkscape:cy="24.957248"
     inkscape:window-width="1920"
     inkscape:window-height="1008"
     inkscape:window-x="0"
     inkscape:window-y="0"
     inkscape:window-maximized="1"
     inkscape:current-layer="g2" />
  <g
     clip-path="url(#clip0_19_574)"
     id="g2">
    <path
       d="M57.308 43.8H50C51.316 41.98 52.492 40.062 53.528 38.046C54.592 36.002 55.432 33.874 56.048 31.662C56.664 29.45 56.972 27.196 56.972 24.9C56.972 22.576 56.664 20.322 56.048 18.138C55.432 15.926 54.592 13.798 53.528 11.754C52.492 9.71 51.316 7.792 50 6H57.308C58.624 7.708 59.8 9.57 60.836 11.586C61.9 13.574 62.74 15.688 63.356 17.928C63.972 20.14 64.28 22.464 64.28 24.9C64.28 27.308 63.972 29.632 63.356 31.872C62.74 34.112 61.9 36.24 60.836 38.256C59.8 40.244 58.624 42.092 57.308 43.8Z"
       fill="black"
       id="path1" />
  </g>
  <defs
     id="defs3">
    <clipPath
       id="clip0_19_574">
      <rect
         width="115"
         height="50"
         fill="white"
         id="rect3" />
    </clipPath>
  </defs>
</svg>
