<?xml version="1.0" encoding="UTF-8" standalone="no"?>
<svg
   width="115"
   height="125"
   viewBox="0 0 115 125"
   fill="none"
   version="1.1"
   id="svg3"
   sodipodi:docname="f.svg"
   inkscape:version="1.4 (e7c3feb100, 2024-10-09)"
   xmlns:inkscape="http://www.inkscape.org/namespaces/inkscape"
   xmlns:sodipodi="http://sodipodi.sourceforge.net/DTD/sodipodi-0.dtd"
   xmlns="http://www.w3.org/2000/svg"
   xmlns:svg="http://www.w3.org/2000/svg">
  <sodipodi:namedview
     id="namedview3"
     pagecolor="#ffffff"
     bordercolor="#000000"
     borderopacity="0.25"
     inkscape:showpageshadow="2"
     inkscape:pageopacity="0.0"
     inkscape:pagecheckerboard="0"
     inkscape:deskcolor="#d1d1d1"
     inkscape:zoom="3.196"
     inkscape:cx="46.620776"
     inkscape:cy="82.7597"
     inkscape:window-width="1920"
     inkscape:window-height="1008"
     inkscape:window-x="0"
     inkscape:window-y="0"
     inkscape:window-maximized="1"
     inkscape:current-layer="g2" />
  <g
     clip-path="url(#clip0_19_577)"
     id="g2">
    <path
       fill-rule="evenodd"
       clip-rule="evenodd"
       d="m 47,48 v 29.4 h 7.77 V 66.564 h 9.66 v -7.14 H 54.77 V 55.14 H 67.118 V 48 Z"
       fill="#000000"
       id="path1"
       sodipodi:nodetypes="ccccccccccc" />
    <path
       d="m 59.271121,0.40401256 c -0.82745,-0.36749982 -1.67277,0.47782018 -1.30527,1.30527044 l 10.75063,24.20506 c 0.3785,0.8521 1.6178,0.7551 1.8591,-0.1454 l 2.5477,-9.5082 c 0.0915,-0.3413 0.358,-0.6078 0.6993,-0.6993 l 9.5082,-2.5477 c 0.9006,-0.2413 0.9975,-1.480602 0.1454,-1.859103 z M 103.24153,7.0377425 V 2.8483729 c 0,-0.6681799 0.8079,-1.0028099 1.2804,-0.5303298 l 10.1893,10.1892999 c 0.2929,0.2929 0.2929,0.7678 0,1.0607 l -10.1893,10.1893 c -0.4725,0.4725 -1.2804,0.1379 -1.2804,-0.5303 v -4.1893 H 91.241481 V 7.0377425 Z"
       style="clip-rule:evenodd;fill:#000000;fill-rule:evenodd"
       id="path1-3" />
    <path
       d="m 34.275662,124.8955 c -1.932,0 -3.612,-0.336 -5.04,-1.008 -1.4,-0.672 -2.562,-1.61 -3.486,-2.814 -0.924,-1.204 -1.624,-2.604 -2.1,-4.2 -0.448,-1.624 -0.672,-3.388 -0.672,-5.292 0,-2.016 0.21,-4.032 0.63,-6.048 0.42,-2.016 1.106,-3.85 2.058,-5.50201 0.952,-1.679986 2.24,-3.023986 3.864,-4.031986 1.652,-1.008 3.696,-1.512 6.132,-1.512 1.652,0 3.22,0.224 4.704,0.672 1.512,0.448 2.87,1.092 4.074,1.932 l -3.654,5.711996 c -0.868,-0.56 -1.778,-0.952 -2.73,-1.176 -0.952,-0.252 -1.778,-0.378 -2.478,-0.378 -1.54,0 -2.814,0.728 -3.822,2.184 -0.6372,0.9205 -1.0731,2.221 -1.3074,3.903 0.3123,-0.305 0.6501,-0.584 1.0134,-0.837 1.232,-0.868 2.702,-1.302 4.41,-1.302 1.848,0 3.486,0.462 4.914,1.386 1.428,0.924 2.548,2.156 3.36,3.696 0.812,1.54 1.218,3.248 1.218,5.124 0,1.792 -0.448,3.416 -1.344,4.872 -0.896,1.428 -2.17,2.562 -3.822,3.402 -1.652,0.812 -3.626,1.218 -5.922,1.218 z m 0.042,-6.468 c 0.616,0 1.176,-0.154 1.68,-0.462 0.504,-0.308 0.896,-0.714 1.176,-1.218 0.308,-0.532 0.462,-1.12 0.462,-1.764 0,-0.672 -0.154,-1.274 -0.462,-1.806 -0.28,-0.56 -0.672,-0.994 -1.176,-1.302 -0.504,-0.336 -1.064,-0.504 -1.68,-0.504 -0.616,0 -1.19,0.168 -1.722,0.504 -0.504,0.308 -0.91,0.742 -1.218,1.302 -0.308,0.532 -0.462,1.134 -0.462,1.806 0,0.644 0.154,1.232 0.462,1.764 0.308,0.504 0.714,0.91 1.218,1.218 0.532,0.308 1.106,0.462 1.722,0.462 z m -33.78699868,5.964 V 94.991504 H 20.648662 V 102.1315 H 8.3006632 v 4.284 h 9.6599988 v 7.14 H 8.3006632 v 10.836 z"
       style="clip-rule:evenodd;fill:#000000;fill-rule:evenodd"
       id="path1-6" />
  </g>
  <defs
     id="defs3">
    <clipPath
       id="clip0_19_577">
      <rect
         width="115"
         height="125"
         fill="white"
         id="rect3" />
    </clipPath>
  </defs>
</svg>
