<?xml version="1.0" encoding="UTF-8" standalone="no"?>
<svg
   width="115"
   height="50"
   viewBox="0 0 115 50"
   fill="none"
   version="1.1"
   id="svg3"
   sodipodi:docname="g-side.svg"
   inkscape:version="1.4 (e7c3feb100, 2024-10-09)"
   xmlns:inkscape="http://www.inkscape.org/namespaces/inkscape"
   xmlns:sodipodi="http://sodipodi.sourceforge.net/DTD/sodipodi-0.dtd"
   xmlns="http://www.w3.org/2000/svg"
   xmlns:svg="http://www.w3.org/2000/svg">
  <sodipodi:namedview
     id="namedview3"
     pagecolor="#ffffff"
     bordercolor="#000000"
     borderopacity="0.25"
     inkscape:showpageshadow="2"
     inkscape:pageopacity="0.0"
     inkscape:pagecheckerboard="0"
     inkscape:deskcolor="#d1d1d1"
     inkscape:zoom="5.3391305"
     inkscape:cx="34.087947"
     inkscape:cy="36.241856"
     inkscape:window-width="1920"
     inkscape:window-height="1008"
     inkscape:window-x="0"
     inkscape:window-y="0"
     inkscape:window-maximized="1"
     inkscape:current-layer="text1">
    <inkscape:page
       x="0"
       y="0"
       width="115"
       height="50"
       id="page2"
       margin="0"
       bleed="0" />
  </sodipodi:namedview>
  <defs
     id="defs3" />
  <g
     id="text5"
     style="font-weight:900;font-size:37.3333px;line-height:0.9;font-family:'HarmonyOS Sans';-inkscape-font-specification:'HarmonyOS Sans Heavy';text-align:center;letter-spacing:1px;text-anchor:middle;fill:#000000;stroke-width:6.5"
     aria-label="~&#10;`"
     transform="translate(-47.45067,-0.631979)">
    <g
       id="text1"
       aria-label="~&#10;`"
       transform="translate(30.533735,-1.947376)">
      <path
         d="m 67.943607,12.422036 h -5.151996 q 0,-3.6213307 1.567999,-6.0479953 1.567998,-2.4266646 4.703996,-2.4266646 1.829331,0 2.837331,0.7093327 1.045332,0.6719994 2.053331,1.9039984 0.56,0.7093327 0.933333,1.0079991 0.373333,0.2986664 0.821332,0.2986664 0.709333,0 1.082666,-0.8213326 0.373333,-0.8213326 0.522666,-2.5013312 h 5.151996 q -0.03733,3.6213302 -1.605332,6.0479951 -1.567999,2.426664 -4.741329,2.426664 -1.829332,0 -2.874665,-0.709332 Q 72.236936,11.600703 71.26627,10.368704 70.743604,9.6967045 70.332938,9.3980381 69.959605,9.0620384 69.511605,9.0620384 q -0.709332,0 -1.082665,0.8586659 -0.373334,0.8213327 -0.485333,2.5013317 z"
         id="path2" />
      <path
         d="m 73.222269,25.926016 -4.815996,-6.346661 h 6.010662 l 3.471997,6.346661 z"
         id="path3"
         sodipodi:nodetypes="ccccc" />
    </g>
  </g>
</svg>
