<?xml version="1.0" encoding="UTF-8" standalone="no"?>
<svg
   width="115"
   height="125"
   viewBox="0 0 115 125"
   fill="none"
   version="1.1"
   id="svg3"
   sodipodi:docname="h.svg"
   inkscape:version="1.4 (e7c3feb100, 2024-10-09)"
   xmlns:inkscape="http://www.inkscape.org/namespaces/inkscape"
   xmlns:sodipodi="http://sodipodi.sourceforge.net/DTD/sodipodi-0.dtd"
   xmlns="http://www.w3.org/2000/svg"
   xmlns:svg="http://www.w3.org/2000/svg">
  <sodipodi:namedview
     id="namedview3"
     pagecolor="#ffffff"
     bordercolor="#000000"
     borderopacity="0.25"
     inkscape:showpageshadow="2"
     inkscape:pageopacity="0.0"
     inkscape:pagecheckerboard="0"
     inkscape:deskcolor="#d1d1d1"
     showgrid="true"
     inkscape:zoom="4"
     inkscape:cx="78.125"
     inkscape:cy="62.125"
     inkscape:window-width="1920"
     inkscape:window-height="1008"
     inkscape:window-x="0"
     inkscape:window-y="0"
     inkscape:window-maximized="1"
     inkscape:current-layer="svg3">
    <inkscape:grid
       id="grid5"
       units="px"
       originx="0"
       originy="0"
       spacingx="1"
       spacingy="1"
       empcolor="#0099e5"
       empopacity="0.30196078"
       color="#0099e5"
       opacity="0.14901961"
       empspacing="5"
       enabled="true"
       visible="true" />
  </sodipodi:namedview>
  <defs
     id="defs3">
    <clipPath
       id="clip0_19_766">
      <rect
         width="115"
         height="125"
         fill="white"
         id="rect3" />
    </clipPath>
  </defs>
  <path
     d="M 51.844013,46.941356 V 57.28268 H 63.11867 V 46.941356 h 6.383995 V 74.269332 H 63.11867 V 62.920009 H 51.844013 V 74.269332 H 45.460019 V 46.941356 Z"
     id="text1"
     style="font-weight:900;font-size:37.3333px;line-height:0.9;font-family:'HarmonyOS Sans';-inkscape-font-specification:'HarmonyOS Sans Heavy';text-align:center;letter-spacing:1px;text-anchor:middle;fill:#000000;stroke-width:6.5"
     aria-label="H" />
  <path
     d="M 0.64257812,88.384766 V 115.71289 H 7.0273437 v -8.81055 h 3.5078123 c 2.314665,0 4.307056,-0.37442 5.97461,-1.12109 1.692443,-0.77155 2.986813,-1.84205 3.882812,-3.21094 0.920888,-1.39377 1.380859,-3.036172 1.380859,-4.927732 0,-1.86666 -0.459971,-3.496845 -1.380859,-4.890625 -0.895999,-1.39378 -2.190369,-2.464277 -3.882812,-3.210937 -1.692443,-0.771557 -3.684834,-1.15625 -5.97461,-1.15625 z m 6.38476558,5.375 h 2.7988282 c 1.5431101,0 2.8008181,0.311373 3.7714841,0.933593 0.970666,0.59734 1.455078,1.580339 1.455078,2.949219 0,1.39378 -0.484412,2.389002 -1.455078,2.986332 -0.945777,0.59733 -2.203485,0.89648 -3.7714841,0.89648 H 7.0273437 Z"
     style="font-weight:900;font-size:37.3333px;line-height:0.9;font-family:'HarmonyOS Sans';-inkscape-font-specification:'HarmonyOS Sans Heavy';text-align:center;letter-spacing:1px;baseline-shift:baseline;text-anchor:middle;display:inline;overflow:visible;vector-effect:none;fill:#000000;enable-background:accumulate;stop-color:#000000;stop-opacity:1"
     id="path4" />
  <path
     d="m 45.872387,88.4427 h 9.855992 c 2.663109,0 5.077329,0.53511 7.242661,1.60533 2.165331,1.07022 3.870219,2.63822 5.114662,4.70399 1.269332,2.04089 1.903998,4.48 1.903998,7.31733 0,2.83733 -0.622222,5.28889 -1.866665,7.35466 -1.244443,2.06578 -2.949331,3.64622 -5.114662,4.74133 -2.165331,1.07022 -4.591996,1.60533 -7.279994,1.60533 h -9.855992 z m 6.383995,21.95198 h 2.762664 c 1.791999,0 3.297775,-0.32356 4.51733,-0.97067 1.244443,-0.64711 2.177776,-1.59288 2.799997,-2.83733 0.622222,-1.24445 0.933333,-2.75022 0.933333,-4.51733 0,-1.74222 -0.311111,-3.22311 -0.933333,-4.44266 -0.622221,-1.24444 -1.555554,-2.19022 -2.799997,-2.83733 -1.219555,-0.64711 -2.725331,-0.97067 -4.51733,-0.97067 h -2.762664 z"
     style="font-weight:900;font-size:37.3333px;line-height:0.9;font-family:'HarmonyOS Sans';-inkscape-font-specification:'HarmonyOS Sans Heavy';text-align:center;letter-spacing:1px;text-anchor:middle;fill:#000000;stroke-width:6.5"
     id="path1" />
  <path
     d="m 82.058667,95.72804 c 2.16533,0 3.87022,0.70933 5.11466,2.128 1.24445,1.41867 1.86667,3.50933 1.86667,6.27199 v 11.42399 h -6.08533 v -9.37066 c 0,-1.61777 -0.23644,-2.87466 -0.70933,-3.77066 -0.47289,-0.896 -1.28178,-1.344 -2.42667,-1.344 -0.74666,0 -1.38133,0.21156 -1.90399,0.63467 -0.52267,0.42311 -0.93334,1.03288 -1.232,1.82933 -0.27378,0.79644 -0.41067,1.76711 -0.41067,2.912 v 9.10932 H 70.18668 V 96.2507 h 5.413327 c 0.0996,1.36889 0.21156,2.36445 0.336,2.98667 0.62222,-1.19467 1.456,-2.07822 2.50133,-2.65067 1.04534,-0.57244 2.25245,-0.85866 3.62133,-0.85866 z"
     style="font-weight:900;font-size:37.3333px;line-height:0.9;font-family:'HarmonyOS Sans';-inkscape-font-specification:'HarmonyOS Sans Heavy';text-align:center;letter-spacing:1px;text-anchor:middle;fill:#000000;stroke-width:6.5"
     id="path1-5" />
  <path
     d="m 29.751953,95.365234 c -1.592887,0 -3.098913,0.398873 -4.517578,1.195313 -1.393777,0.79645 -2.513153,1.966656 -3.359375,3.509763 -0.846221,1.54311 -1.269531,3.35855 -1.269531,5.44922 0,2.09066 0.42331,3.90806 1.269531,5.45117 0.871111,1.51822 2.002707,2.67621 3.396484,3.47266 1.393777,0.82133 2.887582,1.23047 4.480469,1.23047 1.294221,0 2.439992,-0.28497 3.435547,-0.85742 0.702064,-0.38614 1.314969,-0.93139 1.84375,-1.62696 -0.04299,1.1468 -0.157936,2.10423 -0.351563,2.85938 -0.248888,0.97067 -0.721079,1.71561 -1.417968,2.23828 -0.671999,0.52267 -1.654998,0.78516 -2.949219,0.78516 -1.119999,0 -2.078556,-0.2361 -2.875,-0.70899 -0.771555,-0.448 -1.394299,-1.1074 -1.867188,-1.97851 l -4.591796,2.6875 c 0.721777,1.61777 1.891989,2.8877 3.509765,3.80859 1.642665,0.94578 3.58422,1.41797 5.824219,1.41797 3.111108,0 5.685676,-0.90772 7.726562,-2.72461 2.065777,-1.81689 3.09961,-4.717 3.09961,-8.69922 V 95.888672 h -5.414063 c -0.02489,0.896 -0.110432,1.767051 -0.259765,2.613281 -0.647111,-1.07023 -1.45707,-1.855745 -2.427735,-2.353516 -0.970666,-0.52267 -2.065601,-0.783203 -3.285156,-0.783203 z m 1.195313,5.337896 c 0.771555,0 1.455401,0.17498 2.052734,0.52343 0.622222,0.34844 1.120808,0.88369 1.494141,1.60547 0.373333,0.69689 0.558593,1.59239 0.558593,2.6875 0,1.09511 -0.18526,2.02923 -0.558593,2.80078 C 34.120808,109.06698 33.622222,109.62667 33,110 c -0.622221,0.37333 -1.306068,0.56055 -2.052734,0.56055 -0.796444,0 -1.506685,-0.19944 -2.128907,-0.59766 -0.597333,-0.42311 -1.069524,-1.02142 -1.417968,-1.79297 -0.348444,-0.77155 -0.523438,-1.65484 -0.523438,-2.65039 0,-1.02045 0.162773,-1.87928 0.486328,-2.57617 0.348444,-0.72178 0.832857,-1.26925 1.455078,-1.64258 0.622222,-0.39822 1.332463,-0.59765 2.128907,-0.59765 z"
     style="font-weight:900;font-size:37.3333px;line-height:0.9;font-family:'HarmonyOS Sans';-inkscape-font-specification:'HarmonyOS Sans Heavy';text-align:center;letter-spacing:1px;baseline-shift:baseline;text-anchor:middle;display:inline;overflow:visible;vector-effect:none;fill:#000000;enable-background:accumulate;stop-color:#000000;stop-opacity:1"
     id="path5" />
  <path
     d="M 101.62401,8 V 0.8320065 H 107 V 8 h 7.168 v 5.375996 H 107 v 7.167994 h -5.37599 V 13.375996 H 94.456012 V 8 Z"
     id="path2"
     style="font-weight:900;font-size:37.3333px;line-height:0.9;font-family:'HarmonyOS Sans';-inkscape-font-specification:'HarmonyOS Sans Heavy';text-align:center;letter-spacing:1px;text-anchor:middle;fill:#000000;stroke-width:6.5" />
  <path
     d="m 114.668,29.082641 v 5.338663 H 94.956012 v -5.338663 z m 0,8.997326 v 5.338662 H 94.956012 v -5.338662 z"
     id="path3"
     sodipodi:nodetypes="cccccccccc"
     style="font-weight:900;font-size:37.3333px;line-height:0.9;font-family:'HarmonyOS Sans';-inkscape-font-specification:'HarmonyOS Sans Heavy';text-align:center;letter-spacing:1px;text-anchor:middle;fill:#000000;stroke-width:6.5" />
</svg>
