<?xml version="1.0" encoding="UTF-8" standalone="no"?>
<svg
   width="115"
   height="50"
   viewBox="0 0 115 50"
   fill="none"
   version="1.1"
   id="svg3"
   sodipodi:docname="i-side.svg"
   inkscape:version="1.4 (e7c3feb100, 2024-10-09)"
   xmlns:inkscape="http://www.inkscape.org/namespaces/inkscape"
   xmlns:sodipodi="http://sodipodi.sourceforge.net/DTD/sodipodi-0.dtd"
   xmlns="http://www.w3.org/2000/svg"
   xmlns:svg="http://www.w3.org/2000/svg">
  <sodipodi:namedview
     id="namedview3"
     pagecolor="#ffffff"
     bordercolor="#000000"
     borderopacity="0.25"
     inkscape:showpageshadow="2"
     inkscape:pageopacity="0.0"
     inkscape:pagecheckerboard="0"
     inkscape:deskcolor="#d1d1d1"
     inkscape:zoom="10.678261"
     inkscape:cx="57.5"
     inkscape:cy="24.957248"
     inkscape:window-width="1920"
     inkscape:window-height="1008"
     inkscape:window-x="0"
     inkscape:window-y="0"
     inkscape:window-maximized="1"
     inkscape:current-layer="svg3">
    <inkscape:page
       x="0"
       y="0"
       width="115"
       height="50"
       id="page2"
       margin="0"
       bleed="0" />
  </sodipodi:namedview>
  <defs
     id="defs3" />
  <path
     d="M 8.4511719,8.2167969 V 42.787109 H 19.837891 V 37.263672 H 14.535156 V 13.742188 h 5.302735 V 8.2167969 Z"
     style="-inkscape-font-specification:'HarmonyOS Sans Heavy';fill:#000000;stroke-width:6.5"
     id="path5" />
  <path
     d="m 90.478516,8.1152344 v 5.5253906 h 0.970703 c 1.119999,0 1.917737,0.284978 2.390625,0.857422 0.472888,0.572444 0.708984,1.594057 0.708984,3.0625 v 1.417969 c 0,1.791998 0.311372,3.222747 0.933594,4.292968 0.64711,1.045333 1.654549,1.755574 3.023437,2.128907 -1.368888,0.373333 -2.376327,1.093841 -3.023437,2.164062 -0.622222,1.045332 -0.933594,2.465814 -0.933594,4.257813 v 1.417968 c 0,1.468444 -0.236096,2.488103 -0.708984,3.060547 -0.472888,0.572444 -1.270626,0.859375 -2.390625,0.859375 h -0.970703 v 5.525391 h 2.203125 c 1.816887,0 3.298471,-0.211655 4.443359,-0.634766 1.144888,-0.423111 2.015949,-1.194454 2.613281,-2.314453 0.597339,-1.119999 0.894529,-2.701301 0.894529,-4.742187 v -2.240235 c 0,-1.045332 0.13834,-1.853337 0.41211,-2.425781 0.27378,-0.597333 0.72153,-1.020643 1.34375,-1.269531 0.62222,-0.273778 1.48106,-0.460992 2.57617,-0.560547 v -6.197266 c -1.12,-0.09956 -1.99106,-0.284816 -2.61328,-0.558594 -0.62222,-0.273777 -1.06997,-0.697087 -1.34375,-1.269531 -0.24888,-0.597332 -0.375,-1.407291 -0.375,-2.427734 v -2.240234 c 0,-2.040888 -0.29719,-3.620236 -0.894529,-4.740235 C 99.140949,9.9444543 98.269888,9.1731108 97.125,8.75 95.980112,8.3268893 94.498528,8.1152344 92.681641,8.1152344 Z"
     style="-inkscape-font-specification:'HarmonyOS Sans Heavy';fill:#000000;stroke-width:6.5"
     id="path4" />
</svg>
