<?xml version="1.0" encoding="UTF-8" standalone="no"?>
<svg
   width="115"
   height="125"
   viewBox="0 0 115 125"
   fill="none"
   version="1.1"
   id="svg3"
   sodipodi:docname="j.svg"
   inkscape:version="1.4 (e7c3feb100, 2024-10-09)"
   xmlns:inkscape="http://www.inkscape.org/namespaces/inkscape"
   xmlns:sodipodi="http://sodipodi.sourceforge.net/DTD/sodipodi-0.dtd"
   xmlns="http://www.w3.org/2000/svg"
   xmlns:svg="http://www.w3.org/2000/svg">
  <sodipodi:namedview
     id="namedview3"
     pagecolor="#ffffff"
     bordercolor="#000000"
     borderopacity="0.25"
     inkscape:showpageshadow="2"
     inkscape:pageopacity="0.0"
     inkscape:pagecheckerboard="0"
     inkscape:deskcolor="#d1d1d1"
     showgrid="true"
     inkscape:zoom="2.8284272"
     inkscape:cx="-70.710676"
     inkscape:cy="23.5113"
     inkscape:window-width="1920"
     inkscape:window-height="1008"
     inkscape:window-x="0"
     inkscape:window-y="0"
     inkscape:window-maximized="1"
     inkscape:current-layer="svg3">
    <inkscape:grid
       id="grid5"
       units="px"
       originx="0"
       originy="0"
       spacingx="1"
       spacingy="1"
       empcolor="#0099e5"
       empopacity="0.30196078"
       color="#0099e5"
       opacity="0.14901961"
       empspacing="5"
       enabled="true"
       visible="true" />
  </sodipodi:namedview>
  <defs
     id="defs3">
    <clipPath
       id="clip0_19_766">
      <rect
         width="115"
         height="125"
         fill="white"
         id="rect3" />
    </clipPath>
  </defs>
  <rect
     style="fill:#000000"
     id="rect1"
     width="0.1"
     height="0.1"
     x="113"
     y="0.3203125" />
  <path
     d="m 56.22187,78.492183 q -3.247997,0 -5.599995,-1.567998 -2.314665,-1.567999 -3.061331,-4.815996 l 5.338662,-2.799998 q 0.410667,1.679999 1.194666,2.538665 0.821333,0.821332 2.202665,0.821332 1.754665,0 2.426664,-1.306665 0.709333,-1.343999 0.709333,-4.218663 V 50.678874 h 6.383995 v 17.098652 q 0,5.711995 -2.725331,8.213326 -2.687998,2.501331 -6.869328,2.501331 z"
     id="text2"
     style="font-weight:900;font-size:37.3333px;line-height:0.9;font-family:'HarmonyOS Sans';-inkscape-font-specification:'HarmonyOS Sans Heavy';text-align:end;letter-spacing:1px;text-anchor:end;fill:#000000;stroke-width:6.5"
     aria-label="J" />
  <path
     d="m 20,116.38867 v 5.72147 c 0,0.91255 -1.2454,1.36955 -1.97362,0.72428 L 2.3191464,108.91857 c -0.451499,-0.40002 -0.451499,-1.04846 0,-1.44848 L 18.02638,93.5542 C 18.7546,92.909033 20,93.366004 20,94.278579 V 100 h 18.4984 v 16.38867 z"
     fill="#000000"
     id="path5"
     style="stroke-width:1.45097" />
  <path
     d="m 106.83467,11.074678 v 5.898662 c 1.568,0.447999 2.912,0.958221 4.032,1.530665 1.12,0.572444 2.04088,1.368888 2.76266,2.389332 0.74667,0.995555 1.12,2.252442 1.12,3.770663 0,2.389331 -0.73422,4.255996 -2.20266,5.599995 -1.44356,1.343999 -3.28534,2.202665 -5.52533,2.575998 v 5.077329 h -5.22667 V 32.877326 C 99.728898,32.528882 97.912011,31.757327 96.344012,30.562662 94.776013,29.343107 93.693347,27.75022 93.096014,25.783999 l 4.778663,-2.725331 c 0.547555,1.045333 1.144888,1.891554 1.791998,2.538665 0.647115,0.622221 1.418665,1.070221 2.314665,1.343998 v -5.973328 c -1.59289,-0.447999 -2.949331,-0.958221 -4.06933,-1.530665 -1.119999,-0.572444 -2.053331,-1.368888 -2.799997,-2.389331 -0.746666,-1.020444 -1.119999,-2.289776 -1.119999,-3.807997 0,-2.314665 0.734221,-4.156441 2.202664,-5.5253289 1.468443,-1.3688877 3.335109,-2.264887 5.599992,-2.6879977 V 0.2480208 h 5.22667 v 4.7413293 c 1.96622,0.3484441 3.64622,1.0826657 5.03999,2.2026648 1.39378,1.0951101 2.30222,2.4888871 2.72533,4.1813301 l -4.89066,2.762664 c -0.37333,-0.771555 -0.80889,-1.406221 -1.30667,-1.903998 -0.49777,-0.522667 -1.08266,-0.908444 -1.75466,-1.157333 z m -7.093328,1.903999 c 0,0.373333 0.08711,0.721777 0.261328,1.045332 0.19912,0.298667 0.46045,0.56 0.784,0.783999 0.32356,0.224 0.72178,0.435556 1.19467,0.634667 v -4.666663 c -0.69689,0.174222 -1.24444,0.447999 -1.64267,0.821332 -0.398217,0.348445 -0.597328,0.808889 -0.597328,1.381333 z m 7.093328,9.557325 v 4.554663 c 0.69689,-0.149333 1.232,-0.398222 1.60533,-0.746666 C 108.81333,25.995554 109,25.547555 109,25 c 0,-0.373333 -0.0871,-0.709333 -0.26133,-1.007999 -0.17422,-0.323555 -0.42311,-0.597333 -0.74667,-0.821333 -0.32355,-0.248889 -0.70933,-0.460444 -1.15733,-0.634666 z"
     id="text3"
     style="font-weight:900;font-size:37.3333px;line-height:0.9;font-family:'HarmonyOS Sans';-inkscape-font-specification:'HarmonyOS Sans Heavy';text-align:end;letter-spacing:1px;text-anchor:end;fill:#000000;stroke-width:6.5"
     aria-label="$4"
     sodipodi:nodetypes="ccscscccccccccccsssscccccccccscscccsccssccc" />
  <path
     d="m 104.19734,51.789324 h 6.19733 v 5.786662 h 3.65864 v 5.450662 h -3.65864 v 5.338662 h -6.19733 V 63.026648 H 92.661343 V 58.658652 L 101.69599,41 h 6.60801 l -8.54933,16.575986 h 4.44267 z"
     style="font-weight:900;font-size:37.3333px;line-height:0.9;font-family:'HarmonyOS Sans';-inkscape-font-specification:'HarmonyOS Sans Heavy';text-align:end;letter-spacing:1px;text-anchor:end;fill:#000000;stroke-width:6.5"
     id="path1" />
</svg>
