<?xml version="1.0" encoding="UTF-8" standalone="no"?>
<svg
   width="115"
   height="125"
   viewBox="0 0 115 125"
   fill="none"
   version="1.1"
   id="svg3"
   sodipodi:docname="k.svg"
   inkscape:version="1.4 (e7c3feb100, 2024-10-09)"
   xmlns:inkscape="http://www.inkscape.org/namespaces/inkscape"
   xmlns:sodipodi="http://sodipodi.sourceforge.net/DTD/sodipodi-0.dtd"
   xmlns="http://www.w3.org/2000/svg"
   xmlns:svg="http://www.w3.org/2000/svg">
  <sodipodi:namedview
     id="namedview3"
     pagecolor="#ffffff"
     bordercolor="#000000"
     borderopacity="0.25"
     inkscape:showpageshadow="2"
     inkscape:pageopacity="0.0"
     inkscape:pagecheckerboard="0"
     inkscape:deskcolor="#d1d1d1"
     showgrid="true"
     inkscape:zoom="4.0000001"
     inkscape:cx="62.999998"
     inkscape:cy="39.124999"
     inkscape:window-width="1920"
     inkscape:window-height="1008"
     inkscape:window-x="0"
     inkscape:window-y="0"
     inkscape:window-maximized="1"
     inkscape:current-layer="text2">
    <inkscape:grid
       id="grid5"
       units="px"
       originx="0"
       originy="0"
       spacingx="1"
       spacingy="1"
       empcolor="#0099e5"
       empopacity="0.30196078"
       color="#0099e5"
       opacity="0.14901961"
       empspacing="5"
       enabled="true"
       visible="true" />
  </sodipodi:namedview>
  <defs
     id="defs3">
    <clipPath
       id="clip0_19_766">
      <rect
         width="115"
         height="125"
         fill="white"
         id="rect3" />
    </clipPath>
  </defs>
  <rect
     style="fill:#000000"
     id="rect1"
     width="0.1"
     height="0.1"
     x="113"
     y="0.3203125" />
  <path
     d="m 24.249381,105 h 5.72147 c 0.91255,0 1.36955,1.2454 0.72428,1.97362 l -13.91585,15.70724 c -0.40002,0.4515 -1.04846,0.4515 -1.44848,0 L 1.4149104,106.97362 C 0.76974335,106.2454 1.2267144,105 2.1392894,105 H 7.8607106 V 86.501603 H 24.249381 Z"
     fill="#000000"
     id="path5"
     style="stroke-width:1.45097" />
  <path
     d="M 69.677316,47.672023 59.485324,58.573347 70.871981,74.999999 h -8.213326 l -7.839993,-11.461323 -3.434664,3.73333 v 7.727993 H 45.000003 V 47.672023 h 6.383995 V 59.618679 L 61.799989,47.672023 Z"
     id="text1"
     style="font-weight:900;font-size:37.3333px;line-height:0.9;font-family:'HarmonyOS Sans';-inkscape-font-specification:'HarmonyOS Sans Heavy';text-align:end;letter-spacing:1px;text-anchor:end;fill:#000000;stroke-width:6.5"
     aria-label="K" />
  <g
     id="text2"
     style="font-weight:900;font-size:37.3333px;line-height:0.9;font-family:'HarmonyOS Sans';-inkscape-font-specification:'HarmonyOS Sans Heavy';text-align:end;letter-spacing:1px;text-anchor:end;fill:#000000;stroke-width:6.5"
     aria-label="%&#10;5">
    <path
       style="text-align:center;text-anchor:middle"
       d="m 95.669349,7.0559936 q 0,2.0906649 -0.970666,3.6959964 -0.933333,1.605332 -2.538665,2.463998 -1.567998,0.858666 -3.471997,0.858666 -1.866665,0 -3.471997,-0.858666 -1.567999,-0.858666 -2.538664,-2.463998 -0.970666,-1.6053315 -0.970666,-3.6959964 0,-2.0906649 0.970666,-3.6959969 0.970665,-1.605332 2.575997,-2.46399789 Q 86.858689,-4.2724609e-7 88.688021,-4.2724609e-7 q 1.903999,0 3.471997,0.85866593724609 1.605332,0.85866589 2.538665,2.50133119 0.970666,1.605332 0.970666,3.6959969 z m -4.74133,-0.037333 q 0,-1.1199991 -0.634666,-1.7919985 -0.634666,-0.7093327 -1.605332,-0.7093327 -0.933332,0 -1.567998,0.7093327 -0.597333,0.6719994 -0.597333,1.7919985 0,1.1573323 0.597333,1.8293317 0.634666,0.6719995 1.567998,0.6719995 0.970666,0 1.605332,-0.6719995 0.634666,-0.6719994 0.634666,-1.8293317 z M 114,21.317315 q 0,2.090665 -0.97067,3.695997 -0.93333,1.605332 -2.53866,2.463998 -1.60533,0.858665 -3.472,0.858665 -1.86666,0 -3.47199,-0.858665 -1.60534,-0.858666 -2.576,-2.463998 -0.97067,-1.605332 -0.97067,-3.695997 0,-2.127998 0.97067,-3.695997 0.97066,-1.605332 2.576,-2.463998 1.64266,-0.895999 3.47199,-0.895999 1.86667,0 3.472,0.858666 1.60533,0.858666 2.53866,2.463998 Q 114,19.189317 114,21.317315 Z m -4.74133,-0.03733 q 0,-1.157332 -0.672,-1.829331 -0.63467,-0.672 -1.568,-0.672 -0.93333,0 -1.568,0.672 -0.63466,0.671999 -0.63466,1.829331 0,1.119999 0.63466,1.829332 0.63467,0.672 1.568,0.672 0.93333,0 1.568,-0.672 0.672,-0.709333 0.672,-1.829332 z M 86.63469,27.850643 102.94934,0.52266579 H 109.072 L 92.757351,27.850643 Z"
       id="path3" />
    <path
       style="text-align:center;text-anchor:middle"
       d="m 99.361333,43.530628 q 2.351997,0 4.293327,1.119999 1.97867,1.082666 3.136,3.135998 1.19467,2.015998 1.19467,4.741329 0,2.911997 -1.30667,5.077329 -1.30667,2.127998 -3.54666,3.210664 -2.24,1.119999 -4.927999,1.119999 -3.247997,0 -5.562662,-1.493332 -2.314665,-1.455999 -3.322664,-4.40533 l 5.077329,-2.986664 q 0.448,1.642665 1.381332,2.463998 0.970666,0.783999 2.314665,0.783999 1.007999,0 1.717332,-0.485333 0.746667,-0.485332 1.082667,-1.306665 0.336,-0.821333 0.336,-1.791999 0,-1.045332 -0.37333,-1.866665 -0.37334,-0.821332 -1.157337,-1.306665 -0.746666,-0.485333 -1.829332,-0.485333 -2.202665,0 -3.359997,2.165331 L 89.841341,48.98129 91.670673,34.085303 h 15.007987 v 5.375995 h -9.706658 l -0.597333,4.554663 q 0.709333,-0.224 1.455999,-0.336 0.746666,-0.149333 1.530665,-0.149333 z"
       id="path4" />
  </g>
</svg>
