<?xml version="1.0" encoding="UTF-8" standalone="no"?>
<svg
   width="115"
   height="50"
   viewBox="0 0 115 50"
   fill="none"
   version="1.1"
   id="svg3"
   sodipodi:docname="l-side.svg"
   inkscape:version="1.4 (e7c3feb100, 2024-10-09)"
   xmlns:inkscape="http://www.inkscape.org/namespaces/inkscape"
   xmlns:sodipodi="http://sodipodi.sourceforge.net/DTD/sodipodi-0.dtd"
   xmlns="http://www.w3.org/2000/svg"
   xmlns:svg="http://www.w3.org/2000/svg">
  <sodipodi:namedview
     id="namedview3"
     pagecolor="#ffffff"
     bordercolor="#000000"
     borderopacity="0.25"
     inkscape:showpageshadow="2"
     inkscape:pageopacity="0.0"
     inkscape:pagecheckerboard="0"
     inkscape:deskcolor="#d1d1d1"
     inkscape:zoom="5.3391305"
     inkscape:cx="34.087947"
     inkscape:cy="36.241856"
     inkscape:window-width="1920"
     inkscape:window-height="1008"
     inkscape:window-x="0"
     inkscape:window-y="0"
     inkscape:window-maximized="1"
     inkscape:current-layer="svg3">
    <inkscape:page
       x="0"
       y="0"
       width="115"
       height="50"
       id="page2"
       margin="0"
       bleed="0" />
  </sodipodi:namedview>
  <defs
     id="defs3" />
  <path
     d="m 50.542583,18.32313 v -1.418666 q 0,-2.202665 -0.709333,-3.06133 -0.709333,-0.858666 -2.389331,-0.858666 H 46.473253 V 7.4591389 h 2.202665 q 2.725331,0 4.442663,0.6346662 1.717332,0.6346661 2.613331,2.3146649 0.895999,1.679998 0.895999,4.741329 v 2.239998 q 0,1.530666 0.373333,2.426665 0.410666,0.858666 1.343999,1.269332 0.933332,0.410666 2.613331,0.56 v 6.197328 q -1.642665,0.149333 -2.575998,0.559999 -0.933332,0.373333 -1.343999,1.269332 -0.410666,0.858666 -0.410666,2.426665 v 2.239998 q 0,3.061331 -0.895999,4.741329 -0.895999,1.679999 -2.613331,2.314665 -1.717332,0.634666 -4.442663,0.634666 h -2.202665 v -5.525328 h 0.970666 q 1.679998,0 2.389331,-0.858666 0.709333,-0.858666 0.709333,-3.061331 v -1.418666 q 0,-2.687997 0.933332,-4.255996 0.970666,-1.605332 3.023998,-2.165331 -2.053332,-0.56 -3.023998,-2.127999 -0.933332,-1.605332 -0.933332,-4.293329 z"
     id="text2"
     style="font-weight:900;font-size:37.3333px;line-height:0.9;font-family:'HarmonyOS Sans';-inkscape-font-specification:'HarmonyOS Sans Heavy';text-align:center;letter-spacing:1px;text-anchor:middle;fill:#000000;stroke-width:6.5"
     aria-label="}" />
</svg>
