<?xml version="1.0" encoding="UTF-8" standalone="no"?>
<svg
   width="115"
   height="125"
   viewBox="0 0 115 125"
   fill="none"
   version="1.1"
   id="svg3"
   sodipodi:docname="l.svg"
   inkscape:version="1.4 (e7c3feb100, 2024-10-09)"
   xmlns:inkscape="http://www.inkscape.org/namespaces/inkscape"
   xmlns:sodipodi="http://sodipodi.sourceforge.net/DTD/sodipodi-0.dtd"
   xmlns="http://www.w3.org/2000/svg"
   xmlns:svg="http://www.w3.org/2000/svg">
  <g
     id="text4"
     style="font-weight:900;font-size:37.3333px;line-height:0.9;font-family:'HarmonyOS Sans';-inkscape-font-specification:'HarmonyOS Sans Heavy';text-align:center;letter-spacing:1px;text-anchor:middle;fill:#000000;stroke-width:6.5"
     aria-label="^&#10;6">
    <path
       d="m 105,7 -3.92,9.258659 H 95.442675 L 102.16267,0.6533385 h 5.67466 l 6.72,15.6053205 h -5.6 z"
       id="path4" />
    <path
       d="m 105.86667,28 q 2.61333,0 4.59199,1.082665 2.016,1.045333 3.136,3.061331 1.12,1.978665 1.12,4.62933 0,2.687997 -1.38133,4.815995 -1.38134,2.127999 -3.696,3.285331 -2.27733,1.194666 -4.96533,1.194666 -2.72533,0 -5.00266,-1.231999 -2.277333,-1.194666 -3.658665,-3.359997 -1.343999,-2.202665 -1.343999,-5.077329 0,-2.165332 0.783999,-4.143997 0.821333,-1.978665 2.986664,-5.338662 L 104,18.218675 h 6.832 l -5.152,7.80266 q -0.97067,1.381332 -1.04533,1.493332 L 104.112,28.186666 Q 105.008,28 105.86667,28 Z m -1.232,12.394656 q 0.97066,0 1.71733,-0.448 0.784,-0.485333 1.19466,-1.306665 0.41067,-0.821333 0.41067,-1.866665 0,-1.045333 -0.41067,-1.829332 -0.41066,-0.821333 -1.19466,-1.231999 -0.74667,-0.448 -1.71733,-0.448 -0.97067,0 -1.75467,0.448 -0.74666,0.410666 -1.19466,1.231999 -0.41067,0.821332 -0.41067,1.866665 0,1.045332 0.41067,1.866665 0.448,0.821333 1.19466,1.269332 0.784,0.448 1.75467,0.448 z"
       id="path6" />
  </g>
  <sodipodi:namedview
     id="namedview3"
     pagecolor="#ffffff"
     bordercolor="#000000"
     borderopacity="0.25"
     inkscape:showpageshadow="2"
     inkscape:pageopacity="0.0"
     inkscape:pagecheckerboard="0"
     inkscape:deskcolor="#d1d1d1"
     showgrid="true"
     inkscape:zoom="2.8284272"
     inkscape:cx="-58.336308"
     inkscape:cy="86.090248"
     inkscape:window-width="1920"
     inkscape:window-height="1008"
     inkscape:window-x="0"
     inkscape:window-y="0"
     inkscape:window-maximized="1"
     inkscape:current-layer="svg3">
    <inkscape:grid
       id="grid5"
       units="px"
       originx="0"
       originy="0"
       spacingx="1"
       spacingy="1"
       empcolor="#0099e5"
       empopacity="0.30196078"
       color="#0099e5"
       opacity="0.14901961"
       empspacing="5"
       enabled="true"
       visible="true" />
  </sodipodi:namedview>
  <defs
     id="defs3">
    <clipPath
       id="clip0_19_766">
      <rect
         width="115"
         height="125"
         fill="white"
         id="rect3" />
    </clipPath>
  </defs>
  <rect
     style="fill:#000000"
     id="rect1"
     width="0.1"
     height="0.1"
     x="113"
     y="0.3203125" />
  <path
     d="m 20,100.75062 v -5.721474 c 0,-0.91255 1.2454,-1.36955 1.97362,-0.72428 l 15.70724,13.915854 c 0.4515,0.40002 0.4515,1.04846 0,1.44848 L 21.97362,123.58509 C 21.2454,124.23025 20,123.77328 20,122.86071 v -5.72142 H 1.5016031 v -16.38867 z"
     fill="#000000"
     id="path5"
     style="stroke-width:1.45097" />
  <g
     id="text2"
     style="font-weight:900;font-size:37.3333px;line-height:0.9;font-family:'HarmonyOS Sans';-inkscape-font-specification:'HarmonyOS Sans Heavy';text-align:end;letter-spacing:1px;text-anchor:end;fill:#000000;stroke-width:6.5"
     aria-label="%&#10;5"
     transform="translate(1.7677669,-1.4142135)">
    <path
       d="M 45,74.999999 V 47.672023 h 6.383994 v 21.653315 h 11.98399 v 5.674661 z"
       id="text3"
       style="text-align:center;text-anchor:middle"
       aria-label="L" />
  </g>
</svg>
