<svg width="115" height="50" viewBox="0 0 115 50" fill="none" xmlns="http://www.w3.org/2000/svg">
<g clip-path="url(#clip0_19_941)">
<path fill-rule="evenodd" clip-rule="evenodd" d="M10 43H20.48V7H10V13.4H14.48V36.6H10V43ZM99.16 24.88C99.3342 24.9269 99.5177 24.9709 99.7105 25.0119C99.5036 25.0578 99.3068 25.1071 99.12 25.16C97.7333 25.5333 96.7733 26.2267 96.24 27.24C95.7067 28.2267 95.44 29.6533 95.44 31.52C95.44 33.0933 95.3733 34.3067 95.24 35.16C95.1067 36.0133 94.8667 36.6133 94.52 36.96C94.1733 37.28 93.6667 37.4533 93 37.48V43C94.7067 43 96.1067 42.8267 97.2 42.48C98.2933 42.1333 99.1467 41.5333 99.76 40.68C100.4 39.8267 100.84 38.6533 101.08 37.16C101.347 35.6667 101.48 33.7733 101.48 31.48C101.48 30.44 101.573 29.64 101.76 29.08C101.973 28.52 102.333 28.1333 102.84 27.92C103.373 27.7067 104.12 27.6 105.08 27.6V25.44V24.56V22.4C104.12 22.4 103.373 22.2933 102.84 22.08C102.333 21.8667 101.973 21.48 101.76 20.92C101.573 20.36 101.48 19.56 101.48 18.52C101.48 16.2267 101.347 14.3333 101.08 12.84C100.84 11.3467 100.4 10.1733 99.76 9.32C99.1467 8.46666 98.2933 7.86667 97.2 7.52C96.1067 7.17333 94.7067 7 93 7V12.52C93.6667 12.52 94.1733 12.6933 94.52 13.04C94.8933 13.3867 95.1467 13.9867 95.28 14.84C95.4133 15.6933 95.48 16.9067 95.48 18.48C95.48 20.32 95.7467 21.7467 96.28 22.76C96.8133 23.7733 97.7733 24.48 99.16 24.88Z" fill="black"/>
<rect width="1" height="1" fill="black"/>
<rect x="114" y="49" width="1" height="1" fill="black"/>
</g>
<defs>
<clipPath id="clip0_19_941">
<rect width="115" height="50" fill="white"/>
</clipPath>
</defs>
</svg>
