<svg width="115" height="125" viewBox="0 0 115 125" fill="none" xmlns="http://www.w3.org/2000/svg">
<g clip-path="url(#clip0_8_146)">
<path d="M46 77.4V48H58.18C60.392 48 62.352 48.434 64.06 49.302C65.768 50.17 67.098 51.374 68.05 52.914C69.03 54.454 69.52 56.232 69.52 58.248C69.52 60.264 69.03 62.056 68.05 63.624C67.098 65.164 65.768 66.382 64.06 67.278C62.352 68.146 60.392 68.58 58.18 68.58H53.77V77.4H46ZM53.77 61.44H57.97C59.034 61.44 59.888 61.146 60.532 60.558C61.204 59.97 61.54 59.2 61.54 58.248C61.54 57.324 61.204 56.568 60.532 55.98C59.888 55.392 59.034 55.098 57.97 55.098H53.77V61.44Z" fill="black"/>
<rect width="1" height="1" fill="black"/>
<rect x="114" y="124" width="1" height="1" fill="black"/>
</g>
<defs>
<clipPath id="clip0_8_146">
<rect width="115" height="125" fill="white"/>
</clipPath>
</defs>
</svg>
