<svg width="115" height="125" viewBox="0 0 115 125" fill="none" xmlns="http://www.w3.org/2000/svg">
<g clip-path="url(#clip0_19_766)">
<path fill-rule="evenodd" clip-rule="evenodd" d="M1.22437 8.52964C0.856865 7.70219 1.70219 6.85687 2.52964 7.22437L26.7347 17.975C27.5868 18.3535 27.4899 19.5928 26.5893 19.8341L17.0811 22.3818C16.7398 22.4733 16.4733 22.7398 16.3818 23.0811L13.8341 32.5893C13.5928 33.4898 12.3535 33.5868 11.975 32.7347L1.22437 8.52964ZM46 77.4V48H58.18C60.392 48 62.352 48.434 64.06 49.302C65.768 50.142 67.098 51.318 68.05 52.83C69.03 54.314 69.52 56.036 69.52 57.996C69.52 59.956 69.03 61.706 68.05 63.246C67.1324 64.7034 65.8635 65.8617 64.2434 66.7208L70.696 77.4H61.792L56.5028 68.076H53.77V77.4H46ZM53.77 60.936H57.76C58.46 60.936 59.076 60.81 59.608 60.558C60.14 60.306 60.56 59.956 60.868 59.508C61.176 59.06 61.33 58.556 61.33 57.996C61.33 57.156 60.994 56.47 60.322 55.938C59.678 55.378 58.824 55.098 57.76 55.098H53.77V60.936ZM98.535 90C100.467 90 102.133 90.336 103.533 91.008C104.961 91.68 106.137 92.618 107.061 93.822C107.985 95.026 108.671 96.44 109.119 98.064C109.595 99.66 109.833 101.41 109.833 103.314C109.833 105.33 109.623 107.346 109.203 109.362C108.783 111.378 108.097 113.226 107.145 114.906C106.193 116.558 104.891 117.888 103.239 118.896C101.615 119.904 99.585 120.408 97.149 120.408C95.525 120.408 93.957 120.184 92.445 119.736C90.961 119.288 89.603 118.644 88.371 117.804L92.025 112.092C92.893 112.652 93.803 113.058 94.755 113.31C95.707 113.534 96.533 113.646 97.233 113.646C98.773 113.646 100.047 112.918 101.055 111.462C101.698 110.534 102.136 109.218 102.368 107.516C102.043 107.833 101.689 108.127 101.307 108.396C100.103 109.264 98.647 109.698 96.939 109.698C95.091 109.698 93.453 109.236 92.025 108.312C90.597 107.388 89.477 106.156 88.665 104.616C87.853 103.076 87.447 101.368 87.447 99.492C87.447 97.672 87.895 96.048 88.791 94.62C89.687 93.192 90.961 92.072 92.613 91.26C94.293 90.42 96.267 90 98.535 90ZM98.493 96.468C97.877 96.468 97.317 96.622 96.813 96.93C96.309 97.238 95.903 97.658 95.595 98.19C95.315 98.694 95.175 99.268 95.175 99.912C95.175 100.556 95.315 101.158 95.595 101.718C95.903 102.278 96.309 102.726 96.813 103.062C97.317 103.37 97.877 103.524 98.493 103.524C99.137 103.524 99.711 103.37 100.215 103.062C100.719 102.726 101.125 102.278 101.433 101.718C101.741 101.158 101.895 100.556 101.895 99.912C101.895 99.268 101.741 98.694 101.433 98.19C101.125 97.658 100.719 97.238 100.215 96.93C99.711 96.622 99.137 96.468 98.493 96.468ZM65 90.462V119.862H72.77V109.026H82.43V101.886H72.77V97.602H85.118V90.462H65ZM29 25.6484V30.5703H42.8164V25.6484H38.8789V12.9219H42.8164V7.99999H29V12.9219H32.9375V25.6484H29Z" fill="black"/>
<rect width="1" height="1" fill="black"/>
<rect x="114" y="124" width="1" height="1" fill="black"/>
</g>
<defs>
<clipPath id="clip0_19_766">
<rect width="115" height="125" fill="white"/>
</clipPath>
</defs>
</svg>
