<?xml version="1.0" encoding="UTF-8" standalone="no"?>
<svg
   width="115"
   height="125"
   viewBox="0 0 115 125"
   fill="none"
   version="1.1"
   id="svg7"
   sodipodi:docname="s.svg"
   inkscape:version="1.4 (e7c3feb100, 2024-10-09)"
   xmlns:inkscape="http://www.inkscape.org/namespaces/inkscape"
   xmlns:sodipodi="http://sodipodi.sourceforge.net/DTD/sodipodi-0.dtd"
   xmlns="http://www.w3.org/2000/svg"
   xmlns:svg="http://www.w3.org/2000/svg">
  <sodipodi:namedview
     id="namedview1"
     pagecolor="#ffffff"
     bordercolor="#000000"
     borderopacity="0.25"
     inkscape:showpageshadow="2"
     inkscape:pageopacity="0.0"
     inkscape:pagecheckerboard="0"
     inkscape:deskcolor="#d1d1d1"
     inkscape:zoom="6.392"
     inkscape:cx="57.650188"
     inkscape:cy="62.812891"
     inkscape:window-width="1920"
     inkscape:window-height="1008"
     inkscape:window-x="0"
     inkscape:window-y="0"
     inkscape:window-maximized="1"
     inkscape:current-layer="g6" />
  <g
     clip-path="url(#clip0_19_849)"
     id="g6">
    <path
       d="M 1.186738,124 V 96.672023 h 18.293317 v 5.562657 H 7.570732 v 5.97333 h 10.677324 v 5.52533 H 7.570732 V 124 Z M 34.14401,107.42401 h 6.19733 v 5.78667 H 44 v 5.45066 H 40.34134 V 124 h -6.19733 v -5.33866 H 22.608019 v -4.368 L 31.64268,96.634689 h 6.60799 l -8.549324,16.575991 h 4.442664 z"
       id="text1"
       style="font-weight:900;font-size:37.3333px;line-height:0.9;font-family:'HarmonyOS Sans';-inkscape-font-specification:'HarmonyOS Sans Heavy';text-align:center;letter-spacing:1px;text-anchor:middle;fill:#000000;stroke-width:6.5"
       aria-label="F4" />
    <path
       d="m 88.442125,25.866795 c -0.36751,-0.8274 0.47782,-1.6727 1.30527,-1.3052 l 24.205105,10.7506 c 0.8521,0.3785 0.7551,1.6178 -0.1455,1.8591 l -9.5081,2.5477 c -0.3413,0.0914 -0.6079,0.358 -0.6993,0.6993 l -2.5477,9.5082 c -0.2413,0.9005 -1.480724,0.9975 -1.859124,0.1454 z"
       fill="#000000"
       id="path4" />
    <path
       d="m 99.628016,17.627936 v 4.18934 c 0,0.66818 -0.807902,1.0028 -1.280302,0.53033 l -10.18937,-10.18937 c -0.29289,-0.2929 -0.29289,-0.7677 0,-1.0606 L 98.347714,0.90823694 c 0.4724,-0.47239996 1.280302,-0.13779996 1.280302,0.53039996 V 5.6279367 H 111.62804 V 17.627936 Z"
       fill="#000000"
       id="path5" />
    <path
       d="m 67.299065,64.268956 q 0,2.986664 -1.605332,4.927995 -1.567998,1.903999 -3.95733,2.725332 -2.389331,0.858665 -4.890662,0.858665 -3.770664,0 -6.906661,-1.754665 -3.098664,-1.717332 -4.18133,-5.002662 l 5.151996,-2.949331 q 0.821332,1.866665 2.389331,2.949331 1.605332,1.045332 3.770664,1.045332 1.605332,0 2.575997,-0.597333 1.008,-0.634666 1.008,-1.829331 0,-0.970666 -0.672,-1.605332 -0.671999,-0.634666 -1.679998,-1.045333 -1.008,-0.410666 -2.799998,-0.933332 -2.650664,-0.784 -4.40533,-1.530666 -1.717332,-0.783999 -2.94933,-2.389331 -1.231999,-1.605332 -1.231999,-4.18133 0,-2.837331 1.455998,-4.741329 1.493332,-1.903998 3.84533,-2.837331 2.389332,-0.933332 5.114663,-0.933332 2.314664,0 4.330663,0.746666 2.053331,0.709332 3.471997,2.127998 1.418665,1.418665 1.941331,3.434664 l -5.226662,2.94933 Q 61.25107,51.986299 59.981738,51.0903 q -1.231999,-0.933332 -3.023997,-0.933332 -1.530666,0 -2.501332,0.709332 -0.933332,0.709333 -0.933332,1.829332 0,0.895999 0.634666,1.493332 0.634666,0.597333 1.642665,0.970666 1.007999,0.373333 2.762665,0.895999 2.687997,0.784 4.442663,1.605332 1.754665,0.821333 3.023997,2.426665 1.269332,1.605332 1.269332,4.18133 z"
       id="text2"
       style="font-weight:900;font-size:37.3333px;line-height:0.9;font-family:'HarmonyOS Sans';-inkscape-font-specification:'HarmonyOS Sans Heavy';text-align:center;letter-spacing:1px;text-anchor:middle;fill:#000000;stroke-width:6.5"
       aria-label="S" />
  </g>
  <defs
     id="defs7">
    <clipPath
       id="clip0_19_849">
      <rect
         width="115"
         height="125"
         fill="#ffffff"
         id="rect7"
         x="0"
         y="0" />
    </clipPath>
  </defs>
</svg>
