<?xml version="1.0" encoding="UTF-8" standalone="no"?>
<svg
   width="115"
   height="125"
   viewBox="0 0 115 125"
   fill="none"
   version="1.1"
   id="svg7"
   sodipodi:docname="semi.svg"
   inkscape:version="1.4 (e7c3feb100, 2024-10-09)"
   xmlns:inkscape="http://www.inkscape.org/namespaces/inkscape"
   xmlns:sodipodi="http://sodipodi.sourceforge.net/DTD/sodipodi-0.dtd"
   xmlns="http://www.w3.org/2000/svg"
   xmlns:svg="http://www.w3.org/2000/svg">
  <sodipodi:namedview
     id="namedview1"
     pagecolor="#ffffff"
     bordercolor="#000000"
     borderopacity="0.25"
     inkscape:showpageshadow="2"
     inkscape:pageopacity="0.0"
     inkscape:pagecheckerboard="0"
     inkscape:deskcolor="#d1d1d1"
     inkscape:zoom="6.392"
     inkscape:cx="57.571965"
     inkscape:cy="44.039424"
     inkscape:window-width="1920"
     inkscape:window-height="1008"
     inkscape:window-x="0"
     inkscape:window-y="0"
     inkscape:window-maximized="1"
     inkscape:current-layer="g6" />
  <g
     clip-path="url(#clip0_19_849)"
     id="g6">
    <path
       id="rect6"
       style="fill:#000000"
       d="m 114,124 h 1 v 1 h -1 z" />
    <g
       id="text2"
       style="font-weight:900;font-size:37.3333px;line-height:0.9;font-family:'HarmonyOS Sans';-inkscape-font-specification:'HarmonyOS Sans Heavy';text-align:center;letter-spacing:1px;text-anchor:middle;fill:#000000;stroke-width:6.5"
       aria-label=":&#10;;">
      <path
         d="m 56.233742,46.96743 q -1.455999,0 -2.501331,-1.082666 -1.008,-1.045332 -1.008,-2.538664 0,-1.493332 1.008,-2.538665 1.045332,-1.082666 2.501331,-1.082666 1.493332,0 2.538664,1.082666 1.045333,1.045333 1.045333,2.538665 0,1.493332 -1.045333,2.538664 -1.045332,1.082666 -2.538664,1.082666 z m 0,-13.066656 q -1.455999,0 -2.501331,-1.045332 -1.008,-1.082666 -1.008,-2.575998 0,-1.493332 1.008,-2.538664 1.045332,-1.082666 2.501331,-1.082666 1.493332,0 2.538664,1.082666 1.045333,1.045332 1.045333,2.538664 0,1.493332 -1.045333,2.575998 -1.045332,1.045332 -2.538664,1.045332 z"
         id="path6" />
      <path
         d="m 56.864414,67.500745 q -1.455998,0 -2.501331,-1.045333 -1.045332,-1.082665 -1.045332,-2.575997 0,-1.493332 1.045332,-2.538665 1.045333,-1.082666 2.501331,-1.082666 1.493332,0 2.538665,1.082666 1.045332,1.045333 1.045332,2.538665 0,1.493332 -1.045332,2.575997 -1.045333,1.045333 -2.538665,1.045333 z m -0.261333,5.823995 q 1.642665,0 2.799998,1.306665 1.157332,1.306666 1.157332,3.807997 0,2.277332 -1.045332,4.255997 -1.007999,1.978665 -2.799998,3.247997 -1.754665,1.306665 -3.882663,1.642665 V 84.41273 q 1.754665,-0.373333 2.799997,-1.343998 1.045333,-0.970666 1.269333,-2.501332 -0.03733,0 -0.07467,0 -0.03733,0 -0.07467,0 -1.455998,0 -2.501331,-1.082665 -1.007999,-1.045333 -1.007999,-2.538665 0,-1.530665 0.933333,-2.575998 0.970665,-1.045332 2.426664,-1.045332 z"
         id="path7" />
    </g>
    <g
       id="text3"
       style="font-weight:900;font-size:37.3333px;line-height:0.9;font-family:'HarmonyOS Sans';-inkscape-font-specification:'HarmonyOS Sans Heavy';text-align:center;letter-spacing:1px;text-anchor:middle;fill:#000000;stroke-width:6.5"
       aria-label="&quot;&#10;'">
      <path
         d="M 6.0032661,102.65163 H 1.0006059 L 0.66460586,90.480941 H 6.2646061 Z m 8.9973319,0 H 9.9979356 l -0.336,-12.170689 h 5.6746624 z"
         id="path4" />
      <path
         d="M 11.020608,124.2516 H 6.0179461 l -0.336,-12.17066 h 5.6000019 z"
         id="path5"
         sodipodi:nodetypes="ccccc" />
      <g
         id="text8"
         aria-label=")&#10;0"
         transform="translate(12.535352,-14.168962)">
        <path
           d="m 96.99667,31.932766 q 0,5.301329 -1.754666,9.743992 -1.754665,4.442663 -4.815995,7.541327 H 84.45268 q 3.098664,-3.695997 4.666663,-7.727994 1.605332,-4.031996 1.605332,-9.557325 0,-5.487995 -1.605332,-9.482658 -1.567999,-4.031997 -4.666663,-7.80266 h 5.973329 q 3.06133,3.098664 4.815995,7.57866 1.754666,4.442663 1.754666,9.706658 z"
           id="path9" />
        <path
           d="m 101.99531,65.010071 c 0,4.60444 -0.87111,8.11377 -2.613332,10.527991 -1.717332,2.41422 -4.168885,3.62133 -7.35466,3.62133 -3.185775,0 -5.662218,-1.194666 -7.429327,-3.583997 -1.742221,-2.41422 -2.613332,-5.935995 -2.613332,-10.565324 0,-4.62933 0.871111,-8.151105 2.613332,-10.565325 1.767109,-2.41422 4.243552,-3.62133 7.429327,-3.62133 3.185775,0 5.637328,1.20711 7.35466,3.62133 1.742222,2.41422 2.613332,5.935995 2.613332,10.565325 z m -13.253323,0 c 0,2.812442 0.261333,4.903107 0.783999,6.271994 0.547555,1.368888 1.381333,2.053332 2.501332,2.053332 1.119999,0 1.928887,-0.684444 2.426664,-2.053332 0.522666,-1.393777 0.783999,-3.484441 0.783999,-6.271994 0,-2.812443 -0.261333,-4.903108 -0.783999,-6.271995 -0.497777,-1.368888 -1.306665,-2.053332 -2.426664,-2.053332 -1.095111,0 -1.916443,0.672 -2.463998,2.015999 -0.547555,1.343999 -0.821333,3.447108 -0.821333,6.309328 z"
           id="path10"
           sodipodi:nodetypes="scscscscsscscscsss" />
      </g>
    </g>
  </g>
  <defs
     id="defs7">
    <clipPath
       id="clip0_19_849">
      <rect
         width="115"
         height="125"
         fill="#ffffff"
         id="rect7"
         x="0"
         y="0" />
    </clipPath>
  </defs>
</svg>
