<svg width="115" height="50" viewBox="0 0 115 50" fill="none" xmlns="http://www.w3.org/2000/svg">
<g clip-path="url(#clip0_19_719)">
<path fill-rule="evenodd" clip-rule="evenodd" d="M3 11V39H10.4V30.6H14.6C16.7067 30.6 18.5733 30.1867 20.2 29.36C21.8267 28.5067 23.0933 27.3467 24 25.88C24.9333 24.3867 25.4 22.68 25.4 20.76C25.4 18.84 24.9333 17.1467 24 15.68C23.0933 14.2133 21.8267 13.0667 20.2 12.24C18.5733 11.4133 16.7067 11 14.6 11H3ZM14.4 23.8H10.4V17.76H14.4C15.4133 17.76 16.2267 18.04 16.84 18.6C17.48 19.16 17.8 19.88 17.8 20.76C17.8 21.6667 17.48 22.4 16.84 22.96C16.2267 23.52 15.4133 23.8 14.4 23.8ZM39.08 39L39.0044 37.2607C38.9766 37.2941 38.9485 37.3272 38.92 37.36C37.6934 38.7734 35.9734 39.48 33.76 39.48C31.44 39.48 29.6267 38.96 28.32 37.92C27.04 36.8534 26.4 35.3334 26.4 33.36C26.4 31.28 27.04 29.7467 28.32 28.76C29.6267 27.7467 31.44 27.24 33.76 27.24H38.7882C38.7687 27.0479 38.7459 26.8612 38.72 26.68C38.6134 25.9334 38.3467 25.3467 37.92 24.92C37.4934 24.4934 36.8 24.28 35.84 24.28C35.1734 24.28 34.6267 24.44 34.2 24.76C33.7734 25.08 33.4134 25.4534 33.12 25.88L26.84 23.88C27.4 22.7867 28.0934 21.84 28.92 21.04C29.7734 20.24 30.76 19.6267 31.88 19.2C33.0267 18.7467 34.2934 18.52 35.68 18.52C37.8134 18.52 39.64 18.9067 41.16 19.68C42.68 20.4534 43.84 21.5334 44.64 22.92C45.44 24.3067 45.84 25.92 45.84 27.76V39H39.08ZM36.6 31.36H38.88C38.88 31.9734 38.7467 32.52 38.48 33C38.2134 33.4534 37.84 33.8134 37.36 34.08C36.88 34.32 36.3067 34.44 35.64 34.44C35.0267 34.44 34.5467 34.3334 34.2 34.12C33.8534 33.9067 33.68 33.6 33.68 33.2C33.68 32.6134 33.9334 32.16 34.44 31.84C34.9467 31.52 35.6667 31.36 36.6 31.36ZM79.9209 39.48C78.5876 39.48 77.3476 39.2934 76.2009 38.92C75.0542 38.5467 74.0676 38.0267 73.2409 37.36C72.4409 36.6667 71.8809 35.84 71.5609 34.88L77.2809 32.64C77.5742 33.36 77.9876 33.8267 78.5209 34.04C79.0542 34.2267 79.5209 34.32 79.9209 34.32C80.3476 34.32 80.6942 34.2267 80.9609 34.04C81.2276 33.8534 81.3609 33.5867 81.3609 33.24C81.3609 32.8667 81.1742 32.56 80.8009 32.32C80.4276 32.0534 79.8542 31.8267 79.0809 31.64L77.4409 31.24C75.6542 30.7867 74.3076 30 73.4009 28.88C72.4942 27.76 72.0409 26.4534 72.0409 24.96C72.0409 22.9067 72.7876 21.32 74.2809 20.2C75.8009 19.08 77.8542 18.52 80.4409 18.52C82.0142 18.52 83.3343 18.72 84.4009 19.12C85.4942 19.4934 86.3876 20.0267 87.0809 20.72C87.7743 21.4134 88.3076 22.2134 88.6809 23.12L83.1209 25.24C82.9342 24.7067 82.6142 24.32 82.1609 24.08C81.7342 23.84 81.2009 23.72 80.5609 23.72C80.1076 23.72 79.7476 23.8267 79.4809 24.04C79.2409 24.2534 79.1209 24.5067 79.1209 24.8C79.1209 25.12 79.3076 25.4 79.6809 25.64C80.0809 25.8534 80.6809 26.0667 81.4809 26.28L83.1209 26.68C84.3476 26.9734 85.4142 27.4267 86.3209 28.04C87.2276 28.6267 87.9342 29.36 88.4409 30.24C88.9476 31.12 89.2009 32.1334 89.2009 33.28C89.2009 34.5867 88.8142 35.7067 88.0409 36.64C87.2676 37.5467 86.1876 38.2534 84.8009 38.76C83.4142 39.24 81.7876 39.48 79.9209 39.48ZM102.129 39.48C99.9694 39.48 98.0494 39.04 96.3694 38.16C94.6894 37.28 93.3694 36.0534 92.4094 34.48C91.4761 32.9067 91.0094 31.08 91.0094 29C91.0094 26.92 91.4761 25.0934 92.4094 23.52C93.3427 21.9467 94.6361 20.72 96.2894 19.84C97.9427 18.96 99.8494 18.52 102.009 18.52C104.063 18.52 105.863 18.9734 107.409 19.88C108.983 20.76 110.209 22.1067 111.089 23.92C111.996 25.7334 112.449 28.0267 112.449 30.8H98.4431C98.5084 31.2348 98.6172 31.6348 98.7694 32C99.0361 32.64 99.4361 33.1334 99.9694 33.48C100.503 33.8267 101.156 34 101.929 34C102.809 34 103.569 33.8 104.209 33.4C104.876 32.9734 105.289 32.4534 105.449 31.84L111.769 33.8C111.289 35.1867 110.516 36.3067 109.449 37.16C108.409 37.9867 107.236 38.5867 105.929 38.96C104.649 39.3067 103.383 39.48 102.129 39.48ZM105.123 26.4H98.4893C98.5666 25.8939 98.7 25.4673 98.8894 25.12C99.2361 24.5334 99.6627 24.12 100.169 23.88C100.703 23.6134 101.249 23.48 101.809 23.48C102.343 23.48 102.863 23.6134 103.369 23.88C103.903 24.12 104.343 24.5334 104.689 25.12C104.895 25.4673 105.039 25.8939 105.123 26.4ZM61.6922 36.5745L61.9559 39H68.7559V19H61.5559V29.64C61.5559 30.7067 61.3026 31.4933 60.7959 32C60.2892 32.5067 59.5292 32.7467 58.5159 32.72C58.0092 32.6933 57.5826 32.5467 57.2359 32.28C56.9159 32.0133 56.6626 31.6267 56.4759 31.12C56.3159 30.6133 56.2359 29.9867 56.2359 29.24V19H49.0359V29.24V30.44C49.0359 32.4933 49.2892 34.1867 49.7959 35.52C50.3292 36.8533 51.1292 37.8533 52.1959 38.52C53.2626 39.16 54.6092 39.48 56.2359 39.48C57.6226 39.48 58.8626 39.1067 59.9559 38.36C60.6177 37.8919 61.1965 37.2967 61.6922 36.5745Z" fill="black"/>
<rect width="1" height="1" fill="black"/>
<rect x="114" y="49" width="1" height="1" fill="black"/>
</g>
<defs>
<clipPath id="clip0_19_719">
<rect width="115" height="50" fill="white"/>
</clipPath>
</defs>
</svg>
