<svg width="115" height="125" viewBox="0 0 115 125" fill="none" xmlns="http://www.w3.org/2000/svg">
<g clip-path="url(#clip0_19_1029)">
<path fill-rule="evenodd" clip-rule="evenodd" d="M17.56 20.878L20.332 10H14.872L10 20.878H17.56ZM27.598 20.878L30.37 10H24.91L20.038 20.878H27.598ZM24.3855 36.1682L21.6975 46.5842H15.0615L19.5555 36.1682H24.3855ZM64.638 77.4L62.9177 72.696H51.9523L50.232 77.4H42L53.256 48H53.886H60.984H61.614L72.87 77.4H64.638ZM57.435 57.7043L60.414 65.85H54.456L57.435 57.7043ZM95.3893 115.06L89.8873 109.054H96.9853L101.731 115.06H95.3893ZM97.876 97.776C98.884 98.196 100.032 98.406 101.32 98.406C102.888 98.406 104.302 97.972 105.562 97.104C106.822 96.236 107.816 95.032 108.544 93.492C109.3 91.952 109.678 90.188 109.678 88.2H103.798C103.714 89.152 103.448 89.866 103 90.342C102.552 90.818 101.978 91.056 101.278 91.056C100.662 91.056 100.102 90.776 99.598 90.216C99.122 89.628 98.744 89.026 98.464 88.41C97.68 86.646 96.602 85.47 95.23 84.882C93.886 84.294 92.262 84 90.358 84C88.818 84 87.404 84.434 86.116 85.302C84.856 86.17 83.848 87.374 83.092 88.914C82.364 90.426 82 92.19 82 94.206H87.88C87.992 93.366 88.244 92.68 88.636 92.148C89.056 91.616 89.686 91.35 90.526 91.35C91.338 91.35 91.954 91.644 92.374 92.232C92.822 92.82 93.228 93.408 93.592 93.996C94.04 94.724 94.614 95.424 95.314 96.096C96.014 96.768 96.868 97.328 97.876 97.776Z" fill="black"/>
<rect width="1" height="1" fill="black"/>
<rect x="114" y="124" width="1" height="1" fill="black"/>
</g>
<defs>
<clipPath id="clip0_19_1029">
<rect width="115" height="125" fill="white"/>
</clipPath>
</defs>
</svg>
