<?xml version="1.0" encoding="UTF-8" standalone="no"?>
<svg
   width="115"
   height="50"
   viewBox="0 0 115 50"
   fill="none"
   version="1.1"
   id="svg3"
   sodipodi:docname="alt.svg"
   inkscape:version="1.4 (e7c3feb100, 2024-10-09)"
   xmlns:inkscape="http://www.inkscape.org/namespaces/inkscape"
   xmlns:sodipodi="http://sodipodi.sourceforge.net/DTD/sodipodi-0.dtd"
   xmlns="http://www.w3.org/2000/svg"
   xmlns:svg="http://www.w3.org/2000/svg">
  <sodipodi:namedview
     id="namedview3"
     pagecolor="#ffffff"
     bordercolor="#000000"
     borderopacity="0.25"
     inkscape:showpageshadow="2"
     inkscape:pageopacity="0.0"
     inkscape:pagecheckerboard="0"
     inkscape:deskcolor="#d1d1d1"
     inkscape:zoom="5.7565218"
     inkscape:cx="21.367069"
     inkscape:cy="74.43731"
     inkscape:window-width="1920"
     inkscape:window-height="1008"
     inkscape:window-x="0"
     inkscape:window-y="0"
     inkscape:window-maximized="1"
     inkscape:current-layer="svg3"
     showgrid="true"
     showguides="true">
    <inkscape:grid
       id="grid1"
       units="px"
       originx="0"
       originy="0"
       spacingx="1"
       spacingy="1"
       empcolor="#0099e5"
       empopacity="0.30196078"
       color="#0099e5"
       opacity="0.14901961"
       empspacing="5"
       enabled="true"
       visible="true" />
  </sodipodi:namedview>
  <defs
     id="defs3">
    <clipPath
       id="clip0_19_1027">
      <rect
         width="115"
         height="50"
         fill="white"
         id="rect3" />
    </clipPath>
  </defs>
  <path
     id="path1"
     style="-inkscape-font-specification:'HarmonyOS Sans Heavy';fill:#000000"
     d="M 59.941406 10 L 59.941406 38.410156 L 66.027344 38.410156 L 66.027344 10 L 59.941406 10 z M 40.789062 11.082031 L 30 38.410156 L 36.345703 38.410156 L 38.363281 32.884766 L 42.212891 32.884766 L 42.212891 27.546875 L 40.341797 27.546875 L 42.212891 22.40625 L 42.212891 11.082031 L 40.789062 11.082031 z M 44.992188 11.082031 L 44.992188 23.103516 L 46.6875 27.546875 L 44.992188 27.546875 L 44.992188 32.884766 L 48.703125 32.884766 L 50.794922 38.410156 L 57.513672 38.410156 L 46.425781 11.082031 L 44.992188 11.082031 z M 71.851562 12.912109 L 71.851562 19.109375 L 68.304688 19.109375 L 68.304688 24.224609 L 71.851562 24.224609 L 71.851562 30.832031 C 71.851562 33.843584 72.523189 35.945959 73.867188 37.140625 C 75.236075 38.310402 77.065693 38.896484 79.355469 38.896484 C 81.894133 38.896484 83.86013 38.27374 85.253906 37.029297 L 83.125 32.810547 C 82.701889 33.134102 82.2908 33.357978 81.892578 33.482422 C 81.494357 33.606867 81.071047 33.669922 80.623047 33.669922 C 79.577714 33.669922 78.869426 33.334109 78.496094 32.662109 C 78.12276 31.965221 77.935547 30.994443 77.935547 29.75 L 77.935547 24.224609 L 83.833984 24.224609 L 83.833984 19.109375 L 77.935547 19.109375 L 77.935547 12.912109 L 71.851562 12.912109 z " />
  <rect
     style="fill:#000000"
     id="rect2"
     width="1"
     height="1"
     x="0"
     y="0" />
  <rect
     style="fill:#000000"
     id="rect6"
     width="1"
     height="1"
     x="114"
     y="49" />
</svg>
