<?xml version="1.0" encoding="UTF-8" standalone="no"?>
<svg
   width="115"
   height="125"
   viewBox="0 0 115 125"
   fill="none"
   version="1.1"
   id="svg3"
   sodipodi:docname="c.svg"
   inkscape:version="1.4 (e7c3feb100, 2024-10-09)"
   xmlns:inkscape="http://www.inkscape.org/namespaces/inkscape"
   xmlns:sodipodi="http://sodipodi.sourceforge.net/DTD/sodipodi-0.dtd"
   xmlns="http://www.w3.org/2000/svg"
   xmlns:svg="http://www.w3.org/2000/svg">
  <sodipodi:namedview
     id="namedview3"
     pagecolor="#ffffff"
     bordercolor="#000000"
     borderopacity="0.25"
     inkscape:showpageshadow="2"
     inkscape:pageopacity="0.0"
     inkscape:pagecheckerboard="0"
     inkscape:deskcolor="#d1d1d1"
     showgrid="true"
     inkscape:zoom="128"
     inkscape:cx="114.6875"
     inkscape:cy="0.19140625"
     inkscape:window-width="1920"
     inkscape:window-height="1008"
     inkscape:window-x="0"
     inkscape:window-y="0"
     inkscape:window-maximized="1"
     inkscape:current-layer="svg3">
    <inkscape:grid
       id="grid5"
       units="px"
       originx="0"
       originy="0"
       spacingx="1"
       spacingy="1"
       empcolor="#0099e5"
       empopacity="0.30196078"
       color="#0099e5"
       opacity="0.14901961"
       empspacing="5"
       enabled="true"
       visible="true" />
  </sodipodi:namedview>
  <defs
     id="defs3">
    <clipPath
       id="clip0_19_766">
      <rect
         width="115"
         height="125"
         fill="white"
         id="rect3" />
    </clipPath>
  </defs>
  <path
     d="m 58.996094,48.15625 c -2.463998,0 -4.716925,0.586083 -6.757813,1.755859 -2.040886,1.144888 -3.658849,2.799512 -4.853515,4.964844 -1.194666,2.140442 -1.792969,4.617245 -1.792969,7.429688 0,2.812442 0.598303,5.301465 1.792969,7.466796 1.194666,2.140443 2.812629,3.795068 4.853515,4.964844 2.040888,1.169777 4.293815,1.753906 6.757813,1.753906 1.791998,0 3.422181,-0.311372 4.890625,-0.933593 1.468442,-0.597334 2.675316,-1.393117 3.621093,-2.388672 0.970667,-0.995555 1.654514,-2.090491 2.052735,-3.285156 l -5.337891,-3.136719 c -0.547554,1.244444 -1.270016,2.203001 -2.166015,2.875 -0.896,0.671999 -1.966495,1.007812 -3.210938,1.007812 -1.194666,0 -2.301822,-0.323592 -3.322266,-0.970703 C 54.527883,68.988157 53.744319,68.01738 53.171875,66.748047 52.599431,65.478715 52.3125,63.999083 52.3125,62.306641 c 0,-1.692444 0.286931,-3.161807 0.859375,-4.40625 0.572444,-1.269332 1.356008,-2.22789 2.351562,-2.875 1.020444,-0.672 2.1276,-1.007813 3.322266,-1.007813 1.244443,0 2.314938,0.335813 3.210938,1.007813 0.895999,0.671999 1.618461,1.630556 2.166015,2.875 l 5.337891,-3.134766 C 69.162326,53.570959 68.478478,52.47407 67.507812,51.478516 66.562035,50.482961 65.355161,49.687176 63.886719,49.089844 62.418275,48.467622 60.788092,48.15625 58.996094,48.15625 Z"
     style="-inkscape-font-specification:'HarmonyOS Sans Heavy';fill:#000000"
     id="path9" />
  <path
     d="m 31.525391,95.722656 c -2.289776,0 -4.294387,0.608571 -6.011719,1.828125 -1.717332,1.194666 -2.924206,2.949009 -3.621094,5.263669 l 4.927734,2.875 c 0.423111,-1.36888 0.984753,-2.38854 1.681641,-3.06054 0.696889,-0.69689 1.504893,-1.04493 2.425781,-1.04493 0.846222,0 1.505627,0.27276 1.978516,0.82032 0.472889,0.54755 0.708984,1.24361 0.708984,2.08984 0,0.84622 -0.260536,1.69284 -0.783203,2.53906 -0.522666,0.84622 -1.444562,1.992 -2.763672,3.43555 l -7.988281,8.99609 v 4.14454 h 19.488281 v -5.5254 H 31.263672 l 3.957031,-4.4414 c 1.941331,-2.09066 3.274317,-3.79612 3.996094,-5.11524 0.746666,-1.344 1.11914,-2.80114 1.11914,-4.36914 10e-7,-1.54311 -0.335813,-2.94746 -1.007812,-4.216794 -0.671999,-1.294221 -1.679438,-2.315834 -3.023438,-3.0625 -1.31911,-0.771554 -2.912632,-1.15625 -4.779296,-1.15625 z M 1.1367187,96.28125 v 27.32813 H 7.5195312 V 113.34375 H 18.197266 v -5.52539 H 7.5195312 v -5.97461 H 19.429687 v -5.5625 z"
     style="-inkscape-font-specification:'HarmonyOS Sans Heavy';fill:#000000"
     id="path10" />
  <path
     d="M 111.74023,9.5585938 92.027344,17.101562 v 5.449219 l 19.712886,7.541016 V 24.380859 L 99.792969,19.826172 111.74023,15.271484 Z M 84.859375,26.583984 c -0.970666,0 -1.778671,0.348034 -2.425781,1.044922 C 81.811372,28.325794 81.5,29.184634 81.5,30.205078 c 0,0.995555 0.335813,1.842175 1.007812,2.539063 0.696888,0.721777 1.531288,1.082031 2.501954,1.082031 h 0.07422 0.07422 c -0.149333,1.020443 -0.572642,1.854842 -1.269531,2.501953 -0.696888,0.647111 -1.629051,1.094861 -2.798828,1.34375 v 3.171875 c 1.418666,-0.224 2.713036,-0.771467 3.882812,-1.642578 1.169777,-0.846221 2.08972,-1.928937 2.761719,-3.248047 0.696889,-1.31911 1.044922,-2.737639 1.044922,-4.255859 0,-1.667555 -0.384695,-2.935531 -1.15625,-3.806641 -0.746666,-0.871111 -1.668562,-1.306641 -2.763672,-1.306641 z"
     style="-inkscape-font-specification:'HarmonyOS Sans Heavy';fill:#000000"
     id="path8" />
  <rect
     style="fill:#000000"
     id="rect1"
     width="0.1"
     height="0.1"
     x="113"
     y="0.3203125" />
</svg>
