<?xml version="1.0" encoding="UTF-8" standalone="no"?>
<svg
   width="115"
   height="125"
   viewBox="0 0 115 125"
   fill="none"
   version="1.1"
   id="svg3"
   sodipodi:docname="dot.svg"
   inkscape:version="1.4 (e7c3feb100, 2024-10-09)"
   xmlns:inkscape="http://www.inkscape.org/namespaces/inkscape"
   xmlns:sodipodi="http://sodipodi.sourceforge.net/DTD/sodipodi-0.dtd"
   xmlns="http://www.w3.org/2000/svg"
   xmlns:svg="http://www.w3.org/2000/svg">
  <path
     id="path8"
     style="line-height:0.9;font-family:'HarmonyOS Sans';-inkscape-font-specification:'HarmonyOS Sans Heavy';baseline-shift:baseline;display:inline;overflow:visible;vector-effect:none;fill:#000000;enable-background:accumulate;stop-color:#000000;stop-opacity:1"
     d="M 95.724609 3.9042969 L 94.417969 9.5410156 L 89.640625 9.5410156 L 89.640625 15.029297 L 93.111328 15.029297 L 93.048828 15.291016 L 98.306641 15.291016 L 98.414062 14.841797 L 102.93164 14.841797 L 102.82422 15.291016 L 108.0957 15.291016 L 108.1582 15.029297 L 112.89844 15.029297 L 112.89844 9.5410156 L 109.42578 9.5410156 L 110.77148 3.9042969 L 105.35742 3.9042969 L 104.05078 9.5410156 L 99.832031 9.5410156 L 101.13867 3.9042969 L 95.724609 3.9042969 z M 91.957031 19.931641 L 91.880859 20.255859 L 87.101562 20.255859 L 87.101562 25.78125 L 90.574219 25.78125 L 89.267578 31.34375 L 94.679688 31.34375 L 95.986328 25.78125 L 100.20508 25.78125 L 98.898438 31.34375 L 104.3125 31.34375 L 105.61914 25.78125 L 110.35938 25.78125 L 110.35938 20.255859 L 106.92578 20.255859 L 107.00195 19.931641 L 101.7168 19.931641 L 101.58594 20.480469 L 97.070312 20.480469 L 97.201172 19.931641 L 91.957031 19.931641 z " />
  <path
     d="m 99.626953,36.980469 c -2.314665,0 -4.319275,0.573862 -6.011719,1.71875 -1.667554,1.119999 -2.823592,2.750182 -3.470703,4.890625 l 3.760878,0.552009 c 0.967162,-0.816222 1.369827,-0.177148 2.621935,-0.5149 0.935936,-0.252465 1.556176,-0.970703 2.501953,-0.970703 0.871108,0 1.567173,0.248316 2.089843,0.746094 0.54756,0.472888 0.82227,1.107853 0.82227,1.904297 0,0.846221 -0.34803,1.568683 -1.04493,2.166015 -0.67199,0.597333 -1.606112,0.894532 -2.800777,0.894531 h -1.53125 v 5.152344 h 0.933594 c 1.742218,0 3.061033,0.26249 3.957033,0.785156 0.896,0.522667 1.3457,1.318451 1.3457,2.388672 0,0.647111 -0.16277,1.194579 -0.48633,1.642578 -0.29866,0.448 -0.70975,0.796034 -1.23242,1.044922 -0.52267,0.224 -1.106795,0.335938 -1.753905,0.335938 -1.020444,0 -1.942339,-0.311373 -2.763672,-0.933594 -0.99811,0.0158 -1.714821,0.257128 -3.123925,-0.470706 l -3.631934,0.658206 c 0.721776,2.065776 1.916429,3.647078 3.583984,4.742188 1.692443,1.09511 3.733716,1.642578 6.123047,1.642578 1.866665,0 3.557955,-0.311372 5.076175,-0.933594 1.51822,-0.622221 2.71287,-1.544117 3.58398,-2.763672 0.896,-1.219555 1.34375,-2.674745 1.34375,-4.367187 0,-1.592888 -0.39691,-2.938094 -1.19336,-4.033204 -0.79644,-1.095109 -1.93,-1.927555 -3.39844,-2.5 1.24444,-0.572443 2.17856,-1.37018 2.80079,-2.390625 0.6471,-1.045332 0.9707,-2.264426 0.9707,-3.658203 0,-1.493332 -0.38665,-2.824364 -1.1582,-3.99414 -0.74667,-1.169778 -1.81717,-2.0775 -3.21094,-2.72461 -1.36889,-0.672 -2.93601,-1.009765 -4.703127,-1.009765 z"
     style="line-height:0.9;font-family:'HarmonyOS Sans';-inkscape-font-specification:'HarmonyOS Sans Heavy';baseline-shift:baseline;display:inline;overflow:visible;vector-effect:none;fill:#000000;enable-background:accumulate;stop-color:#000000;stop-opacity:1"
     id="path7"
     sodipodi:nodetypes="scccsscscsccsssccsccccsscssccsccs" />
  <sodipodi:namedview
     id="namedview3"
     pagecolor="#ffffff"
     bordercolor="#000000"
     borderopacity="0.25"
     inkscape:showpageshadow="2"
     inkscape:pageopacity="0.0"
     inkscape:pagecheckerboard="0"
     inkscape:deskcolor="#d1d1d1"
     inkscape:zoom="22.627417"
     inkscape:cx="95.194251"
     inkscape:cy="55.353203"
     inkscape:window-width="1920"
     inkscape:window-height="1008"
     inkscape:window-x="0"
     inkscape:window-y="0"
     inkscape:window-maximized="1"
     inkscape:current-layer="svg3"
     showgrid="true">
    <inkscape:grid
       id="grid1"
       units="px"
       originx="0"
       originy="0"
       spacingx="1"
       spacingy="1"
       empcolor="#0099e5"
       empopacity="0.30196078"
       color="#0099e5"
       opacity="0.14901961"
       empspacing="5"
       enabled="true"
       visible="true" />
  </sodipodi:namedview>
  <defs
     id="defs3">
    <clipPath
       id="clip0_19_643">
      <rect
         width="115"
         height="125"
         fill="white"
         id="rect3" />
    </clipPath>
  </defs>
  <rect
     style="fill:#000000"
     id="rect1"
     width="1"
     height="1"
     x="0"
     y="0" />
  <rect
     style="fill:#000000"
     id="rect2"
     width="1"
     height="1"
     x="114"
     y="124" />
  <path
     d="m 50.287109,50 v 5.712891 l 11.947266,4.554687 -11.947266,4.554688 v 5.710937 L 70,62.992187 v -5.451171 z m -6.832031,17.099609 c -0.970665,0 -1.803111,0.360254 -2.5,1.082032 -0.671999,0.696888 -1.007812,1.543507 -1.007812,2.539062 0,0.995555 0.335813,1.840221 1.007812,2.537109 0.696889,0.721778 1.529335,1.083985 2.5,1.083985 0.995555,0 1.842175,-0.362207 2.539063,-1.083985 0.696888,-0.696887 1.044922,-1.541554 1.044921,-2.537109 10e-7,-0.995555 -0.360254,-1.842174 -1.082031,-2.539062 -0.696888,-0.721778 -1.531287,-1.082032 -2.501953,-1.082032 z"
     style="-inkscape-font-specification:'HarmonyOS Sans Heavy';fill:#000000"
     id="path9" />
  <path
     id="text1"
     style="font-weight:900;font-size:37.3333px;line-height:0.9;font-family:'HarmonyOS Sans';-inkscape-font-specification:'HarmonyOS Sans Heavy';text-align:center;text-decoration-color:#000000;writing-mode:lr-tb;direction:ltr;text-anchor:middle;fill:#000000"
     d="M 11.388672 88.441406 L 0.59960938 115.76953 L 6.9453125 115.76953 L 8.9628906 110.24414 L 11.75 110.24414 L 11.75 104.90625 L 10.941406 104.90625 L 11.75 102.68359 L 11.75 88.441406 L 11.388672 88.441406 z M 16.25 88.441406 L 16.25 102.1875 L 17.287109 104.90625 L 16.25 104.90625 L 16.25 110.24414 L 19.302734 110.24414 L 21.394531 115.76953 L 28.113281 115.76953 L 17.025391 88.441406 L 16.25 88.441406 z M 67.375 96.017578 L 67.375 102.25391 C 67.689493 102.58557 67.959152 102.97819 68.171875 103.44922 C 68.520319 104.19588 68.695312 105.07917 68.695312 106.09961 C 68.695313 107.09516 68.520319 107.954 68.171875 108.67578 C 67.959228 109.11627 67.689344 109.4887 67.375 109.80859 L 67.375 116.18164 C 68.528053 116.03486 69.603114 115.6622 70.599609 115.06055 C 71.943608 114.2641 73.001883 113.09389 73.773438 111.55078 C 74.569879 110.00767 74.966797 108.19027 74.966797 106.09961 C 74.966797 103.98406 74.569879 102.16666 73.773438 100.64844 C 73.001883 99.105324 71.943608 97.937069 70.599609 97.140625 C 69.603114 96.538967 68.528053 96.164906 67.375 96.017578 z M 43.625 96.042969 L 43.625 102.40039 C 43.879438 102.70012 44.098405 103.04867 44.279297 103.44922 C 44.627741 104.19588 44.802734 105.07917 44.802734 106.09961 C 44.802734 107.09516 44.627741 107.954 44.279297 108.67578 C 44.098525 109.05024 43.879221 109.37872 43.625 109.66602 L 43.625 116.15625 C 44.72229 115.99727 45.750826 115.6367 46.705078 115.06055 C 48.049077 114.2641 49.107351 113.09389 49.878906 111.55078 C 50.67535 110.00767 51.074219 108.19027 51.074219 106.09961 C 51.074219 103.98406 50.67535 102.16666 49.878906 100.64844 C 49.107351 99.105324 48.049077 97.937069 46.705078 97.140625 C 45.750826 96.564473 44.72229 96.202516 43.625 96.042969 z M 30.541016 96.46875 L 30.541016 124.42969 L 36.626953 124.42969 L 36.626953 113.60352 C 37.237415 114.38839 37.948765 114.98036 38.75 115.40234 L 38.75 110.42578 C 38.727068 110.41351 38.702421 110.40531 38.679688 110.39258 C 38.057465 110.04413 37.55888 109.52306 37.185547 108.82617 C 36.812214 108.10439 36.626953 107.19472 36.626953 106.09961 C 36.626953 105.0045 36.812214 104.08456 37.185547 103.33789 C 37.55888 102.56634 38.057465 101.99247 38.679688 101.61914 C 38.702761 101.60583 38.726802 101.59682 38.75 101.58398 L 38.75 96.791016 C 37.7238 97.314227 36.877745 98.113075 36.214844 99.193359 C 36.165066 98.944471 36.128404 98.683934 36.103516 98.410156 C 36.078627 98.136379 36.054186 97.849448 36.029297 97.550781 L 35.953125 97.027344 L 35.953125 96.46875 L 30.541016 96.46875 z M 54.433594 96.46875 L 54.433594 124.42969 L 60.519531 124.42969 L 60.519531 113.60352 C 61.093857 114.34193 61.756897 114.91092 62.5 115.32812 L 62.5 110.3457 C 61.912753 109.99795 61.438283 109.49482 61.080078 108.82617 C 60.706745 108.10439 60.519531 107.19472 60.519531 106.09961 C 60.519531 105.0045 60.706745 104.08456 61.080078 103.33789 C 61.438114 102.59795 61.913139 102.04566 62.5 101.67188 L 62.5 96.876953 C 61.540804 97.400415 60.73989 98.165854 60.109375 99.193359 C 60.059597 98.944471 60.020983 98.683934 59.996094 98.410156 C 59.971205 98.136379 59.946764 97.849448 59.921875 97.550781 L 59.847656 97.027344 L 59.847656 96.46875 L 54.433594 96.46875 z " />
</svg>
