<?xml version="1.0" encoding="UTF-8" standalone="no"?>
<svg
   width="115"
   height="125"
   viewBox="0 0 115 125"
   fill="none"
   version="1.1"
   id="svg7"
   sodipodi:docname="i.svg"
   inkscape:version="1.4 (e7c3feb100, 2024-10-09)"
   xmlns:inkscape="http://www.inkscape.org/namespaces/inkscape"
   xmlns:sodipodi="http://sodipodi.sourceforge.net/DTD/sodipodi-0.dtd"
   xmlns="http://www.w3.org/2000/svg"
   xmlns:svg="http://www.w3.org/2000/svg">
  <sodipodi:namedview
     id="namedview1"
     pagecolor="#ffffff"
     bordercolor="#000000"
     borderopacity="0.25"
     inkscape:showpageshadow="2"
     inkscape:pageopacity="0.0"
     inkscape:pagecheckerboard="0"
     inkscape:deskcolor="#d1d1d1"
     inkscape:zoom="25.567999"
     inkscape:cx="108.18211"
     inkscape:cy="132.88095"
     inkscape:window-width="1920"
     inkscape:window-height="1008"
     inkscape:window-x="0"
     inkscape:window-y="0"
     inkscape:window-maximized="1"
     inkscape:current-layer="svg7" />
  <g
     clip-path="url(#clip0_19_849)"
     id="g6">
    <path
       d="m 100.15664,18.739675 c -2.324004,0 -4.284865,0.335813 -5.880865,1.007812 -1.568,0.672001 -2.75636,1.610454 -3.56836,2.814454 -0.812,1.204 -1.21875,2.590203 -1.21875,4.158203 0,1.54 0.40675,2.898221 1.21875,4.074221 0.690432,0.97612 1.650782,1.78879 2.890625,2.41406 -1.639959,0.7511 -2.871841,1.77971 -3.689453,3.08789 -0.84,1.344 -1.259765,2.91113 -1.259765,4.70313 0,1.624 0.419765,3.05315 1.259765,4.28515 0.84,1.204 2.114266,2.15547 3.822266,2.85547 1.708,0.672 3.849783,1.00781 6.425787,1.00781 2.604,0 4.76075,-0.33581 6.46875,-1.00781 1.708,-0.7 2.98031,-1.65147 3.82031,-2.85547 0.868,-1.232 1.30274,-2.66115 1.30274,-4.28515 0,-1.792 -0.43474,-3.35913 -1.30274,-4.70313 -0.82116,-1.31386 -2.05832,-2.34572 -3.70898,-3.09766 1.25145,-0.63106 2.22387,-1.43127 2.91211,-2.40429 0.84,-1.176 1.25976,-2.534221 1.25976,-4.074221 0,-1.568 -0.41976,-2.954203 -1.25976,-4.158203 -0.812,-1.204 -2.01533,-2.142454 -3.61133,-2.814454 -1.596,-0.671999 -3.55686,-1.007812 -5.88086,-1.007812 z m 0,6.089844 c 0.924,0 1.67958,0.266828 2.26758,0.798828 0.616,0.532 0.92382,1.21664 0.92382,2.05664 0,0.868001 -0.30782,1.597548 -0.92382,2.185548 -0.588,0.56 -1.34358,0.83984 -2.26758,0.83984 -0.924004,0 -1.679584,-0.27984 -2.267584,-0.83984 -0.56,-0.588 -0.83984,-1.317548 -0.83984,-2.185548 0,-0.839999 0.27984,-1.52464 0.83984,-2.05664 0.588,-0.532 1.34358,-0.798828 2.267584,-0.798828 z m 0,11.634766 c 1.064,0 1.93151,0.32084 2.60351,0.96484 0.672,0.616 1.00782,1.4295 1.00782,2.4375 0,0.84 -0.33582,1.53961 -1.00782,2.09961 -0.672,0.532 -1.53951,0.79688 -2.60351,0.79688 -0.672004,0 -1.274644,-0.12496 -1.806644,-0.37696 -0.532,-0.252 -0.95177,-0.58781 -1.25977,-1.00781 -0.308,-0.448 -0.460936,-0.95172 -0.460936,-1.51172 0,-0.672 0.152936,-1.26162 0.460936,-1.76562 0.308,-0.532 0.72777,-0.9368 1.25977,-1.2168 0.532,-0.28 1.13464,-0.41992 1.806644,-0.41992 z"
       style="baseline-shift:baseline;display:inline;overflow:visible;vector-effect:none;fill:#000000;enable-background:accumulate;stop-color:#000000;stop-opacity:1"
       id="path7" />
    <path
       d="M 8.7478177,104.50161 H 3.0263433 c -0.9125487,0 -1.3695463,-1.2454 -0.7242833,-1.97362 L 16.217909,86.820756 c 0.40002,-0.451499 1.048464,-0.451499 1.448484,0 l 13.915892,15.707234 c 0.645167,0.72822 0.188196,1.97362 -0.724379,1.97362 H 25.136485 V 123 H 8.7478177 Z"
       fill="#000000"
       id="path5"
       style="stroke-width:1.45097" />
  </g>
  <defs
     id="defs7">
    <clipPath
       id="clip0_19_849">
      <rect
         width="115"
         height="125"
         fill="#ffffff"
         id="rect7"
         x="0"
         y="0" />
    </clipPath>
  </defs>
  <path
     d="m 53.818071,49.771484 2.101851,2.221662 v 22.843797 l -1.825291,2.262666 9.869412,0 -1.659356,-2.37329 v -22.62255 l 1.769979,-2.332285 z"
     style="-inkscape-font-specification:'HarmonyOS Sans Heavy';fill:#000000;stroke-width:6.5"
     id="path1"
     sodipodi:nodetypes="ccccccccc" />
  <path
     d="m 75.020831,2.6595745 0.699034,7.2805802 -6.157587,-4.2570153 -3.428312,5.6574646 6.91133,3.079232 -6.91133,3.023565 3.428312,5.657464 6.157587,-4.257014 -0.699034,7.280579 h 6.79887 L 81.005185,18.788183 87.2813,23.100865 90.648822,17.443401 83.618957,14.419836 90.648822,11.340604 87.2813,5.6831394 81.062932,9.9401547 81.819701,2.6595745 Z"
     style="-inkscape-font-specification:'HarmonyOS Sans Heavy';fill:#000000;stroke-width:9.9309"
     id="path2" />
</svg>
