<?xml version="1.0" encoding="UTF-8" standalone="no"?>
<svg
   width="115"
   height="125"
   viewBox="0 0 115 125"
   fill="none"
   version="1.1"
   id="svg8"
   xmlns="http://www.w3.org/2000/svg"
   xmlns:svg="http://www.w3.org/2000/svg">
  <path
     d="m 37,48 8.441406,29.400391 h 1.134766 6.216797 0.71289 L 57.875,60.027344 62.242187,77.400391 h 0.712891 6.636719 0.714844 L 78.748047,48 h -7.9375 L 66.273437,64.978516 61.738281,48 H 60.898437 54.849609 54.009766 L 49.599609,65.445312 44.9375,48 Z"
     style="baseline-shift:baseline;display:inline;overflow:visible;vector-effect:none;fill:#000000;enable-background:accumulate;stop-color:#000000;stop-opacity:1"
     id="path15" />
  <path
     d="m 88.236328,91 v 7.140625 H 101.3418 l -9.787113,22.259765 h 8.609373 l 9.82813,-23.939453 V 91 Z"
     style="baseline-shift:baseline;display:inline;overflow:visible;vector-effect:none;fill:#000000;enable-background:accumulate;stop-color:#000000;stop-opacity:1"
     id="path14" />
  <path
     d="m 66,91 v 29.40039 h 7.769531 v -10.83594 h 9.660156 v -7.14062 H 73.769531 V 98.140625 H 86.117187 V 91 Z"
     style="baseline-shift:baseline;display:inline;overflow:visible;vector-effect:none;fill:#000000;enable-background:accumulate;stop-color:#000000;stop-opacity:1"
     id="path13" />
  <path
     d="M 2.0703125,7.1367187 C 1.4277173,7.1724989 0.92601075,7.8570019 1.2246094,8.5292969 L 11.974609,32.734375 c 0.3784,0.8521 1.618075,0.756069 1.859375,-0.144531 l 2.546875,-9.507813 c 0.0914,-0.3413 0.359872,-0.609672 0.701172,-0.701172 l 9.507813,-2.546875 c 0.9006,-0.2413 0.996631,-1.480875 0.144531,-1.859375 L 2.5292969,7.2246094 C 2.37415,7.1557012 2.2186037,7.1284618 2.0703125,7.1367187 Z"
     style="baseline-shift:baseline;display:inline;overflow:visible;vector-effect:none;fill:#000000;enable-background:accumulate;stop-color:#000000;stop-opacity:1"
     id="path12" />
  <path
     id="path17"
     style="baseline-shift:baseline;display:inline;overflow:visible;vector-effect:none;fill:#000000;enable-background:accumulate;stop-color:#000000;stop-opacity:1"
     d="m 29,8 v 4.921875 h 3.9375 V 25.648438 H 29 v 4.921874 h 13.816406 11.69336 v -4.921874 h -3.9375 V 12.921875 h 3.9375 V 8 h -11.69336 z m 9.878906,4.921875 h 3.9375 1.814453 v 12.726563 h -1.814453 -3.9375 z" />
  <path
     d="M 0,0 V 1 H 1 V 0 Z"
     style="baseline-shift:baseline;display:inline;overflow:visible;vector-effect:none;fill:#000000;enable-background:accumulate;stop-color:#000000;stop-opacity:1"
     id="path9" />
  <path
     d="m 114,124 v 1 h 1 v -1 z"
     style="baseline-shift:baseline;display:inline;overflow:visible;vector-effect:none;fill:#000000;enable-background:accumulate;stop-color:#000000;stop-opacity:1"
     id="path8" />
  <defs
     id="defs8" />
</svg>
