<?xml version="1.0" encoding="UTF-8" standalone="no"?>
<svg
   width="115"
   height="125"
   viewBox="0 0 115 125"
   fill="none"
   version="1.1"
   id="svg3"
   sodipodi:docname="comma.svg"
   inkscape:version="1.4 (e7c3feb100, 2024-10-09)"
   xmlns:inkscape="http://www.inkscape.org/namespaces/inkscape"
   xmlns:sodipodi="http://sodipodi.sourceforge.net/DTD/sodipodi-0.dtd"
   xmlns="http://www.w3.org/2000/svg"
   xmlns:svg="http://www.w3.org/2000/svg">
  <path
     id="text1"
     style="font-weight:900;font-size:37.3333px;line-height:0.9;font-family:'HarmonyOS Sans';-inkscape-font-specification:'HarmonyOS Sans Heavy';text-align:center;text-decoration-color:#000000;writing-mode:lr-tb;direction:ltr;text-anchor:middle;fill:#000000"
     d="m 97.580078,2.1367188 v 4.3300781 c 1.629643,0.2082159 3.103432,0.6545122 4.414062,1.3535156 1.86667,0.9955547 3.32381,2.4649185 4.36914,4.4062495 1.04533,1.916443 1.56836,4.230473 1.56836,6.94336 0,1.592887 -0.21165,2.875037 -0.63476,3.845703 -0.39823,0.945777 -1.08403,1.417969 -2.05469,1.417969 -0.62222,0 -1.09442,-0.236096 -1.41797,-0.708985 -0.32356,-0.497777 1.27431,-3.373555 0.89062,-4.425781 l -2.5625,-7.027344 -3.031246,-1.6875 c -0.04978,0.672 -0.125054,1.331405 -0.22461,1.978516 -0.384938,-0.529291 -0.828106,-0.960876 -1.316406,-1.314453 v 5.109375 c 0.137142,0.173284 0.267484,0.358083 0.382813,0.572266 0.348444,0.64711 0.523437,1.481509 0.523437,2.501953 0,1.020443 -0.174993,1.854842 -0.523437,2.501953 -0.115329,0.214182 -0.245671,0.398981 -0.382813,0.572265 v 5.121094 c 0.660193,-0.479541 1.236322,-1.119833 1.726563,-1.923828 0.497777,1.045332 1.244679,1.816676 2.240239,2.314453 0.99555,0.472889 2.15354,0.710938 3.47265,0.710938 2.53867,0 4.41717,-0.871061 5.63672,-2.613282 1.21955,-1.74222 1.83008,-4.119306 1.83008,-7.130859 0,-3.434664 -0.73468,-6.434494 -2.20313,-8.9980469 -1.44355,-2.5635533 -3.46038,-4.5295498 -6.04882,-5.8984375 -2.01068,-1.0736604 -4.23023,-1.719616 -6.654302,-1.9511718 z m -5.65625,0.1875 c -2.048635,0.3388798 -3.956315,0.9742813 -5.720703,1.9121093 -2.737775,1.4435544 -4.890986,3.4726064 -6.458984,6.0859379 -1.54311,2.613331 -2.314453,5.61316 -2.314453,8.998046 0,3.359998 0.746902,6.333433 2.240234,8.921876 1.518221,2.588442 3.620596,4.605273 6.308594,6.048828 1.818327,0.984232 3.802731,1.630533 5.945312,1.955078 v -4.386719 c -1.262874,-0.271208 -2.449026,-0.702128 -3.554687,-1.302734 -2.015999,-1.070222 -3.5973,-2.576247 -4.742188,-4.517579 -1.119999,-1.96622 -1.679687,-4.204974 -1.679687,-6.71875 0,-2.538664 0.571909,-4.791591 1.716796,-6.757812 1.144888,-1.966221 2.73841,-3.4966867 4.779297,-4.5917969 1.079415,-0.5791981 2.240925,-1.0005742 3.480469,-1.2734375 z m 0,8.0917972 c -0.653333,0.186666 -1.277667,0.46651 -1.875,0.839843 -1.194666,0.746666 -2.153223,1.817161 -2.875,3.210938 -0.696888,1.393776 -1.044922,3.048401 -1.044922,4.964844 0,1.916442 0.348034,3.571067 1.044922,4.964843 0.721777,1.393777 1.680334,2.464272 2.875,3.210938 0.597333,0.360888 1.221667,0.632056 1.875,0.8125 v -6.273438 c -0.06856,-0.116307 -0.135679,-0.234074 -0.195312,-0.363281 -0.298667,-0.64711 -0.447266,-1.430674 -0.447266,-2.351562 0,-0.920888 0.148599,-1.704452 0.447266,-2.351563 0.05963,-0.129206 0.126748,-0.246974 0.195312,-0.363281 z m 10.705082,19.767578 c -0.97067,0.64711 -2.09005,1.145696 -3.359379,1.49414 -0.546054,0.149897 -1.111157,0.260291 -1.689453,0.345704 v 4.33789 c 1.080837,-0.114781 2.108848,-0.30134 3.070312,-0.578125 1.64267,-0.472888 3.00009,-1.144515 4.07031,-2.015625 z"
     sodipodi:nodetypes="ccscscscscccccsssccccsssccccccsccccccssscccscsccccssscccsccscc" />
  <sodipodi:namedview
     id="namedview3"
     pagecolor="#ffffff"
     bordercolor="#000000"
     borderopacity="0.25"
     inkscape:showpageshadow="2"
     inkscape:pageopacity="0.0"
     inkscape:pagecheckerboard="0"
     inkscape:deskcolor="#d1d1d1"
     inkscape:zoom="7.9999999"
     inkscape:cx="80.625001"
     inkscape:cy="32.0625"
     inkscape:window-width="1920"
     inkscape:window-height="1008"
     inkscape:window-x="0"
     inkscape:window-y="0"
     inkscape:window-maximized="1"
     inkscape:current-layer="svg3"
     showgrid="true">
    <inkscape:grid
       id="grid1"
       units="px"
       originx="0"
       originy="0"
       spacingx="1"
       spacingy="1"
       empcolor="#0099e5"
       empopacity="0.30196078"
       color="#0099e5"
       opacity="0.14901961"
       empspacing="5"
       enabled="true"
       visible="true" />
  </sodipodi:namedview>
  <defs
     id="defs3">
    <clipPath
       id="clip0_19_643">
      <rect
         width="115"
         height="125"
         fill="white"
         id="rect3" />
    </clipPath>
  </defs>
  <rect
     style="fill:#000000"
     id="rect1"
     width="1"
     height="1"
     x="0"
     y="0" />
  <rect
     style="fill:#000000"
     id="rect2"
     width="1"
     height="1"
     x="114"
     y="124" />
  <path
     d="m 94.775391,44.980469 c -2.289776,0 -4.292435,0.610523 -6.009766,1.830078 -1.717332,1.194666 -2.924205,2.949007 -3.621094,5.263672 l 4.927735,2.875 c 0.42311,-1.368888 0.982798,-2.388548 1.679687,-3.060547 0.696888,-0.696888 1.504893,-1.046875 2.425781,-1.046875 0.846222,0 1.507581,0.274711 1.980469,0.822265 0.472889,0.547556 0.708985,1.243623 0.708984,2.089844 0,0.846222 -0.26249,1.692841 -0.785156,2.539063 -0.522666,0.846221 -1.442608,1.991992 -2.761719,3.435547 l -7.990234,8.996093 v 4.144532 H 104.81836 V 67.34375 H 94.515625 l 3.957031,-4.443359 c 1.941334,-2.090665 3.272364,-3.794172 3.994144,-5.113282 0.74666,-1.343998 1.11914,-2.801142 1.11914,-4.36914 0,-1.54311 -0.33582,-2.949418 -1.00781,-4.21875 -0.672,-1.294222 -1.67944,-2.313881 -3.023443,-3.060547 -1.319109,-0.771555 -2.912631,-1.158203 -4.779296,-1.158203 z"
     style="line-height:0.9;font-family:'HarmonyOS Sans';-inkscape-font-specification:'HarmonyOS Sans Heavy';baseline-shift:baseline;display:inline;overflow:visible;vector-effect:none;fill:#000000;enable-background:accumulate;stop-color:#000000;stop-opacity:1"
     id="path7" />
  <path
     d="M 1.4609375,95.941406 V 123.26953 H 7.8457031 V 95.941406 Z m 23.1464845,7.503904 c -1.368887,0 -2.575761,0.28693 -3.621094,0.85938 -1.045333,0.57244 -1.879732,1.45572 -2.501953,2.65039 -0.124445,-0.62222 -0.236382,-1.61744 -0.335938,-2.98633 h -5.412109 v 19.30078 h 6.085938 v -9.10937 c 0,-1.1449 0.136379,-2.11567 0.410156,-2.91211 0.298666,-0.79645 0.709755,-1.40697 1.232422,-1.83008 0.522666,-0.42311 1.155677,-0.63477 1.902343,-0.63477 1.144888,0 1.954846,0.44971 2.427735,1.34571 0.472889,0.896 0.708984,2.15175 0.708984,3.76953 v 9.37109 h 6.085938 V 111.8457 c 0,-2.76266 -0.622744,-4.85281 -1.867188,-6.27148 -1.244443,-1.41867 -2.949902,-2.12891 -5.115234,-2.12891 z m 18.144531,0 c -1.443554,0 -2.799027,0.26054 -4.068359,0.78321 -1.244444,0.49777 -2.241615,1.24467 -2.988282,2.24023 -0.746665,0.97067 -1.11914,2.12866 -1.11914,3.47266 0,1.16978 0.311372,2.12833 0.933594,2.875 0.64711,0.72177 1.394012,1.26924 2.240234,1.64257 0.87111,0.37334 1.953826,0.74581 3.248047,1.11915 0.846221,0.24889 1.479233,0.46054 1.902344,0.63476 0.448,0.14933 0.810207,0.34877 1.083984,0.59766 0.298667,0.224 0.447266,0.51093 0.447266,0.85937 0,0.39822 -0.187214,0.7096 -0.560547,0.9336 -0.373333,0.19911 -0.869966,0.29687 -1.492188,0.29687 -0.970666,0 -1.841726,-0.23609 -2.613281,-0.70898 -0.771555,-0.49778 -2.202906,-0.0768 -2.526461,-0.94789 l -3.522367,1.47132 c 0.572444,1.568 1.630718,2.79932 3.173828,3.69532 1.543109,0.896 3.360507,1.34375 5.451172,1.34375 1.592887,0 3.011416,-0.24832 4.255859,-0.7461 1.269332,-0.47288 2.264551,-1.18117 2.986328,-2.12695 0.721778,-0.97067 1.082032,-2.11644 1.082032,-3.43555 0,-1.24444 -0.323593,-2.25188 -0.970704,-3.02343 -0.64711,-0.79645 -1.418453,-1.38253 -2.314453,-1.75586 -0.87111,-0.39822 -1.966046,-0.77071 -3.285156,-1.11914 -0.771555,-0.224 -1.380125,-0.41122 -1.828125,-0.56055 -0.423111,-0.14934 -0.773098,-0.33655 -1.046875,-0.56055 -0.273778,-0.24889 -0.410156,-0.53387 -0.410156,-0.85742 0,-0.37333 0.162773,-0.67248 0.486328,-0.89648 0.348444,-0.24889 0.820635,-0.37305 1.417969,-0.37305 0.846221,0 1.542288,0.21166 2.089843,0.63476 0.547555,0.39823 2.10016,-0.13472 2.448604,0.61195 l 3.301396,-1.35804 c -0.373332,-1.39378 -1.256613,-2.52733 -2.65039,-3.39844 -1.393777,-0.896 -3.111457,-1.34375 -5.152344,-1.34375 z"
     style="-inkscape-font-specification:'HarmonyOS Sans Heavy';fill:#000000"
     id="path9"
     sodipodi:nodetypes="cccccsscccccscssssccssssccscccccscscccssccscccccscsccccs" />
  <path
     d="m 70.326172,47.488281 -19.712891,7.541016 v 5.451172 l 19.712891,7.541015 v -5.71289 L 58.378906,57.753906 70.326172,53.199219 Z m -26.88086,17.023438 c -0.970666,0 -1.77867,0.348034 -2.425781,1.044922 -0.622221,0.696888 -0.933594,1.555728 -0.933594,2.576171 0,0.995555 0.335814,1.842175 1.007813,2.539063 0.696888,0.721777 1.529334,1.082031 2.5,1.082031 h 0.07617 0.07422 c -0.149334,1.020444 -0.572644,1.854843 -1.269532,2.501953 -0.696888,0.647111 -1.631004,1.094862 -2.800781,1.34375 v 3.173828 c 1.418666,-0.223999 2.713036,-0.771468 3.882813,-1.642578 1.169776,-0.846222 2.091672,-1.928936 2.763671,-3.248047 0.696889,-1.31911 1.044922,-2.737638 1.044922,-4.255859 0,-1.667554 -0.384694,-2.937483 -1.15625,-3.808594 -0.746666,-0.87111 -1.668561,-1.30664 -2.763672,-1.30664 z"
     style="-inkscape-font-specification:'HarmonyOS Sans Heavy';fill:#000000"
     id="path4" />
</svg>
