<?xml version="1.0" encoding="UTF-8" standalone="no"?>
<svg
   width="115"
   height="50"
   viewBox="0 0 115 50"
   fill="none"
   version="1.1"
   id="svg3"
   sodipodi:docname="ctrl.svg"
   inkscape:version="1.4 (e7c3feb100, 2024-10-09)"
   xmlns:inkscape="http://www.inkscape.org/namespaces/inkscape"
   xmlns:sodipodi="http://sodipodi.sourceforge.net/DTD/sodipodi-0.dtd"
   xmlns="http://www.w3.org/2000/svg"
   xmlns:svg="http://www.w3.org/2000/svg">
  <sodipodi:namedview
     id="namedview3"
     pagecolor="#ffffff"
     bordercolor="#000000"
     borderopacity="0.25"
     inkscape:showpageshadow="2"
     inkscape:pageopacity="0.0"
     inkscape:pagecheckerboard="0"
     inkscape:deskcolor="#d1d1d1"
     inkscape:zoom="5.7565218"
     inkscape:cx="34.569486"
     inkscape:cy="60.192598"
     inkscape:window-width="1920"
     inkscape:window-height="1008"
     inkscape:window-x="0"
     inkscape:window-y="0"
     inkscape:window-maximized="1"
     inkscape:current-layer="svg3"
     showgrid="true"
     showguides="true">
    <inkscape:grid
       id="grid1"
       units="px"
       originx="0"
       originy="0"
       spacingx="1"
       spacingy="1"
       empcolor="#0099e5"
       empopacity="0.30196078"
       color="#0099e5"
       opacity="0.14901961"
       empspacing="5"
       enabled="true"
       visible="true" />
  </sodipodi:namedview>
  <defs
     id="defs3">
    <clipPath
       id="clip0_19_1027">
      <rect
         width="115"
         height="50"
         fill="white"
         id="rect3" />
    </clipPath>
  </defs>
  <path
     d="m 82.480469,10 v 28.410156 h 6.083984 V 10 Z m -47.078125,0.560547 c -2.463998,0 -4.716925,0.584129 -6.757813,1.753906 -2.040887,1.144888 -3.656897,2.799513 -4.851562,4.964844 C 22.598303,19.41974 22,21.896542 22,24.708984 c 0,2.812442 0.598303,5.301465 1.792969,7.466797 1.194665,2.140442 2.810675,3.795067 4.851562,4.964844 2.040888,1.169777 4.293815,1.755859 6.757813,1.755859 1.791998,0 3.422182,-0.311371 4.890625,-0.933593 1.468443,-0.597333 2.675316,-1.393118 3.621093,-2.388672 0.970666,-0.995555 1.656466,-2.092444 2.054688,-3.28711 l -5.339844,-3.134765 c -0.547555,1.244443 -1.268064,2.203 -2.164062,2.875 -0.896,0.671999 -1.966494,1.007812 -3.210938,1.007812 -1.194666,0 -2.303775,-0.323593 -3.324219,-0.970703 -0.995554,-0.672 -1.779118,-1.642777 -2.351562,-2.912109 -0.572444,-1.269332 -0.857422,-2.750916 -0.857422,-4.44336 0,-1.692442 0.284978,-3.159853 0.857422,-4.404297 0.572444,-1.269332 1.356008,-2.227889 2.351562,-2.875 1.020444,-0.671999 2.129553,-1.007812 3.324219,-1.007812 1.244444,0 2.314938,0.335813 3.210938,1.007812 0.895998,0.672001 1.616507,1.630557 2.164062,2.875 l 5.339844,-3.136718 c -0.398222,-1.194666 -1.084022,-2.289602 -2.054688,-3.285156 -0.945777,-0.995555 -2.15265,-1.791339 -3.621093,-2.388672 -1.468443,-0.622222 -3.098627,-0.933594 -4.890625,-0.933594 z m 14.708984,2.351562 v 6.197266 h -3.546875 v 5.115234 h 3.546875 v 6.607422 c 0,3.011553 0.673579,5.113928 2.017578,6.308594 1.368888,1.169777 3.196552,1.755859 5.486328,1.755859 2.538665,0 4.504661,-0.622744 5.898438,-1.867187 l -2.126953,-4.21875 c -0.423111,0.323555 -0.834201,0.547431 -1.232422,0.671875 -0.398222,0.124445 -0.821531,0.1875 -1.269531,0.1875 -1.045332,0 -1.75362,-0.335813 -2.126954,-1.007813 C 56.38448,31.965221 56.197266,30.994443 56.197266,29.75 v -5.525391 h 5.898437 v -5.115234 h -5.898437 v -6.197266 z m 26.619141,5.673828 c -1.219555,10e-7 -2.30227,0.299152 -3.248047,0.896485 -0.945777,0.597333 -1.7049,1.468393 -2.277344,2.613281 -0.124445,-0.622221 -0.236382,-1.61744 -0.335937,-2.986328 h -5.414063 v 19.300781 h 6.085938 v -8.548828 c 0,-1.219555 0.174992,-2.277829 0.523437,-3.173828 0.348444,-0.920888 0.845077,-1.629176 1.492188,-2.126953 0.64711,-0.522666 1.406233,-0.785156 2.277343,-0.785156 0.871111,0 1.668849,0.26249 2.390625,0.785156 l 2.351563,-4.63086 c -0.348444,-0.398222 -0.883692,-0.719861 -1.605469,-0.96875 -0.696888,-0.248888 -1.44379,-0.375 -2.240234,-0.375 z"
     style="-inkscape-font-specification:'HarmonyOS Sans Heavy';fill:#000000"
     id="path1" />
  <rect
     style="fill:#000000"
     id="rect2"
     width="1"
     height="1"
     x="0"
     y="0" />
  <rect
     style="fill:#000000"
     id="rect6"
     width="1"
     height="1"
     x="114"
     y="49" />
</svg>
