<?xml version="1.0" encoding="UTF-8" standalone="no"?>
<!-- Created with Inkscape (http://www.inkscape.org/) -->

<svg
   width="197.75218mm"
   height="197.00876mm"
   viewBox="0 0 197.75218 197.00876"
   version="1.1"
   id="svg1"
   xmlns="http://www.w3.org/2000/svg"
   xmlns:svg="http://www.w3.org/2000/svg">
  <defs
     id="defs1" />
  <g
     id="layer1"
     transform="translate(-1.1151439,-1.4868586)">
    <path
       style="fill:#a500ff;stroke-width:0.264583"
       id="path1"
       d="M 58.730913,57.244054 39.199069,60.337595 30.221265,42.717664 44.204522,28.734407 61.824453,37.71221 Z" />
    <path
       style="fill:#a500ff;stroke-width:0.264583"
       id="path2"
       d="m 153.14643,69.510639 -23.96461,4.734144 -11.90791,-21.328768 16.60511,-17.916047 22.17044,10.256041 z" />
    <path
       style="fill:#a500ff;stroke-width:0.264583"
       id="path3"
       d="M 72.856073,144.96871 34.919289,156.2956 12.423665,123.71578 36.457388,92.25345 73.806671,105.38849 Z" />
    <path
       style="fill:#a500ff;stroke-width:0.264583"
       id="path4"
       d="m 137.53442,113.37297 -13.81484,-0.31467 -3.96975,-13.23593 11.3614,-7.865582 10.99147,8.374732 z" />
    <rect
       style="fill:#a500ff;stroke-width:0.264583"
       id="rect4"
       width="21.931162"
       height="16.355444"
       x="1.115144"
       y="1.4868586" />
    <rect
       style="fill:#a500ff;stroke-width:0.264583"
       id="rect5"
       width="25.648312"
       height="18.214016"
       x="172.4756"
       y="1.4868586" />
    <rect
       style="fill:#a500ff;stroke-width:0.264583"
       id="rect6"
       width="29.365458"
       height="26.391739"
       x="169.50188"
       y="172.10388" />
    <rect
       style="fill:#a500ff;stroke-width:0.264583"
       id="rect7"
       width="23.789738"
       height="28.622026"
       x="1.8585732"
       y="169.8736" />
  </g>
</svg>
