<?xml version="1.0" encoding="UTF-8" standalone="no"?>
<svg
   width="115"
   height="50"
   viewBox="0 0 115 50"
   fill="none"
   version="1.1"
   id="svg3"
   sodipodi:docname="shift.svg"
   inkscape:version="1.4 (e7c3feb100, 2024-10-09)"
   inkscape:export-filename="../poly-svg/shift.svg"
   inkscape:export-xdpi="96"
   inkscape:export-ydpi="96"
   xmlns:inkscape="http://www.inkscape.org/namespaces/inkscape"
   xmlns:sodipodi="http://sodipodi.sourceforge.net/DTD/sodipodi-0.dtd"
   xmlns="http://www.w3.org/2000/svg"
   xmlns:svg="http://www.w3.org/2000/svg">
  <path
     d="m 85.833984,9.6855469 c -2.439109,0 -4.419279,0.7713431 -5.9375,2.3144531 -1.493332,1.518221 -2.238281,3.807809 -2.238281,6.869141 v 0.447265 h -3.287109 v 5.078125 h 3.287109 v 14.22461 h 6.083984 v -14.22461 h 5.078125 V 19.316406 H 83.742187 V 19.09375 c 10e-7,-1.443554 0.223876,-2.501829 0.671875,-3.173828 0.448,-0.671999 1.107406,-1.007813 1.978516,-1.007813 0.945777,0 1.804617,0.348034 2.576172,1.044922 l 2.314453,-4.255859 C 90.760537,11.103839 90.027809,10.617473 89.082031,10.244141 88.136255,9.8708076 87.053539,9.6855469 85.833984,9.6855469 Z m -21.83789,0.3730471 c -0.970666,0 -1.805065,0.360254 -2.501953,1.082031 -0.696889,0.696889 -1.044922,1.543508 -1.044922,2.539063 0,0.970665 0.348033,1.817285 1.044922,2.539062 0.696888,0.696889 1.531287,1.044922 2.501953,1.044922 0.970666,0 1.805065,-0.348033 2.501953,-1.044922 0.696889,-0.721777 1.044922,-1.568397 1.044922,-2.539062 0,-0.995555 -0.360254,-1.842174 -1.082032,-2.539063 -0.696888,-0.721777 -1.519067,-1.082031 -2.464843,-1.082031 z m -31.021485,0.148437 v 28.41211 h 6.085938 v -9.109375 c 0,-1.144888 0.136379,-2.115666 0.410156,-2.91211 0.298667,-0.796444 0.709756,-1.406967 1.232422,-1.830078 0.522667,-0.423111 1.157631,-0.634766 1.904297,-0.634766 1.144887,10e-7 1.952892,0.447751 2.425781,1.34375 0.472889,0.896 0.708984,2.153709 0.708984,3.771485 v 9.371094 h 6.085938 V 27.193359 c 0,-2.762664 -0.622744,-4.852819 -1.867188,-6.271484 -1.244443,-1.418665 -2.947949,-2.126953 -5.113281,-2.126953 -1.269332,0 -2.390663,0.236096 -3.361328,0.708984 -0.970666,0.472888 -1.77867,1.207571 -2.425781,2.203125 v -11.5 z M 15.09375,10.767578 c -1.816887,0 -3.520393,0.311372 -5.1132812,0.933594 -1.5679987,0.622221 -2.8501484,1.568558 -3.8457032,2.837891 -0.9706658,1.269332 -1.4550781,2.84868 -1.4550781,4.740234 0,1.717332 0.4091361,3.111419 1.2304687,4.18164 0.8213327,1.070222 1.8043309,1.866006 2.9492188,2.388672 1.169777,0.497778 2.63914,1.008584 4.40625,1.53125 1.194665,0.348445 2.126829,0.659817 2.798828,0.933594 0.672,0.273777 1.233641,0.621811 1.681641,1.044922 0.447999,0.423111 0.671875,0.958358 0.671875,1.605469 0,0.796444 -0.335813,1.406967 -1.007813,1.830078 -0.64711,0.398222 -1.50595,0.597656 -2.576172,0.597656 -1.443554,0 -2.701263,-0.349986 -3.771484,-1.046875 -1.045332,-0.721777 -1.8411167,-1.704775 -2.3886719,-2.949219 l -5.1523437,2.949219 c 0.7217772,2.190221 2.1158646,3.859018 4.1816406,5.003906 2.0906647,1.169777 4.392474,1.753907 6.90625,1.753907 1.667554,0 3.297738,-0.286931 4.890625,-0.859375 1.592887,-0.547556 2.911699,-1.455278 3.957031,-2.72461 1.070222,-1.294221 1.605469,-2.936625 1.605469,-4.927734 0,-1.717332 -0.42331,-3.111419 -1.269531,-4.181641 -0.846222,-1.070221 -1.85366,-1.878226 -3.023438,-2.425781 -1.169776,-0.547555 -2.651361,-1.082803 -4.443359,-1.605469 -1.169777,-0.348444 -2.08972,-0.647595 -2.761719,-0.896484 -0.671999,-0.248889 -1.219467,-0.572481 -1.642578,-0.970703 -0.423111,-0.398222 -0.634766,-0.896808 -0.634766,-1.494141 0,-0.746666 0.311373,-1.355236 0.933594,-1.828125 0.647111,-0.472889 1.479556,-0.708984 2.5,-0.708984 1.194665,0 2.204058,0.309418 3.025391,0.93164 0.846221,0.597333 1.467012,1.468394 1.865234,2.613282 l 5.226563,-2.949219 c -0.348444,-1.343999 -0.99563,-2.487817 -1.941407,-3.433594 -0.945777,-0.945777 -2.101815,-1.656017 -3.470703,-2.128906 -1.343999,-0.497777 -2.788922,-0.746094 -4.332031,-0.746094 z m 83.429687,2.351563 v 6.197265 h -3.546875 v 5.115235 h 3.546875 v 6.607421 c 10e-7,3.011553 0.671625,5.115881 2.015623,6.310547 1.36889,1.169777 3.19851,1.753907 5.48828,1.753907 2.53867,0 4.50467,-0.622745 5.89844,-1.867188 l -2.12695,-4.21875 c -0.42312,0.323555 -0.8342,0.547431 -1.23242,0.671875 -0.39823,0.124445 -0.82154,0.1875 -1.26953,0.1875 -1.04534,0 -1.75362,-0.335813 -2.12696,-1.007812 -0.37333,-0.696889 -0.56054,-1.667666 -0.56054,-2.91211 v -5.52539 h 5.89843 v -5.115235 h -5.89843 v -6.197265 z m -37.550781,6.197265 v 19.302735 h 6.083985 V 19.316406 Z"
     style="-inkscape-font-specification:'HarmonyOS Sans Heavy';fill:#000000"
     id="path1" />
  <sodipodi:namedview
     id="namedview3"
     pagecolor="#ffffff"
     bordercolor="#000000"
     borderopacity="0.25"
     inkscape:showpageshadow="2"
     inkscape:pageopacity="0.0"
     inkscape:pagecheckerboard="0"
     inkscape:deskcolor="#d1d1d1"
     inkscape:zoom="5.7565218"
     inkscape:cx="34.569486"
     inkscape:cy="60.192598"
     inkscape:window-width="1920"
     inkscape:window-height="1008"
     inkscape:window-x="0"
     inkscape:window-y="0"
     inkscape:window-maximized="1"
     inkscape:current-layer="svg3"
     showgrid="true"
     showguides="true">
    <inkscape:grid
       id="grid1"
       units="px"
       originx="0"
       originy="0"
       spacingx="1"
       spacingy="1"
       empcolor="#0099e5"
       empopacity="0.30196078"
       color="#0099e5"
       opacity="0.14901961"
       empspacing="5"
       enabled="true"
       visible="true" />
  </sodipodi:namedview>
  <defs
     id="defs3">
    <clipPath
       id="clip0_19_1027">
      <rect
         width="115"
         height="50"
         fill="white"
         id="rect3" />
    </clipPath>
  </defs>
</svg>
