<?xml version="1.0" encoding="UTF-8" standalone="no"?>
<svg
   width="115"
   height="155"
   viewBox="0 0 115 155"
   fill="none"
   version="1.1"
   id="svg3"
   sodipodi:docname="a.svgz"
   inkscape:version="1.4 (e7c3feb100, 2024-10-09)"
   inkscape:export-filename="a.svg"
   inkscape:export-xdpi="96"
   inkscape:export-ydpi="96"
   xmlns:inkscape="http://www.inkscape.org/namespaces/inkscape"
   xmlns:sodipodi="http://sodipodi.sourceforge.net/DTD/sodipodi-0.dtd"
   xmlns="http://www.w3.org/2000/svg"
   xmlns:svg="http://www.w3.org/2000/svg">
  <sodipodi:namedview
     id="namedview1"
     pagecolor="#ffffff"
     bordercolor="#000000"
     borderopacity="0.25"
     inkscape:showpageshadow="2"
     inkscape:pageopacity="0.0"
     inkscape:pagecheckerboard="0"
     inkscape:deskcolor="#d1d1d1"
     inkscape:zoom="4"
     inkscape:cx="-12"
     inkscape:cy="70.875"
     inkscape:window-width="1920"
     inkscape:window-height="1008"
     inkscape:window-x="0"
     inkscape:window-y="0"
     inkscape:window-maximized="1"
     inkscape:current-layer="lower"
     showgrid="true">
    <inkscape:grid
       id="grid1"
       units="px"
       originx="0"
       originy="0"
       spacingx="1"
       spacingy="1"
       empcolor="#0099e5"
       empopacity="0.30196078"
       color="#0099e5"
       opacity="0.14901961"
       empspacing="5"
       enabled="true"
       visible="true" />
    <inkscape:page
       x="0"
       y="0"
       width="115"
       height="155"
       id="page2"
       margin="0"
       bleed="0" />
  </sodipodi:namedview>
  <defs
     id="defs3" />
  <rect
     style="fill:#000000"
     id="side-top-boundary"
     width="0.1"
     height="0.1"
     x="1.5258789e-06"
     y="125" />
  <rect
     style="fill:#000000"
     id="side-bottom-boundary"
     width="0.1"
     height="0.1"
     x="114.9"
     y="154.89999" />
  <rect
     style="fill:#000000"
     id="surface-bottom-boundary"
     width="0.1"
     height="0.1"
     x="114.9"
     y="124.9" />
  <rect
     style="fill:#000000"
     id="surface-top-boundary"
     width="0.1"
     height="0.1"
     x="0"
     y="0" />
  <rect
     style="fill:#000000;stroke-width:1.95257"
     id="rect11"
     width="115"
     height="0.38124847"
     x="0"
     y="124.81406"
     inkscape:label="divider" />
  <g
     inkscape:groupmode="layer"
     id="adjust"
     inkscape:label="adjust"
     style="display:inline">
    <rect
       style="fill:#000000"
       id="rect9"
       width="0.1"
       height="0.1"
       x="1.5258789e-06"
       y="125" />
    <rect
       style="fill:#000000"
       id="rect10"
       width="0.1"
       height="0.1"
       x="114.9"
       y="154.89999" />
    <path
       d="m 17.988281,125.94141 v 5.63671 h 8.212891 v 21.69141 h 6.347656 v -21.69141 h 8.212891 v -5.63671 z m 35.462891,0 -10.789063,27.32812 h 6.347657 l 2.015625,-5.52539 h 10.341796 l 2.089844,5.52539 h 6.720703 l -11.08789,-27.32812 z m 24.638672,0 v 27.32812 h 11.423828 c 3.260441,0 5.822788,-0.69802 7.689453,-2.0918 1.866668,-1.41866 2.800785,-3.37244 2.800785,-5.86132 0,-1.49334 -0.360255,-2.7491 -1.082035,-3.76954 -0.721777,-1.04533 -1.780051,-1.85528 -3.173828,-2.42773 0.920888,-0.57244 1.629176,-1.30517 2.126953,-2.20117 0.522667,-0.92089 0.785156,-2.00361 0.785156,-3.24805 0,-1.69244 -0.44775,-3.11097 -1.34375,-4.25586 -0.87111,-1.16977 -2.065763,-2.04083 -3.583984,-2.61328 -1.518221,-0.57244 -3.235901,-0.85937 -5.152344,-0.85937 z m 6.234375,5.48828 h 3.732422 c 0.846221,0 1.568683,0.0997 2.166015,0.29883 0.597334,0.17422 1.045084,0.44697 1.34375,0.82031 0.323556,0.37333 0.486328,0.83526 0.486328,1.38281 0,0.87111 -0.362207,1.56718 -1.083984,2.08984 -0.721777,0.52267 -1.692555,0.78321 -2.912109,0.78321 h -3.732422 z m -28.220703,2.46289 3.248046,8.51367 h -6.347656 z m 28.220703,8.17773 h 4.779297 c 1.343999,0 2.388099,0.26054 3.134765,0.78321 0.771555,0.49778 1.158203,1.19384 1.158203,2.08984 0,0.89599 -0.374427,1.59402 -1.121093,2.0918 -0.746666,0.47288 -1.790767,0.70898 -3.134766,0.70898 h -4.816406 z"
       style="-inkscape-font-specification:'HarmonyOS Sans Heavy';fill:#000000"
       id="path7" />
  </g>
  <g
     inkscape:groupmode="layer"
     id="lower"
     inkscape:label="lower"
     style="display:inline">
    <rect
       style="fill:#000000"
       id="rect7"
       width="0.1"
       height="0.1"
       x="114.9"
       y="124.9" />
    <rect
       style="fill:#000000"
       id="rect8"
       width="0.1"
       height="0.1"
       x="0"
       y="0" />
    <path
       d="m 8.5976563,92 c -2.0906649,0 -3.6597457,0.808005 -4.7050782,2.425781 -1.0453324,1.617777 -1.5664062,3.634608 -1.5664062,6.048829 h 5.1503906 c 0.074667,-1.12 0.2374395,-1.954398 0.4863281,-2.501954 0.2488887,-0.572444 0.6091428,-0.857422 1.0820313,-0.857422 0.2986664,0 0.5733769,0.111938 0.8222656,0.335938 0.2737775,0.199111 0.5851495,0.522703 0.9335935,0.970703 0.647111,0.821333 1.306517,1.468518 1.978516,1.941405 0.696889,0.47289 1.655445,0.70899 2.875,0.70899 2.115553,0 3.694902,-0.80996 4.740234,-2.427739 C 21.439866,97.026755 21.975113,95.011876 22,92.597656 h -5.152344 c -0.09956,1.119999 -0.272595,1.954398 -0.521484,2.501953 -0.248889,0.547555 -0.611096,0.820313 -1.083984,0.820313 -0.298667,0 -0.571424,-0.09972 -0.820313,-0.298828 C 14.172986,95.421983 13.861615,95.08617 13.488281,94.613281 12.816282,93.791949 12.132435,93.156984 11.435547,92.708984 10.763547,92.236096 9.8172104,92 8.5976563,92 Z"
       style="line-height:0.9;font-family:'HarmonyOS Sans';-inkscape-font-specification:'HarmonyOS Sans Heavy';letter-spacing:5px;baseline-shift:baseline;display:inline;overflow:visible;vector-effect:none;fill:#000000;enable-background:accumulate;stop-color:#000000;stop-opacity:1"
       id="path19" />
    <path
       d="m 2.7734375,115.63281 4.8164062,6.34571 h 4.6660153 l -3.4726559,-6.34571 z"
       style="line-height:0.9;font-family:'HarmonyOS Sans';-inkscape-font-specification:'HarmonyOS Sans Heavy';letter-spacing:5px;baseline-shift:baseline;display:inline;overflow:visible;vector-effect:none;fill:#000000;enable-background:accumulate;stop-color:#000000;stop-opacity:1"
       id="path18" />
  </g>
  <g
     inkscape:groupmode="layer"
     id="base"
     inkscape:label="base"
     style="display:inline">
    <rect
       style="fill:#000000"
       id="rect3"
       width="0.1"
       height="0.1"
       x="114.9"
       y="124.9" />
    <rect
       style="fill:#000000"
       id="rect4"
       width="0.1"
       height="0.1"
       x="0"
       y="0" />
    <path
       d="M 56.53125,48.691406 45.742187,76.019531 h 6.347657 l 2.015625,-5.52539 h 10.341797 l 2.089843,5.52539 h 6.720703 L 62.169922,48.691406 Z m 2.652344,7.951172 3.246093,8.513672 h -6.345703 z"
       style="-inkscape-font-specification:'HarmonyOS Sans Heavy';fill:#000000"
       id="path5" />
  </g>
  <g
     inkscape:groupmode="layer"
     id="raise"
     inkscape:label="raise"
     style="display:inline">
    <rect
       style="display:inline;fill:#000000"
       id="rect5"
       width="0.1"
       height="0.1"
       x="114.9"
       y="124.9" />
    <rect
       style="display:inline;fill:#000000"
       id="rect6"
       width="0.1"
       height="0.1"
       x="0"
       y="0" />
    <path
       d="m 100,0 0.33594,12.169922 h 5.00195 L 105.59961,0 Z m 8.99805,0 0.33593,12.169922 h 5.00196 L 114.67188,0 Z"
       style="line-height:0.9;font-family:'HarmonyOS Sans';-inkscape-font-specification:'HarmonyOS Sans Heavy';letter-spacing:5px;baseline-shift:baseline;display:inline;overflow:visible;vector-effect:none;fill:#000000;enable-background:accumulate;stop-color:#000000;stop-opacity:1"
       id="path15" />
    <path
       d="m 100,33.599609 0.33594,12.171875 h 5.00195 l 0.26172,-12.171875 z"
       style="line-height:0.9;font-family:'HarmonyOS Sans';-inkscape-font-specification:'HarmonyOS Sans Heavy';letter-spacing:5px;baseline-shift:baseline;display:inline;overflow:visible;vector-effect:none;fill:#000000;enable-background:accumulate;stop-color:#000000;stop-opacity:1"
       id="path14" />
  </g>
</svg>
