<?xml version="1.0" encoding="UTF-8" standalone="no"?>
<svg
   width="108.4043"
   height="29.417969"
   viewBox="0 0 108.4043 29.417969"
   fill="none"
   version="1.1"
   id="svg3"
   xmlns="http://www.w3.org/2000/svg"
   xmlns:svg="http://www.w3.org/2000/svg">
  <defs
     id="defs3" />
  <path
     d="M 54.958984,0.20507813 V 28.615234 h 6.083985 V 0.20507813 Z M 30.806641,1.2871094 20.017578,28.615234 h 6.345703 l 2.015625,-5.52539 h 10.341797 l 2.091797,5.52539 h 6.71875 L 36.443359,1.2871094 Z m 41.060546,1.8300781 v 6.1972656 h -3.546875 v 5.1152349 h 3.546875 v 6.607421 c 0,3.011553 0.671627,5.115881 2.015625,6.310547 1.368889,1.169777 3.198506,1.753907 5.488282,1.753906 2.538664,10e-7 4.504661,-0.622744 5.898437,-1.867187 l -2.126953,-4.21875 c -0.423111,0.323555 -0.8342,0.547431 -1.232422,0.671875 -0.398222,0.124445 -0.821532,0.1875 -1.269531,0.1875 -1.045333,0 -1.75362,-0.335813 -2.126953,-1.007813 -0.373333,-0.696888 -0.560547,-1.667666 -0.560547,-2.912109 v -5.52539 h 5.898437 V 9.3144531 H 77.953125 V 3.1171875 Z m -38.410156,6.1230469 3.248047,8.5117186 h -6.347656 z"
     style="-inkscape-font-specification:'HarmonyOS Sans Heavy';fill:#000000"
     id="path1" />
</svg>
