<?xml version="1.0" encoding="UTF-8" standalone="no"?>
<svg
   width="115"
   height="125"
   viewBox="0 0 115 125"
   fill="none"
   version="1.1"
   id="svg3"
   xmlns="http://www.w3.org/2000/svg"
   xmlns:svg="http://www.w3.org/2000/svg">
  <defs
     id="defs3" />
  <path
     d="m 58.996094,48.15625 c -2.463998,0 -4.716925,0.586083 -6.757813,1.755859 -2.040886,1.144888 -3.658849,2.799512 -4.853515,4.964844 -1.194666,2.140442 -1.792969,4.617245 -1.792969,7.429688 0,2.812442 0.598303,5.301465 1.792969,7.466796 1.194666,2.140444 2.812629,3.795068 4.853515,4.964844 2.040888,1.169777 4.293815,1.753906 6.757813,1.753906 1.791998,0 3.422181,-0.311372 4.890625,-0.933593 1.468442,-0.597334 2.675316,-1.393117 3.621093,-2.388672 0.970668,-0.995555 1.654514,-2.090491 2.052735,-3.285156 l -5.337891,-3.136719 c -0.547554,1.244444 -1.270016,2.203001 -2.166015,2.875 -0.896,0.671999 -1.966495,1.007812 -3.210938,1.007812 -1.194666,0 -2.301822,-0.323592 -3.322266,-0.970703 C 54.527884,68.988157 53.744319,68.01738 53.171875,66.748047 52.599431,65.478715 52.3125,63.999083 52.3125,62.306641 c 0,-1.692444 0.286931,-3.161807 0.859375,-4.40625 0.572444,-1.269332 1.356008,-2.22789 2.351562,-2.875 1.020444,-0.672 2.1276,-1.007813 3.322266,-1.007813 1.244443,0 2.314938,0.335813 3.210938,1.007813 0.895999,0.671999 1.618461,1.630556 2.166015,2.875 l 5.337891,-3.134766 C 69.162326,53.570959 68.478479,52.47407 67.507812,51.478516 66.562035,50.482961 65.355161,49.687176 63.886719,49.089844 62.418275,48.467622 60.788092,48.15625 58.996094,48.15625 Z"
     style="-inkscape-font-specification:'HarmonyOS Sans Heavy';baseline-shift:baseline;display:inline;overflow:visible;vector-effect:none;fill:#000000;enable-background:accumulate;stop-color:#000000;stop-opacity:1"
     id="path2" />
  <rect
     style="fill:#000000"
     id="rect1"
     width="0.1"
     height="0.1"
     x="114.9"
     y="0" />
  <rect
     style="fill:#000000"
     id="rect1-3"
     width="0.1"
     height="0.1"
     x="114.9"
     y="124.9" />
  <rect
     style="fill:#000000"
     id="rect1-6"
     width="0.1"
     height="0.1"
     x="0"
     y="124.9" />
  <rect
     style="fill:#000000"
     id="rect1-7"
     width="0.1"
     height="0.1"
     x="0"
     y="0" />
</svg>
