<?xml version="1.0" encoding="UTF-8" standalone="no"?>
<svg
   width="115"
   height="125"
   viewBox="0 0 115 125"
   fill="none"
   version="1.1"
   id="svg3"
   xmlns="http://www.w3.org/2000/svg"
   xmlns:svg="http://www.w3.org/2000/svg">
  <defs
     id="defs3" />
  <path
     d="M 111.74023,9.5585938 92.027344,17.101562 v 5.449219 l 19.712886,7.541016 V 24.380859 L 99.792969,19.826172 111.74023,15.271484 Z M 84.859375,26.583984 c -0.970666,0 -1.778671,0.348034 -2.425781,1.044922 C 81.811372,28.325794 81.5,29.184634 81.5,30.205078 c 0,0.995555 0.335813,1.842175 1.007812,2.539063 0.696888,0.721777 1.531288,1.082031 2.501954,1.082031 h 0.07422 0.07422 c -0.149333,1.020443 -0.572642,1.854842 -1.269531,2.501953 -0.696888,0.647111 -1.629051,1.094861 -2.798828,1.34375 v 3.171875 c 1.418666,-0.224 2.713036,-0.771467 3.882812,-1.642578 1.169777,-0.846221 2.08972,-1.928937 2.761719,-3.248047 0.696889,-1.31911 1.044922,-2.737639 1.044922,-4.255859 0,-1.667555 -0.384695,-2.935531 -1.15625,-3.806641 -0.746666,-0.871111 -1.668562,-1.306641 -2.763672,-1.306641 z"
     style="-inkscape-font-specification:'HarmonyOS Sans Heavy';fill:#000000"
     id="path8" />
  <rect
     style="fill:#000000"
     id="rect1"
     width="0.1"
     height="0.1"
     x="114.9"
     y="0" />
  <rect
     style="fill:#000000"
     id="rect1-3"
     width="0.1"
     height="0.1"
     x="114.9"
     y="124.9" />
  <rect
     style="fill:#000000"
     id="rect1-6"
     width="0.1"
     height="0.1"
     x="0"
     y="124.9" />
  <rect
     style="fill:#000000"
     id="rect1-7"
     width="0.1"
     height="0.1"
     x="0"
     y="0" />
</svg>
