<?xml version="1.0" encoding="UTF-8" standalone="no"?>
<svg
   width="108.4043"
   height="29.417969"
   viewBox="0 0 108.4043 29.417969"
   fill="none"
   version="1.1"
   id="svg3"
   xmlns="http://www.w3.org/2000/svg"
   xmlns:svg="http://www.w3.org/2000/svg">
  <defs
     id="defs3" />
  <path
     d="M 86.6875,0.20507813 V 28.615234 h 6.085937 V 0.20507813 Z M 24.609375,0.765625 c -2.463998,0 -4.714972,0.5841295 -6.755859,1.7539063 C 15.812629,3.6644192 14.194666,5.3209966 13,7.4863281 11.805335,9.6267707 11.207031,12.10162 11.207031,14.914063 c 0,2.812441 0.598304,5.301465 1.792969,7.466796 1.194666,2.140443 2.812629,3.79702 4.853516,4.966797 2.040887,1.169777 4.291861,1.753906 6.755859,1.753906 1.791999,0 3.422182,-0.311371 4.890625,-0.933593 1.468443,-0.597333 2.67727,-1.393117 3.623047,-2.388672 0.970666,-0.995555 1.654513,-2.09049 2.052734,-3.285156 l -5.339844,-3.136719 c -0.547554,1.244443 -1.268063,2.203001 -2.164062,2.875 -0.895999,0.671999 -1.966494,1.007812 -3.210938,1.007812 -1.194665,0 -2.301822,-0.323593 -3.322265,-0.970703 -0.995555,-0.672 -1.779119,-1.642777 -2.351563,-2.912109 -0.572444,-1.269332 -0.859375,-2.750916 -0.859375,-4.443359 0,-1.692443 0.286931,-3.159854 0.859375,-4.404297 0.572444,-1.2693329 1.356008,-2.2278898 2.351563,-2.8750004 1.020443,-0.6719994 2.127599,-1.0078125 3.322265,-1.0078125 1.244444,0 2.314939,0.3358131 3.210938,1.0078125 0.895999,0.6719994 1.616508,1.6305564 2.164062,2.8750004 L 35.175781,7.3730469 C 34.77756,6.1783813 34.093713,5.0834454 33.123047,4.0878906 32.17727,3.092336 30.968443,2.2965516 29.5,1.6992187 28.031557,1.0769971 26.401374,0.765625 24.609375,0.765625 Z m 19.710937,2.3515625 v 6.1972656 h -3.546875 v 5.1152349 h 3.546875 v 6.607421 c 0,3.011553 0.671627,5.115881 2.015625,6.310547 1.368888,1.169777 3.198506,1.753907 5.488282,1.753906 2.538664,10e-7 4.504661,-0.622744 5.898437,-1.867187 l -2.128906,-4.21875 c -0.423111,0.323555 -0.8342,0.547431 -1.232422,0.671875 -0.398222,0.124445 -0.819578,0.1875 -1.267578,0.1875 -1.045332,0 -1.755573,-0.335813 -2.128906,-1.007813 -0.373333,-0.696888 -0.560547,-1.667666 -0.560547,-2.912109 v -5.52539 h 5.898437 V 9.3144531 H 50.404297 V 3.1171875 Z M 75.9375,8.7929688 c -1.219554,0 -2.30227,0.2971984 -3.248047,0.8945312 -0.945777,0.597333 -1.7049,1.468393 -2.277344,2.613281 -0.124444,-0.622221 -0.236382,-1.61744 -0.335937,-2.9863279 h -5.41211 V 28.615234 h 6.083985 v -8.548828 c 0,-1.219554 0.174993,-2.277829 0.523437,-3.173828 0.348444,-0.920888 0.84703,-1.629176 1.494141,-2.126953 0.647111,-0.522666 1.406234,-0.785156 2.277344,-0.785156 0.87111,0 1.666895,0.26249 2.388672,0.785156 l 2.351562,-4.628906 C 79.434759,9.7384966 78.899511,9.4149043 78.177734,9.1660156 77.480846,8.917127 76.733944,8.7929688 75.9375,8.7929688 Z"
     style="-inkscape-font-specification:'HarmonyOS Sans Heavy';fill:#000000"
     id="path1" />
</svg>
