<?xml version="1.0" encoding="UTF-8" standalone="no"?>
<svg
   width="115"
   height="155"
   viewBox="0 0 115 155"
   fill="none"
   version="1.1"
   id="svg3"
   xmlns="http://www.w3.org/2000/svg"
   xmlns:svg="http://www.w3.org/2000/svg">
  <defs
     id="defs3" />
  <rect
     style="fill:#000000"
     id="side-top-boundary"
     width="0.1"
     height="0.1"
     x="1.5258789e-06"
     y="125" />
  <rect
     style="fill:#000000"
     id="side-bottom-boundary"
     width="0.1"
     height="0.1"
     x="114.9"
     y="154.89999" />
  <rect
     style="fill:#000000"
     id="surface-bottom-boundary"
     width="0.1"
     height="0.1"
     x="114.9"
     y="124.9" />
  <rect
     style="fill:#000000"
     id="surface-top-boundary"
     width="0.1"
     height="0.1"
     x="0"
     y="0" />
  <rect
     style="display:inline;fill:#000000;stroke-width:1.95257"
     id="rect11"
     width="115"
     height="0.38124847"
     x="0"
     y="124.81406" />
  <g
     id="adjust"
     style="display:inline">
    <path
       d="m 58.162109,126 c -1.603553,1.62311 -2.864093,3.60842 -3.783203,5.95508 C 53.459796,134.28219 53,136.8247 53,139.58203 c 0,2.77689 0.459796,5.32719 1.378906,7.6543 0.91911,2.32711 2.17965,4.30267 3.783203,5.92578 h 4.69336 c -1.62311,-1.936 -2.854425,-3.96027 -3.695313,-6.07227 -0.821332,-2.112 -1.232422,-4.61359 -1.232422,-7.50781 0,-2.87466 0.41109,-5.35872 1.232422,-7.45117 0.840888,-2.11199 2.072203,-4.15575 3.695313,-6.13086 z"
       style="-inkscape-font-specification:'HarmonyOS Sans Heavy';fill:#000000"
       id="path7" />
    <rect
       style="fill:#000000"
       id="rect9"
       width="0.1"
       height="0.1"
       x="1.5258789e-06"
       y="125" />
    <rect
       style="fill:#000000"
       id="rect10"
       width="0.1"
       height="0.1"
       x="114.9"
       y="154.89999" />
  </g>
  <g
     id="lower"
     style="display:inline">
    <path
       d="m 33.236328,95.904297 -1.828125,14.896483 4.666016,2.23828 c 0.771555,-1.44355 1.892885,-2.16406 3.361328,-2.16406 0.721777,0 1.330348,0.16082 1.828125,0.48438 0.522666,0.32355 0.909314,0.75908 1.158203,1.30664 0.248889,0.54756 0.373047,1.1703 0.373047,1.86718 0,0.64712 -0.111938,1.24542 -0.335938,1.79297 -0.224,0.54756 -0.586207,0.98309 -1.083984,1.30664 -0.472889,0.32356 -1.044798,0.48438 -1.716797,0.48438 -0.895999,0 -1.667342,-0.26054 -2.314453,-0.78321 -0.622221,-0.54756 -1.082193,-1.36973 -1.380859,-2.46484 l -5.078125,2.98633 c 0.671999,1.96622 1.779155,3.43558 3.322265,4.40625 1.54311,0.99556 3.399122,1.49219 5.564453,1.49219 1.791999,0 3.434403,-0.37248 4.927735,-1.11914 1.493332,-0.72178 2.675765,-1.79228 3.546875,-3.21094 0.87111,-1.44356 1.30664,-3.13679 1.30664,-5.07813 0,-1.81688 -0.398868,-3.39623 -1.195312,-4.74023 -0.771555,-1.36889 -1.817609,-2.41495 -3.136719,-3.13672 -1.294221,-0.74667 -2.72497,-1.11914 -4.292969,-1.11914 -0.522666,0 -1.033472,0.0489 -1.53125,0.14844 -0.497777,0.0747 -0.982189,0.1866 -1.455078,0.33593 l 0.597656,-4.55468 h 9.707032 v -5.375003 z m -28.9296874,0.03711 v 27.328123 h 6.3847654 v -10.26758 h 10.675781 v -5.52539 H 10.691406 v -5.97265 h 11.908203 v -5.562503 z"
       style="-inkscape-font-specification:'HarmonyOS Sans Heavy';fill:#000000"
       id="path6" />
    <rect
       style="fill:#000000"
       id="rect7"
       width="0.1"
       height="0.1"
       x="114.9"
       y="124.9" />
    <rect
       style="fill:#000000"
       id="rect8"
       width="0.1"
       height="0.1"
       x="0"
       y="0" />
  </g>
  <g
     id="base"
     style="display:inline">
    <path
       d="m 48.056641,48.691406 v 27.328125 h 9.857421 c 2.687999,0 5.113966,-0.535247 7.279297,-1.605469 2.165332,-1.095109 3.870791,-2.676411 5.115235,-4.742187 1.244443,-2.065776 1.865234,-4.516185 1.865234,-7.353516 0,-2.837331 -0.633012,-5.277472 -1.902344,-7.318359 -1.244443,-2.065776 -2.949903,-3.632904 -5.115234,-4.703125 -2.165331,-1.070221 -4.579078,-1.605469 -7.242188,-1.605469 z m 6.384765,5.375 h 2.761719 c 1.791998,0 3.298023,0.323593 4.517578,0.970703 1.244443,0.647111 2.178559,1.593448 2.800781,2.837891 0.622222,1.219554 0.933594,2.701138 0.933594,4.443359 0,1.76711 -0.311372,3.273135 -0.933594,4.517578 -0.622222,1.244444 -1.556338,2.188827 -2.800781,2.835938 -1.219555,0.647111 -2.72558,0.970703 -4.517578,0.970703 h -2.761719 z"
       style="-inkscape-font-specification:'HarmonyOS Sans Heavy';fill:#000000"
       id="path5" />
    <rect
       style="fill:#000000"
       id="rect3"
       width="0.1"
       height="0.1"
       x="114.9"
       y="124.9" />
    <rect
       style="fill:#000000"
       id="rect4"
       width="0.1"
       height="0.1"
       x="0"
       y="0" />
  </g>
  <g
     id="raise"
     style="display:inline">
    <rect
       style="display:inline;fill:#000000"
       id="rect5"
       width="0.1"
       height="0.1"
       x="114.9"
       y="124.9" />
    <rect
       style="display:inline;fill:#000000"
       id="rect6"
       width="0.1"
       height="0.1"
       x="0"
       y="0" />
    <path
       d="M 89.02964,1.97437 C 88.20219,1.60687 87.35687,2.45219 87.72437,3.27964 L 98.475,27.4847 c 0.3785,0.8521 1.6178,0.7551 1.8591,-0.1454 l 2.5477,-9.5082 c 0.0915,-0.3413 0.358,-0.6078 0.6993,-0.6993 l 9.5082,-2.5477 c 0.9006,-0.2413 0.9975,-1.4806 0.1454,-1.8591 z"
       style="clip-rule:evenodd;fill:#000000;fill-rule:evenodd"
       id="path1-5" />
    <path
       d="m 94,44 h -4.18937 c -0.66818,0 -1.00281,0.8079 -0.53033,1.2804 l 10.1893,10.1893 c 0.2929,0.2929 0.7678,0.2929 1.0607,0 L 110.7196,45.2804 C 111.1921,44.8079 110.8575,44 110.1893,44 H 106 V 32 H 94 Z"
       style="clip-rule:evenodd;fill:#000000;fill-rule:evenodd"
       id="path1-2" />
  </g>
</svg>
