<?xml version="1.0" encoding="UTF-8" standalone="no"?>
<svg
   width="115"
   height="125"
   viewBox="0 0 115 125"
   fill="none"
   version="1.1"
   id="svg3"
   xmlns="http://www.w3.org/2000/svg"
   xmlns:svg="http://www.w3.org/2000/svg">
  <defs
     id="defs3" />
  <path
     d="M 114.90039,0 V 0.09960937 H 115 V 0 Z"
     style="baseline-shift:baseline;display:inline;overflow:visible;vector-effect:none;fill:#000000;enable-background:accumulate;stop-color:#000000;stop-opacity:1"
     id="path13" />
  <path
     d="M 114.90039,124.90039 V 125 H 115 v -0.0996 z"
     style="baseline-shift:baseline;display:inline;overflow:visible;vector-effect:none;fill:#000000;enable-background:accumulate;stop-color:#000000;stop-opacity:1"
     id="path12" />
  <path
     d="M 0,124.90039 V 125 h 0.09960937 v -0.0996 z"
     style="baseline-shift:baseline;display:inline;overflow:visible;vector-effect:none;fill:#000000;enable-background:accumulate;stop-color:#000000;stop-opacity:1"
     id="path11" />
  <path
     d="M 0,0 V 0.09960937 H 0.09960937 V 0 Z"
     style="baseline-shift:baseline;display:inline;overflow:visible;vector-effect:none;fill:#000000;enable-background:accumulate;stop-color:#000000;stop-opacity:1"
     id="path10" />
  <path
     d="m 44.667969,51.1875 11.08789,27.328125 h 5.414063 L 71.958984,51.1875 H 65.050781 L 58.630859,69.480469 51.947266,51.1875 Z"
     style="-inkscape-font-specification:'HarmonyOS Sans Heavy';display:none;fill:#000000"
     id="path9" />
  <path
     d="m 36.808594,95.863281 c -2.314665,0 -4.317323,0.571909 -6.009766,1.716797 -1.667554,1.119999 -2.825545,2.750182 -3.472656,4.890622 l 4.779297,2.76368 c 0.348444,-1.16979 0.883692,-2.0775 1.605468,-2.72461 0.721778,-0.64711 1.554224,-0.97071 2.5,-0.97071 0.871111,0 1.569131,0.24832 2.091797,0.7461 0.547556,0.47288 0.820313,1.10785 0.820313,1.90429 0,0.84623 -0.348034,1.56674 -1.044922,2.16407 -0.672,0.59733 -1.606116,0.89648 -2.800781,0.89648 h -1.529297 v 5.15234 h 0.933594 c 1.74222,0 3.061032,0.26054 3.957031,0.78321 0.895999,0.52266 1.34375,1.3204 1.34375,2.39062 0,0.64712 -0.162773,1.19458 -0.486328,1.64258 -0.298667,0.448 -0.707803,0.79604 -1.230469,1.04492 -0.522666,0.224 -1.108749,0.33594 -1.755859,0.33594 -1.020444,0 -1.940386,-0.31137 -2.761719,-0.93359 -0.821333,-0.64712 -1.407415,-1.55483 -1.75586,-2.72461 l -5.001953,2.91211 c 0.721778,2.06578 1.916431,3.64512 3.583985,4.74023 1.692442,1.09511 3.733715,1.64258 6.123047,1.64258 1.866665,0 3.557951,-0.31137 5.076171,-0.9336 1.518222,-0.62222 2.712875,-1.54216 3.583985,-2.76171 0.895999,-1.21956 1.34375,-2.67475 1.34375,-4.36719 0,-1.59289 -0.396916,-2.9381 -1.19336,-4.0332 -0.796444,-1.09512 -1.929994,-1.92952 -3.398437,-2.50196 1.244443,-0.57244 2.178559,-1.36822 2.800781,-2.38867 0.647111,-1.04533 0.970703,-2.26442 0.970703,-3.6582 0,-1.49334 -0.386647,-2.82437 -1.158203,-3.994144 -0.746666,-1.169776 -1.817161,-2.079452 -3.210937,-2.726562 -1.368888,-0.672 -2.936015,-1.007813 -4.703125,-1.007813 z M 1.5683594,96.423828 V 123.75195 H 7.953125 v -10.26757 h 10.677734 v -5.5254 H 7.953125 v -5.97265 h 11.908203 v -5.562502 z"
     style="-inkscape-font-specification:'HarmonyOS Sans Heavy';display:none;fill:#000000"
     id="path8" />
  <path
     d="m 93.777344,6.3574219 v 5.7109371 l 11.945316,4.554688 -11.945316,4.554687 v 5.712891 L 113.48828,19.349609 V 13.898438 Z M 81.945312,23.455078 c -0.970665,0 -1.805064,0.360254 -2.501953,1.082031 -0.671999,0.696888 -1.007812,1.543508 -1.007812,2.539063 0,0.995555 0.335813,1.842174 1.007812,2.539062 0.696889,0.721777 1.531288,1.082032 2.501953,1.082032 0.995555,0 1.840221,-0.360255 2.53711,-1.082032 0.696888,-0.696888 1.046875,-1.543507 1.046875,-2.539062 0,-0.995555 -0.362208,-1.842175 -1.083985,-2.539063 -0.696888,-0.721777 -1.529334,-1.082031 -2.5,-1.082031 z"
     style="-inkscape-font-specification:'HarmonyOS Sans Heavy';display:inline;fill:#000000"
     id="path7" />
</svg>
