<?xml version="1.0" encoding="UTF-8" standalone="no"?>
<svg
   width="115"
   height="155"
   viewBox="0 0 115 155"
   fill="none"
   version="1.1"
   id="svg3"
   xmlns="http://www.w3.org/2000/svg"
   xmlns:svg="http://www.w3.org/2000/svg">
  <defs
     id="defs3" />
  <rect
     style="fill:#000000"
     id="side-top-boundary"
     width="0.1"
     height="0.1"
     x="1.5258789e-06"
     y="125" />
  <rect
     style="fill:#000000"
     id="side-bottom-boundary"
     width="0.1"
     height="0.1"
     x="114.9"
     y="154.89999" />
  <rect
     style="fill:#000000"
     id="surface-bottom-boundary"
     width="0.1"
     height="0.1"
     x="114.9"
     y="124.9" />
  <rect
     style="fill:#000000"
     id="surface-top-boundary"
     width="0.1"
     height="0.1"
     x="0"
     y="0" />
  <text
     xml:space="preserve"
     style="font-weight:900;font-size:29.3333px;line-height:0.9;font-family:'HarmonyOS Sans';-inkscape-font-specification:'HarmonyOS Sans Heavy';text-align:center;text-decoration-color:#000000;letter-spacing:5px;writing-mode:lr-tb;direction:ltr;text-anchor:middle;display:inline;fill:#000000"
     x="57.326649"
     y="148.9093"
     id="text3"><tspan
       id="tspan3"
       x="59.826649"
       y="148.9093"
       style="font-size:29.3333px">)</tspan></text>
  <text
     xml:space="preserve"
     style="font-weight:900;font-size:37.3333px;line-height:0.9;font-family:'HarmonyOS Sans';-inkscape-font-specification:'HarmonyOS Sans Heavy';text-align:center;text-decoration-color:#000000;letter-spacing:5px;writing-mode:lr-tb;direction:ltr;text-anchor:middle;display:inline;fill:#000000"
     x="24"
     y="122"
     id="text1"><tspan
       id="tspan1"
       x="26.499998"
       y="122">F6</tspan></text>
  <text
     xml:space="preserve"
     style="font-weight:900;font-size:37.3333px;line-height:0.9;font-family:'HarmonyOS Sans';-inkscape-font-specification:'HarmonyOS Sans Heavy';text-align:center;text-decoration-color:#000000;letter-spacing:5px;writing-mode:lr-tb;direction:ltr;text-anchor:middle;display:inline;fill:#000000"
     x="57"
     y="74.75"
     id="text2"><tspan
       id="tspan2"
       x="59.5"
       y="74.75">F</tspan></text>
  <rect
     style="display:inline;fill:#000000;stroke-width:1.95257"
     id="rect11"
     width="115"
     height="0.38124847"
     x="0"
     y="124.81406" />
  <g
     id="adjust"
     style="display:inline">
    <rect
       style="fill:#000000"
       id="rect9"
       width="0.1"
       height="0.1"
       x="1.5258789e-06"
       y="125" />
    <rect
       style="fill:#000000"
       id="rect10"
       width="0.1"
       height="0.1"
       x="114.9"
       y="154.89999" />
    <path
       d="m 51.796875,126 c 1.623109,1.97511 2.846636,4.01887 3.667969,6.13086 0.840888,2.09245 1.259765,4.57651 1.259765,7.45117 0,2.89422 -0.418877,5.39581 -1.259765,7.50781 -0.821333,2.112 -2.04486,4.13627 -3.667969,6.07227 h 4.693359 c 1.603554,-1.62311 2.866047,-3.59867 3.785157,-5.92578 0.91911,-2.32711 1.378906,-4.87741 1.378906,-7.6543 0,-2.75733 -0.459796,-5.29984 -1.378906,-7.62695 -0.91911,-2.34666 -2.181603,-4.33197 -3.785157,-5.95508 z"
       style="-inkscape-font-specification:'HarmonyOS Sans Heavy';fill:#000000"
       id="path6" />
  </g>
  <g
     id="lower"
     style="display:inline">
    <rect
       style="fill:#000000"
       id="rect7"
       width="0.1"
       height="0.1"
       x="114.9"
       y="124.9" />
    <rect
       style="fill:#000000"
       id="rect8"
       width="0.1"
       height="0.1"
       x="0"
       y="0" />
    <path
       d="m 39.435547,95.904297 -5.564453,8.699223 c -1.443554,2.24 -2.438773,4.01878 -2.986328,5.33789 -0.522666,1.31911 -0.783203,2.70097 -0.783204,4.14453 10e-7,1.91644 0.447751,3.60772 1.34375,5.07617 0.920888,1.44355 2.139983,2.56488 3.658204,3.36133 1.518221,0.82133 3.187019,1.23047 5.003906,1.23047 1.791998,0 3.446622,-0.39692 4.964844,-1.19336 1.54311,-0.77156 2.774424,-1.86649 3.695312,-3.28516 0.920888,-1.41867 1.38086,-3.02441 1.380859,-4.81641 0,-1.7671 -0.372474,-3.30979 -1.11914,-4.6289 -0.746666,-1.344 -1.79272,-2.36561 -3.136719,-3.0625 -1.319109,-0.72178 -2.849575,-1.08203 -4.591797,-1.08203 -0.572444,0 -1.156573,0.0611 -1.753906,0.18554 l 0.521484,-0.67187 c 0.04978,-0.0747 0.399765,-0.5713 1.046875,-1.49219 l 5.152344,-7.802733 z m -35.1289064,0.03711 v 27.328123 h 6.3847654 v -10.26758 h 10.675781 v -5.52539 H 10.691406 v -5.97265 H 22.599609 V 95.941406 Z M 40.068359,110.94922 c 0.647111,0 1.220973,0.1486 1.71875,0.44726 0.522667,0.27378 0.919582,0.68487 1.19336,1.23243 0.273777,0.52266 0.412109,1.13319 0.412109,1.83007 0,0.6969 -0.138332,1.31964 -0.412109,1.86719 -0.273778,0.54756 -0.670693,0.98309 -1.19336,1.30664 -0.497777,0.29867 -1.071639,0.44727 -1.71875,0.44727 -0.64711,0 -1.231239,-0.1486 -1.753906,-0.44727 -0.497777,-0.29866 -0.896646,-0.72198 -1.195312,-1.26953 -0.273778,-0.54755 -0.410157,-1.1703 -0.410157,-1.86719 0,-0.69689 0.136379,-1.31963 0.410157,-1.86718 0.298666,-0.54756 0.697535,-0.95865 1.195312,-1.23243 0.522667,-0.29866 1.106796,-0.44726 1.753906,-0.44726 z"
       style="-inkscape-font-specification:'HarmonyOS Sans Heavy';fill:#000000"
       id="path5" />
  </g>
  <g
     id="base"
     style="display:inline">
    <rect
       style="fill:#000000"
       id="rect3"
       width="0.1"
       height="0.1"
       x="114.9"
       y="124.9" />
    <rect
       style="fill:#000000"
       id="rect4"
       width="0.1"
       height="0.1"
       x="0"
       y="0" />
    <path
       d="m 51.267578,48.691406 v 27.328125 h 6.384766 V 65.751953 H 68.330078 V 60.226562 H 57.652344 v -5.972656 h 11.908203 v -5.5625 z"
       style="-inkscape-font-specification:'HarmonyOS Sans Heavy';fill:#000000"
       id="path4" />
  </g>
  <g
     id="raise"
     style="display:inline">
    <rect
       style="display:inline;fill:#000000"
       id="rect5"
       width="0.1"
       height="0.1"
       x="114.9"
       y="124.9" />
    <rect
       style="display:inline;fill:#000000"
       id="rect6"
       width="0.1"
       height="0.1"
       x="0"
       y="0" />
    <path
       d="M 61.44854,0.84257 C 60.62109,0.47507 59.77577,1.32039 60.14327,2.14784 L 70.8939,26.3529 c 0.3785,0.8521 1.6178,0.7551 1.8591,-0.1454 l 2.5477,-9.5082 C 75.3922,16.358 75.6587,16.0915 76,16 l 9.5082,-2.5477 c 0.9006,-0.2413 0.9975,-1.4806 0.1454,-1.8591 z"
       style="clip-rule:evenodd;fill:#000000;fill-rule:evenodd"
       id="path1-5" />
    <path
       d="M 102,7 V 2.81063 c 0,-0.66818 0.8079,-1.00281 1.2804,-0.53033 l 10.1893,10.1893 c 0.2929,0.2929 0.2929,0.7678 0,1.0607 L 103.2804,23.7196 C 102.8079,24.1921 102,23.8575 102,23.1893 V 19 H 90 V 7 Z"
       style="clip-rule:evenodd;fill:#000000;fill-rule:evenodd"
       id="path1-2" />
  </g>
</svg>
