<?xml version="1.0" encoding="UTF-8" standalone="no"?>
<svg
   width="115"
   height="125"
   viewBox="0 0 115 125"
   fill="none"
   version="1.1"
   id="svg3"
   xmlns="http://www.w3.org/2000/svg"
   xmlns:svg="http://www.w3.org/2000/svg">
  <defs
     id="defs3" />
  <path
     d="m 31.525391,95.722656 c -2.289776,0 -4.294387,0.608571 -6.011719,1.828125 -1.717332,1.194666 -2.924206,2.949009 -3.621094,5.263669 l 4.927734,2.875 c 0.423111,-1.36888 0.984753,-2.38854 1.681641,-3.06054 0.696889,-0.69689 1.504893,-1.04493 2.425781,-1.04493 0.846222,0 1.505627,0.27276 1.978516,0.82032 0.472889,0.54755 0.708984,1.24361 0.708984,2.08984 0,0.84622 -0.260536,1.69284 -0.783203,2.53906 -0.522666,0.84622 -1.444562,1.992 -2.763672,3.43555 l -7.988281,8.99609 v 4.14454 h 19.488281 v -5.5254 H 31.263672 l 3.957031,-4.4414 c 1.941331,-2.09066 3.274317,-3.79612 3.996094,-5.11524 0.746666,-1.344 1.11914,-2.80114 1.11914,-4.36914 10e-7,-1.54311 -0.335813,-2.94746 -1.007812,-4.216794 -0.671999,-1.294221 -1.679438,-2.315834 -3.023438,-3.0625 -1.31911,-0.771554 -2.912632,-1.15625 -4.779296,-1.15625 z M 1.1367187,96.28125 v 27.32813 H 7.5195312 V 113.34375 H 18.197266 v -5.52539 H 7.5195312 v -5.97461 H 19.429687 v -5.5625 z"
     style="-inkscape-font-specification:'HarmonyOS Sans Heavy';baseline-shift:baseline;display:inline;overflow:visible;vector-effect:none;fill:#000000;enable-background:accumulate;stop-color:#000000;stop-opacity:1"
     id="path1" />
  <rect
     style="fill:#000000"
     id="rect1"
     width="0.1"
     height="0.1"
     x="114.9"
     y="0" />
  <rect
     style="fill:#000000"
     id="rect1-3"
     width="0.1"
     height="0.1"
     x="114.9"
     y="124.9" />
  <rect
     style="fill:#000000"
     id="rect1-6"
     width="0.1"
     height="0.1"
     x="0"
     y="124.9" />
  <rect
     style="fill:#000000"
     id="rect1-7"
     width="0.1"
     height="0.1"
     x="0"
     y="0" />
</svg>
