<?xml version="1.0" encoding="UTF-8" standalone="no"?>
<svg
   width="115"
   height="155"
   viewBox="0 0 115 155"
   fill="none"
   version="1.1"
   id="svg3"
   xmlns="http://www.w3.org/2000/svg"
   xmlns:svg="http://www.w3.org/2000/svg">
  <defs
     id="defs3" />
  <rect
     style="fill:#000000"
     id="side-top-boundary"
     width="0.1"
     height="0.1"
     x="1.5258789e-06"
     y="125" />
  <rect
     style="fill:#000000"
     id="side-bottom-boundary"
     width="0.1"
     height="0.1"
     x="114.9"
     y="154.89999" />
  <rect
     style="fill:#000000"
     id="surface-bottom-boundary"
     width="0.1"
     height="0.1"
     x="114.9"
     y="124.9" />
  <rect
     style="fill:#000000"
     id="surface-top-boundary"
     width="0.1"
     height="0.1"
     x="0"
     y="0" />
  <rect
     style="display:inline;fill:#000000;stroke-width:1.95257"
     id="rect11"
     width="115"
     height="0.38124847"
     x="0"
     y="124.81406" />
  <g
     id="adjust"
     style="display:inline">
    <rect
       style="fill:#000000"
       id="rect9"
       width="0.1"
       height="0.1"
       x="1.5258789e-06"
       y="125" />
    <rect
       style="fill:#000000"
       id="rect10"
       width="0.1"
       height="0.1"
       x="114.9"
       y="154.89999" />
    <path
       d="m 51.753906,139.05273 v 3.99024 h 11.175781 v -3.99024 z"
       style="-inkscape-font-specification:'HarmonyOS Sans Heavy';fill:#000000"
       id="path17" />
  </g>
  <g
     id="lower"
     style="display:inline">
    <rect
       style="fill:#000000"
       id="rect7"
       width="0.1"
       height="0.1"
       x="114.9"
       y="124.9" />
    <rect
       style="fill:#000000"
       id="rect8"
       width="0.1"
       height="0.1"
       x="0"
       y="0" />
    <path
       d="m 2.705078,95 v 27.32812 h 6.384766 v -10.26758 h 10.677734 v -5.52539 H 9.089844 V 100.5625 H 21 V 95 Z"
       style="-inkscape-font-specification:'HarmonyOS Sans Heavy';fill:#000000"
       id="path15" />
    <path
       d="m 56.271484,94.513672 c -3.185775,0 -5.662578,1.206873 -7.429688,3.621093 -1.74222,2.414225 -2.613281,5.937085 -2.613281,10.566415 0,4.62933 0.871061,8.15023 2.613281,10.56445 1.767111,2.38934 4.243913,3.58399 7.429688,3.58399 3.185775,0 5.638137,-1.20687 7.35547,-3.6211 1.74222,-2.41422 2.613281,-5.9229 2.613281,-10.52734 0,-4.62933 -0.871061,-8.15219 -2.613281,-10.566415 -1.717332,-2.41422 -4.169694,-3.621093 -7.35547,-3.621093 z M 36.498046,95 27.949218,99.779292 v 5.972668 l 7.09375,-3.91992 v 20.5332 h 6.458985 V 95 Z m 19.773438,5.375 c 1.119999,0 1.929958,0.68581 2.427734,2.05469 0.522667,1.36889 0.783203,3.45905 0.783203,6.27149 0,2.78755 -0.260536,4.8777 -0.783203,6.27148 -0.497776,1.36889 -1.307735,2.05469 -2.427734,2.05469 -1.119999,0 -1.952444,-0.6858 -2.5,-2.05469 -0.522666,-1.36888 -0.785156,-3.45903 -0.785156,-6.27148 0,-2.86222 0.27471,-4.9646 0.822265,-6.30859 0.547556,-1.34401 1.367781,-2.01759 2.462891,-2.01759 z"
       style="-inkscape-font-specification:'HarmonyOS Sans Heavy';fill:#000000"
       id="path16" />
  </g>
  <g
     id="base"
     style="display:inline">
    <rect
       style="fill:#000000"
       id="rect3"
       width="0.1"
       height="0.1"
       x="114.9"
       y="124.9" />
    <rect
       style="fill:#000000"
       id="rect4"
       width="0.1"
       height="0.1"
       x="0"
       y="0" />
    <path
       d="m 61.03125,48.167969 c -2.563553,0 -4.891757,0.586082 -6.982422,1.755859 -2.090665,1.144888 -3.745289,2.787292 -4.964844,4.927734 -1.219554,2.140443 -1.830078,4.629466 -1.830078,7.466797 0,2.762664 0.573863,5.227247 1.71875,7.392578 1.169778,2.140443 2.799961,3.807288 4.890625,5.001954 2.090665,1.194665 4.504412,1.791015 7.242188,1.791015 2.314664,0 4.42926,-0.42331 6.345703,-1.269531 1.941331,-0.846221 3.347639,-1.990039 4.21875,-3.433594 V 60.451172 H 60.619141 v 5.451172 h 4.853515 v 3.470703 c -0.472888,0.472888 -1.044797,0.822875 -1.716797,1.046875 -0.671999,0.224 -1.431121,0.335937 -2.277343,0.335937 -1.518221,0 -2.861474,-0.335813 -4.03125,-1.007812 -1.144888,-0.672 -2.028169,-1.642778 -2.650391,-2.91211 -0.622221,-1.269332 -0.933594,-2.775357 -0.933594,-4.517578 0,-1.692443 0.311373,-3.174027 0.933594,-4.443359 0.622222,-1.269333 1.466888,-2.24011 2.537109,-2.912109 1.070222,-0.672 2.264875,-1.007813 3.583985,-1.007813 1.269332,0 2.378441,0.323593 3.324218,0.970703 0.945777,0.622222 1.678506,1.529944 2.201172,2.72461 l 5.302735,-3.060547 C 71.372761,53.395178 70.686961,52.312463 69.691406,51.341797 68.695852,50.371131 67.452316,49.599788 65.958984,49.027344 64.490541,48.4549 62.848137,48.167969 61.03125,48.167969 Z"
       style="-inkscape-font-specification:'HarmonyOS Sans Heavy';fill:#000000"
       id="path7" />
  </g>
  <g
     id="raise"
     style="display:inline">
    <rect
       style="display:inline;fill:#000000"
       id="rect5"
       width="0.1"
       height="0.1"
       x="114.9"
       y="124.9" />
    <rect
       style="display:inline;fill:#000000"
       id="rect6"
       width="0.1"
       height="0.1"
       x="0"
       y="0" />
    <path
       d="M 65.69444,6.11642 C 64.86699,5.74892 64.02167,6.59424 64.38917,7.42169 L 75.1398,31.62675 c 0.3785,0.8521 1.6178,0.7551 1.8591,-0.1454 l 2.5477,-9.5082 c 0.0915,-0.3413 0.358,-0.6078 0.6993,-0.6993 l 9.5082,-2.5477 c 0.9006,-0.2413 0.9975,-1.4806 0.1454,-1.8591 z"
       style="clip-rule:evenodd;fill:#000000;fill-rule:evenodd"
       id="path1-5" />
    <path
       d="m 102.8924,26.6724 -4.9807,-4.9807 c -0.286,-0.286 -0.7162,-0.3716 -1.0898,-0.2168 -0.3737,0.1548 -0.6173,0.5194 -0.6173,0.9239 v 14.39249 c 0,0.55228 0.4477,1 1,1 h 14.39246 c 0.40446,0 0.7691,-0.24365 0.92388,-0.61732 0.15478,-0.37368 0.0692,-0.80379 -0.21677,-1.08979 L 107.1901,30.9701 c 2.37048,-3.022 3.80779,-6.814 3.80779,-10.9701 0,-7.8837 -5.13749,-14.5396 -12.23109,-16.8928 C 98.5147,3.0235 98.2396,3.0436 98.0023,3.163 97.7651,3.2825 97.5851,3.4914 97.502,3.7437 l -1.2473,3.79 C 96.082,8.0583 96.3673,8.6235 96.8919,8.7962 101.5959,10.3445 105,14.7841 105,20 c 0,2.4877 -0.7877,4.7709 -2.1076,6.6724 z"
       style="clip-rule:evenodd;display:inline;fill:#000000;fill-rule:evenodd"
       id="path1" />
  </g>
</svg>
