<?xml version="1.0" encoding="UTF-8" standalone="no"?>
<svg
   width="115"
   height="155"
   viewBox="0 0 115 155"
   fill="none"
   version="1.1"
   id="svg3"
   sodipodi:docname="h.svgz"
   inkscape:version="1.4 (e7c3feb100, 2024-10-09)"
   inkscape:export-filename="a.svg"
   inkscape:export-xdpi="96"
   inkscape:export-ydpi="96"
   xmlns:inkscape="http://www.inkscape.org/namespaces/inkscape"
   xmlns:sodipodi="http://sodipodi.sourceforge.net/DTD/sodipodi-0.dtd"
   xmlns="http://www.w3.org/2000/svg"
   xmlns:svg="http://www.w3.org/2000/svg">
  <sodipodi:namedview
     id="namedview1"
     pagecolor="#ffffff"
     bordercolor="#000000"
     borderopacity="0.25"
     inkscape:showpageshadow="2"
     inkscape:pageopacity="0.0"
     inkscape:pagecheckerboard="0"
     inkscape:deskcolor="#d1d1d1"
     inkscape:zoom="4"
     inkscape:cx="-12"
     inkscape:cy="70.875"
     inkscape:window-width="1920"
     inkscape:window-height="1008"
     inkscape:window-x="0"
     inkscape:window-y="0"
     inkscape:window-maximized="1"
     inkscape:current-layer="adjust"
     showgrid="true">
    <inkscape:grid
       id="grid1"
       units="px"
       originx="0"
       originy="0"
       spacingx="1"
       spacingy="1"
       empcolor="#0099e5"
       empopacity="0.30196078"
       color="#0099e5"
       opacity="0.14901961"
       empspacing="5"
       enabled="true"
       visible="true" />
    <inkscape:page
       x="0"
       y="0"
       width="115"
       height="155"
       id="page2"
       margin="0"
       bleed="0" />
  </sodipodi:namedview>
  <defs
     id="defs3" />
  <rect
     style="fill:#000000"
     id="side-top-boundary"
     width="0.1"
     height="0.1"
     x="1.5258789e-06"
     y="125" />
  <rect
     style="fill:#000000"
     id="side-bottom-boundary"
     width="0.1"
     height="0.1"
     x="114.9"
     y="154.89999" />
  <rect
     style="fill:#000000"
     id="surface-bottom-boundary"
     width="0.1"
     height="0.1"
     x="114.9"
     y="124.9" />
  <rect
     style="fill:#000000"
     id="surface-top-boundary"
     width="0.1"
     height="0.1"
     x="0"
     y="0" />
  <rect
     style="fill:#000000;stroke-width:1.95257"
     id="rect11"
     width="115"
     height="0.38124847"
     x="0"
     y="124.81406"
     inkscape:label="divider" />
  <g
     inkscape:groupmode="layer"
     id="adjust"
     inkscape:label="adjust"
     style="display:inline">
    <rect
       style="fill:#000000"
       id="rect9"
       width="0.1"
       height="0.1"
       x="1.5258789e-06"
       y="125" />
    <rect
       style="fill:#000000"
       id="rect10"
       width="0.1"
       height="0.1"
       x="114.9"
       y="154.89999" />
    <path
       d="m 49.644531,132.54883 v 5.33984 h 19.710938 v -5.33984 z m 0,8.99804 v 5.3379 h 19.710938 v -5.3379 z"
       style="-inkscape-font-specification:'HarmonyOS Sans Heavy';fill:#000000"
       id="path7" />
  </g>
  <g
     inkscape:groupmode="layer"
     id="lower"
     inkscape:label="lower"
     style="display:inline">
    <rect
       style="fill:#000000"
       id="rect7"
       width="0.1"
       height="0.1"
       x="114.9"
       y="124.9" />
    <rect
       style="fill:#000000"
       id="rect8"
       width="0.1"
       height="0.1"
       x="0"
       y="0" />
    <path
       d="m 2.515625,105.20313 v 5.33789 h 19.710937 v -5.33789 z m 0,8.99609 v 5.33984 h 19.710937 v -5.33984 z"
       style="-inkscape-font-specification:'HarmonyOS Sans Heavy';fill:#000000"
       id="path6" />
  </g>
  <g
     inkscape:groupmode="layer"
     id="base"
     inkscape:label="base"
     style="display:inline">
    <rect
       style="fill:#000000"
       id="rect3"
       width="0.1"
       height="0.1"
       x="114.9"
       y="124.9" />
    <rect
       style="fill:#000000"
       id="rect4"
       width="0.1"
       height="0.1"
       x="0"
       y="0" />
    <path
       d="M 47.460937,48.691406 V 76.019531 H 53.84375 V 64.669922 h 11.275391 v 11.349609 h 6.382812 V 48.691406 H 65.119141 V 59.033203 H 53.84375 V 48.691406 Z"
       style="-inkscape-font-specification:'HarmonyOS Sans Heavy';fill:#000000"
       id="path5" />
  </g>
  <g
     inkscape:groupmode="layer"
     id="raise"
     inkscape:label="raise"
     style="display:inline">
    <rect
       style="display:inline;fill:#000000"
       id="rect5"
       width="0.1"
       height="0.1"
       x="114.9"
       y="124.9" />
    <rect
       style="display:inline;fill:#000000"
       id="rect6"
       width="0.1"
       height="0.1"
       x="0"
       y="0" />
    <path
       d="M 30.759766,0.6640625 V 24.087891 h 5.472656 v -7.552735 h 3.007812 c 1.984,0 3.689808,-0.318984 5.119141,-0.958984 1.450667,-0.661333 2.560125,-1.57862 3.328125,-2.751953 0.789333,-1.194667 1.183594,-2.603276 1.183594,-4.2246096 0,-1.6 -0.394261,-2.9967396 -1.183594,-4.1914063 C 46.9195,3.2135365 45.810042,2.29625 44.359375,1.65625 42.908708,0.99491667 41.202901,0.6640625 39.240234,0.6640625 Z m 42.607421,0 V 24.087891 h 8.449219 c 2.304,0 4.384235,-0.457667 6.240235,-1.375 1.856,-0.938667 3.316145,-2.293787 4.382812,-4.064454 1.066667,-1.770666 1.59961,-3.872687 1.599609,-6.304687 0,-2.432 -0.542859,-4.522151 -1.630859,-6.2714844 -1.066667,-1.7706666 -2.528765,-3.1158698 -4.384766,-4.0332031 -1.856,-0.9173333 -3.924364,-1.375 -6.207031,-1.375 z M 36.232422,5.2714844 h 2.40039 c 1.322667,0 2.398469,0.2674479 3.230469,0.8007812 0.832,0.512 1.248047,1.3540104 1.248047,2.5273438 0,1.1946666 -0.416047,2.0485466 -1.248047,2.5605466 -0.810666,0.512 -1.886469,0.767578 -3.230469,0.767578 h -2.40039 z m 42.607422,0 h 2.36914 c 1.536,0 2.825761,0.2773646 3.871094,0.8320312 1.066667,0.5546667 1.867057,1.364974 2.400391,2.4316407 0.533333,1.0453333 0.798828,2.3152607 0.798828,3.8085937 0,1.514667 -0.265495,2.80638 -0.798828,3.873047 -0.533334,1.066667 -1.333724,1.876974 -2.400391,2.43164 -1.045333,0.554667 -2.335094,0.832032 -3.871094,0.832032 h -2.36914 z M 58.640625,7.0957031 c -1.365333,0 -2.657047,0.3407709 -3.873047,1.0234375 -1.194667,0.6826667 -2.153573,1.687099 -2.878906,3.0097654 -0.725333,1.322667 -1.087891,2.879875 -1.087891,4.671875 0,1.792 0.362558,3.349209 1.087891,4.671875 0.746667,1.301334 1.717443,2.291943 2.912109,2.97461 1.194667,0.704 2.474511,1.05664 3.839844,1.05664 1.109333,0 2.090026,-0.245661 2.943359,-0.736328 0.594237,-0.32683 1.111144,-0.791491 1.560547,-1.376953 -0.03881,0.95429 -0.118913,1.800482 -0.28125,2.433594 -0.213333,0.832 -0.61751,1.471922 -1.214844,1.919922 -0.575999,0.448 -1.419963,0.671875 -2.529296,0.671875 -0.96,0 -1.780224,-0.202089 -2.462891,-0.607422 -0.661333,-0.384 -1.194276,-0.950599 -1.599609,-1.697266 l -3.9375,2.304688 c 0.618666,1.386666 1.623099,2.474338 3.009765,3.263671 1.408,0.810667 3.070235,1.216797 4.990235,1.216797 2.666666,0 4.875666,-0.778604 6.625,-2.335937 1.770666,-1.557333 2.65625,-4.043698 2.65625,-7.457031 V 7.5449219 h -4.640625 c -0.02133,0.768 -0.09661,1.5129479 -0.22461,2.2382812 -0.554666,-0.9173333 -1.248078,-1.5889583 -2.080078,-2.015625 -0.832,-0.448 -1.76912,-0.671875 -2.814453,-0.671875 z m 49.710935,0 c -1.17333,0 -2.20751,0.2456615 -3.10351,0.7363281 -0.896,0.4906667 -1.6112,1.2474844 -2.14453,2.2714848 -0.10667,-0.5333337 -0.20178,-1.3852608 -0.28711,-2.5585941 H 98.175781 V 24.087891 h 5.216799 v -7.808594 c 0,-0.981333 0.11689,-1.813427 0.35156,-2.496094 0.256,-0.682667 0.60864,-1.203739 1.05664,-1.566406 0.448,-0.362667 0.99086,-0.544922 1.63086,-0.544922 0.98133,0 1.67475,0.384344 2.08008,1.152344 0.40533,0.768 0.60742,1.845755 0.60742,3.232422 v 8.03125 h 5.2168 v -9.791016 c 0,-2.368 -0.53295,-4.160953 -1.59961,-5.3769531 -1.06667,-1.216 -2.52877,-1.8242188 -4.38477,-1.8242188 z M 59.664062,11.671875 c 0.661334,0 1.247766,0.148599 1.759766,0.447266 0.533333,0.298666 0.959297,0.758286 1.279297,1.376953 0.32,0.597333 0.480469,1.366021 0.480469,2.304687 0,0.938667 -0.160469,1.737104 -0.480469,2.398438 -0.32,0.64 -0.745964,1.121406 -1.279297,1.441406 -0.533333,0.32 -1.119766,0.478516 -1.759766,0.478516 -0.682666,0 -1.290885,-0.170386 -1.824218,-0.511719 -0.512,-0.362667 -0.916177,-0.873823 -1.214844,-1.535156 -0.298667,-0.661334 -0.449219,-1.418151 -0.449219,-2.271485 0,-0.874666 0.138683,-1.611651 0.416016,-2.208984 0.298667,-0.618667 0.714713,-1.088203 1.248047,-1.408203 0.533333,-0.341334 1.141552,-0.511719 1.824218,-0.511719 z"
       style="-inkscape-font-specification:'HarmonyOS Sans Heavy';fill:#000000"
       id="path4" />
  </g>
</svg>
