<?xml version="1.0" encoding="UTF-8" standalone="no"?>
<svg
   width="115"
   height="155"
   viewBox="0 0 115 155"
   fill="none"
   version="1.1"
   id="svg3"
   xmlns="http://www.w3.org/2000/svg"
   xmlns:svg="http://www.w3.org/2000/svg">
  <defs
     id="defs3" />
  <rect
     style="fill:#000000"
     id="side-top-boundary"
     width="0.1"
     height="0.1"
     x="1.5258789e-06"
     y="125" />
  <rect
     style="fill:#000000"
     id="side-bottom-boundary"
     width="0.1"
     height="0.1"
     x="114.9"
     y="154.89999" />
  <rect
     style="fill:#000000"
     id="surface-bottom-boundary"
     width="0.1"
     height="0.1"
     x="114.9"
     y="124.9" />
  <rect
     style="fill:#000000"
     id="surface-top-boundary"
     width="0.1"
     height="0.1"
     x="0"
     y="0" />
  <rect
     style="display:inline;fill:#000000;stroke-width:1.95257"
     id="rect11"
     width="115"
     height="0.38124847"
     x="0"
     y="124.81406" />
  <g
     id="adjust"
     style="display:inline">
    <rect
       style="fill:#000000"
       id="rect9"
       width="0.1"
       height="0.1"
       x="1.5258789e-06"
       y="125" />
    <rect
       style="fill:#000000"
       id="rect10"
       width="0.1"
       height="0.1"
       x="114.9"
       y="154.89999" />
    <path
       d="m 49.582031,131.2207 v 4.48828 l 9.386719,3.57813 -9.386719,3.58008 v 4.48828 l 15.488281,-5.92578 v -4.28321 z"
       style="-inkscape-font-specification:'HarmonyOS Sans Heavy';fill:#000000"
       id="path21" />
  </g>
  <g
     id="lower"
     style="display:inline">
    <rect
       style="fill:#000000"
       id="rect7"
       width="0.1"
       height="0.1"
       x="114.9"
       y="124.9" />
    <rect
       style="fill:#000000"
       id="rect8"
       width="0.1"
       height="0.1"
       x="0"
       y="0" />
    <path
       d="M 22.5,106 0,115 22.5,124 20,118 h 18.5 v -6 H 20 Z"
       style="baseline-shift:baseline;display:inline;overflow:visible;vector-effect:none;fill:#000000;enable-background:accumulate;stop-color:#000000;stop-opacity:1"
       id="path22" />
  </g>
  <g
     id="base"
     style="display:inline">
    <rect
       style="fill:#000000"
       id="rect3"
       width="0.1"
       height="0.1"
       x="114.9"
       y="124.9" />
    <rect
       style="fill:#000000"
       id="rect4"
       width="0.1"
       height="0.1"
       x="0"
       y="0" />
    <path
       d="M 61.048828,48.691406 V 65.15625 c 0,1.916443 -0.236096,3.320798 -0.708984,4.216797 -0.448,0.87111 -1.256005,1.308594 -2.425782,1.308594 -0.920887,0 -1.655569,-0.274711 -2.203125,-0.822266 -0.522665,-0.572443 -0.921535,-1.419063 -1.195312,-2.539063 l -5.337891,2.800782 c 0.497778,2.165331 1.517438,3.771073 3.060547,4.816406 1.567999,1.045332 3.434278,1.566406 5.59961,1.566406 2.787553,0 5.077142,-0.832446 6.86914,-2.5 1.816888,-1.667554 2.726563,-4.406847 2.726563,-8.214844 V 48.691406 Z"
       style="-inkscape-font-specification:'HarmonyOS Sans Heavy';fill:#000000"
       id="path20" />
  </g>
  <g
     id="raise"
     style="display:inline">
    <rect
       style="display:inline;fill:#000000"
       id="rect5"
       width="0.1"
       height="0.1"
       x="114.9"
       y="124.9" />
    <rect
       style="display:inline;fill:#000000"
       id="rect6"
       width="0.1"
       height="0.1"
       x="0"
       y="0" />
    <path
       d="m 102,40 -9.033206,17.658203 v 4.369141 h 11.535156 v 5.33789 h 6.19727 v -5.33789 h 3.6582 v -5.451172 h -3.6582 v -5.78711 h -6.19727 v 5.78711 h -4.44336 L 108.60937,40 Z"
       style="-inkscape-font-specification:'HarmonyOS Sans Heavy';fill:#000000"
       id="path19" />
    <path
       d="M 102,0 V 4.7792969 C 99.73511,5.202408 97.86883,6.097909 96.400388,7.466797 c -1.468443,1.368887 -2.203125,3.210726 -2.203125,5.52539 0,1.518222 0.372475,2.788151 1.119141,3.808594 0.746666,1.020444 1.680783,1.816228 2.800786,2.388672 1.12,0.572444 2.47547,1.08325 4.06836,1.53125 v 5.972656 c -0.89601,-0.273777 -1.66735,-0.721528 -2.31446,-1.34375 -0.64711,-0.64711 -1.24346,-1.493729 -1.79101,-2.539062 l -4.779301,2.724609 c 0.597333,1.96622 1.680048,3.559742 3.248047,4.779297 1.568004,1.194666 3.385394,1.966009 5.451174,2.314453 v 5.041016 h 5.22656 v -5.078125 c 2.24,-0.373333 4.08184,-1.232173 5.52539,-2.576172 1.46844,-1.343999 2.20117,-3.210278 2.20117,-5.599609 0,-1.518221 -0.37247,-2.77593 -1.11914,-3.771485 -0.72178,-1.020443 -1.64172,-1.816228 -2.76172,-2.388672 -1.12,-0.572444 -2.4652,-1.08325 -4.0332,-1.53125 v -5.898437 c 0.672,0.248889 1.25808,0.635537 1.75586,1.158203 0.49778,0.497777 0.93331,1.132742 1.30664,1.904297 L 114.99219,11.125 C 114.56907,9.432557 113.6594,8.03847 112.26562,6.943359 110.87185,5.823361 109.19278,5.090632 107.22656,4.7421875 V 0 Z m 0.18555,10.527344 v 4.667968 c -0.47289,-0.19911 -0.86981,-0.410765 -1.19336,-0.634765 -0.32356,-0.224 -0.58605,-0.48649 -0.78516,-0.785156 -0.17422,-0.323556 -0.26172,-0.671589 -0.26172,-1.044922 0,-0.572444 0.19943,-1.032416 0.59766,-1.38086 0.39822,-0.373333 0.94569,-0.648043 1.64258,-0.822265 z m 4.85351,11.759765 c 0.448,0.174222 0.83465,0.385877 1.1582,0.634766 0.32356,0.224 0.57188,0.49871 0.7461,0.822266 0.17422,0.298666 0.26172,0.634479 0.26172,1.007812 0,0.547555 -0.18722,0.995306 -0.56055,1.34375 -0.37333,0.348444 -0.90858,0.596761 -1.60547,0.746094 z"
       style="-inkscape-font-specification:'HarmonyOS Sans Heavy';fill:#000000;stroke-width:6.5"
       id="path4" />
  </g>
</svg>
