<?xml version="1.0" encoding="UTF-8" standalone="no"?>
<svg
   width="115"
   height="155"
   viewBox="0 0 115 155"
   fill="none"
   version="1.1"
   id="svg3"
   xmlns="http://www.w3.org/2000/svg"
   xmlns:svg="http://www.w3.org/2000/svg">
  <defs
     id="defs3" />
  <rect
     style="fill:#000000"
     id="side-top-boundary"
     width="0.1"
     height="0.1"
     x="1.5258789e-06"
     y="125" />
  <rect
     style="fill:#000000"
     id="side-bottom-boundary"
     width="0.1"
     height="0.1"
     x="114.9"
     y="154.89999" />
  <rect
     style="fill:#000000"
     id="surface-bottom-boundary"
     width="0.1"
     height="0.1"
     x="114.9"
     y="124.9" />
  <rect
     style="fill:#000000"
     id="surface-top-boundary"
     width="0.1"
     height="0.1"
     x="0"
     y="0" />
  <rect
     style="display:inline;fill:#000000;stroke-width:1.95257"
     id="rect11"
     width="115"
     height="0.38124847"
     x="0"
     y="124.81406" />
  <g
     id="adjust"
     style="display:inline">
    <rect
       style="fill:#000000"
       id="rect9"
       width="0.1"
       height="0.1"
       x="1.5258789e-06"
       y="125" />
    <rect
       style="fill:#000000"
       id="rect10"
       width="0.1"
       height="0.1"
       x="114.9"
       y="154.89999" />
    <path
       d="m 61.433594,126 c -1.427554,0 -2.600421,0.1656 -3.519532,0.49805 -0.899553,0.33244 -1.585354,0.93836 -2.054687,1.81836 -0.469333,0.87999 -0.703125,2.12301 -0.703125,3.72656 v 1.75976 c 0,0.80178 -0.107155,1.43692 -0.322266,1.90625 -0.195555,0.44978 -0.538455,0.78294 -1.027343,0.99805 -0.469334,0.21511 -1.143439,0.36123 -2.023438,0.43945 v 4.86914 c 0.860443,0.0782 1.524808,0.22434 1.994141,0.43946 0.488888,0.19555 0.84153,0.52871 1.05664,0.99804 0.215111,0.44978 0.322266,1.08492 0.322266,1.90625 v 1.75977 c 0,1.60355 0.233792,2.84656 0.703125,3.72656 0.469333,0.88 1.155133,1.48592 2.054687,1.81836 0.919111,0.33245 2.091978,0.49805 3.519532,0.49805 h 1.730468 v -4.33984 h -0.763671 c -0.879999,0 -1.505398,-0.22601 -1.876954,-0.67579 -0.371555,-0.44978 -0.55664,-1.25052 -0.55664,-2.40429 v -1.11524 c 0,-1.408 -0.255229,-2.52241 -0.763672,-3.34375 -0.488889,-0.84088 -1.27989,-1.40784 -2.375,-1.70117 1.09511,-0.29333 1.886111,-0.85054 2.375,-1.67187 0.508443,-0.84089 0.763672,-1.967 0.763672,-3.375 v -1.11329 c 0,-1.15378 0.185085,-1.95647 0.55664,-2.40625 0.371556,-0.44978 0.996955,-0.67382 1.876954,-0.67382 h 0.763671 V 126 Z"
       style="-inkscape-font-specification:'HarmonyOS Sans Heavy';fill:#000000"
       id="path4" />
  </g>
  <g
     id="lower"
     style="display:inline">
    <rect
       style="fill:#000000"
       id="rect7"
       width="0.1"
       height="0.1"
       x="114.9"
       y="124.9" />
    <rect
       style="fill:#000000"
       id="rect8"
       width="0.1"
       height="0.1"
       x="0"
       y="0" />
    <path
       d="m 2.5,100.75 9,22.5 9,-22.5 -6,2.5 v -18.5 h -6 v 18.5 z"
       style="baseline-shift:baseline;display:inline;overflow:visible;vector-effect:none;fill:#000000;enable-background:accumulate;stop-color:#000000;stop-opacity:1"
       id="path22" />
  </g>
  <g
     id="base"
     style="display:inline">
    <rect
       style="fill:#000000"
       id="rect3"
       width="0.1"
       height="0.1"
       x="114.9"
       y="124.9" />
    <rect
       style="fill:#000000"
       id="rect4"
       width="0.1"
       height="0.1"
       x="0"
       y="0" />
    <path
       d="m 47.796875,48.691406 v 27.328125 h 6.382812 v -7.728515 l 3.435547,-3.732422 7.839844,11.460937 h 8.212891 L 62.28125,59.591797 72.472656,48.691406 H 64.595703 L 54.179687,60.638672 V 48.691406 Z"
       style="-inkscape-font-specification:'HarmonyOS Sans Heavy';fill:#000000"
       id="path2" />
  </g>
  <g
     id="raise"
     style="display:inline">
    <rect
       style="display:inline;fill:#000000"
       id="rect5"
       width="0.1"
       height="0.1"
       x="114.9"
       y="124.9" />
    <rect
       style="display:inline;fill:#000000"
       id="rect6"
       width="0.1"
       height="0.1"
       x="0"
       y="0" />
    <path
       d="m 97.495113,40 -1.828125,14.896484 4.666022,2.238281 c 0.77155,-1.443554 1.89288,-2.164062 3.36133,-2.164062 0.72177,0 1.33034,0.16082 1.82811,0.484375 0.52268,0.323555 0.90932,0.759085 1.1582,1.306641 0.24889,0.547554 0.37305,1.170298 0.37305,1.867187 0,0.647111 -0.11194,1.245414 -0.33593,1.792969 -0.224,0.547555 -0.58621,0.983085 -1.08398,1.30664 -0.47289,0.323556 -1.0448,0.484375 -1.7168,0.484375 -0.896,0 -1.66734,-0.260536 -2.31445,-0.783203 -0.62222,-0.547554 -1.0822,-1.369733 -1.38086,-2.464843 l -5.078129,2.986328 c 0.671999,1.96622 1.779155,3.435584 3.322265,4.40625 1.543114,0.995554 3.399124,1.492187 5.564454,1.492187 1.792,0 3.4344,-0.372474 4.92774,-1.11914 1.49332,-0.721778 2.67576,-1.792273 3.54687,-3.210938 0.87112,-1.443554 1.30664,-3.136793 1.30664,-5.078125 0,-1.816887 -0.39886,-3.396236 -1.19532,-4.740234 -0.77155,-1.368888 -1.81761,-2.414942 -3.13671,-3.136719 -1.29422,-0.746666 -2.72497,-1.119141 -4.29297,-1.119141 -0.52266,0 -1.03347,0.04888 -1.53125,0.148438 -0.49778,0.07467 -0.98219,0.186605 -1.45508,0.335937 L 102.79785,45.375 h 9.70704 V 40 Z"
       style="-inkscape-font-specification:'HarmonyOS Sans Heavy';fill:#000000"
       id="path1" />
    <path
       d="m 89.678713,1.4765626 c -1.219554,0 -2.365326,0.2991514 -3.435547,0.8964843 -1.070222,0.572444 -1.929061,1.3946225 -2.576172,2.4648438 -0.647111,1.0702213 -0.970703,2.3015361 -0.970703,3.6953121 0,1.393777 0.323592,2.6250912 0.970703,3.6953122 0.647111,1.070221 1.49373,1.8924 2.539062,2.464844 1.070222,0.572444 2.228213,0.859375 3.472657,0.859375 1.269332,0 2.425371,-0.286931 3.470703,-0.859375 1.070221,-0.572444 1.91684,-1.394623 2.539062,-2.464844 0.647111,-1.070221 0.970703,-2.3015352 0.970703,-3.6953122 0,-1.393776 -0.323592,-2.6250908 -0.970703,-3.6953121 C 95.066256,3.7427805 94.219637,2.9083815 93.149416,2.3359374 92.104084,1.7634935 90.948045,1.4765625 89.678713,1.4765626 Z M 103.93847,2 87.624025,29.328124 h 6.123047 L 110.06152,2 Z M 89.678713,5.9941407 c 0.64711,0 1.182358,0.2360959 1.605468,0.7089844 0.423112,0.4479995 0.634766,1.0463026 0.634766,1.7929687 0,0.771555 -0.211654,1.382078 -0.634766,1.8300782 -0.42311,0.447998 -0.958358,0.671874 -1.605468,0.671874 -0.622222,0 -1.145249,-0.223876 -1.56836,-0.671874 -0.398222,-0.4480002 -0.597656,-1.0585232 -0.597656,-1.8300782 0,-0.7466661 0.199434,-1.3449691 0.597656,-1.7929687 0.423111,-0.4728885 0.946138,-0.7089844 1.56836,-0.7089844 z M 108.00879,15.73828 c -1.21956,0 -2.37755,0.299152 -3.47266,0.896485 -1.07022,0.572444 -1.92906,1.392669 -2.57617,2.46289 -0.64711,1.045333 -0.97071,2.278601 -0.97071,3.697266 0,1.393777 0.3236,2.625091 0.97071,3.695313 0.64711,1.070221 1.50595,1.892399 2.57617,2.464843 1.07022,0.572444 2.22821,0.857422 3.47266,0.857422 1.24444,0 2.40243,-0.284978 3.47265,-0.857422 1.07023,-0.572444 1.91489,-1.394622 2.53711,-2.464843 0.64711,-1.070222 0.9707,-2.301536 0.9707,-3.695313 0,-1.418665 -0.32359,-2.664154 -0.9707,-3.734375 -0.62222,-1.070221 -1.46689,-1.890447 -2.53711,-2.462891 -1.07022,-0.572444 -2.22821,-0.859375 -3.47265,-0.859375 z m 0,4.517579 c 0.62222,0 1.14524,0.223875 1.56835,0.671875 0.448,0.448 0.67188,1.058523 0.67188,1.830078 0,0.746666 -0.22388,1.355236 -0.67188,1.828125 -0.42311,0.447999 -0.94613,0.671875 -1.56835,0.671875 -0.62223,0 -1.14525,-0.223876 -1.56836,-0.671875 -0.4231,-0.472889 -0.63477,-1.081459 -0.63477,-1.828125 0,-0.771555 0.21166,-1.382078 0.63477,-1.830078 0.42311,-0.448 0.94613,-0.671875 1.56836,-0.671875 z"
       style="-inkscape-font-specification:'HarmonyOS Sans Heavy';fill:#000000;stroke-width:6.5"
       id="path5" />
  </g>
</svg>
