<?xml version="1.0" encoding="UTF-8" standalone="no"?>
<svg
   width="115"
   height="155"
   viewBox="0 0 115 155"
   fill="none"
   version="1.1"
   id="svg3"
   xmlns="http://www.w3.org/2000/svg"
   xmlns:svg="http://www.w3.org/2000/svg">
  <defs
     id="defs3" />
  <rect
     style="fill:#000000"
     id="side-top-boundary"
     width="0.1"
     height="0.1"
     x="1.5258789e-06"
     y="125" />
  <rect
     style="fill:#000000"
     id="side-bottom-boundary"
     width="0.1"
     height="0.1"
     x="114.9"
     y="154.89999" />
  <rect
     style="fill:#000000"
     id="surface-bottom-boundary"
     width="0.1"
     height="0.1"
     x="114.9"
     y="124.9" />
  <rect
     style="fill:#000000"
     id="surface-top-boundary"
     width="0.1"
     height="0.1"
     x="0"
     y="0" />
  <rect
     style="display:inline;fill:#000000;stroke-width:1.95257"
     id="rect11"
     width="115"
     height="0.38124847"
     x="0"
     y="124.81406" />
  <g
     id="adjust"
     style="display:inline">
    <rect
       style="fill:#000000"
       id="rect9"
       width="0.1"
       height="0.1"
       x="1.5258789e-06"
       y="125" />
    <rect
       style="fill:#000000"
       id="rect10"
       width="0.1"
       height="0.1"
       x="114.9"
       y="154.89999" />
    <path
       d="m 51.490234,126 v 4.3418 h 0.761719 c 0.879999,0 1.505398,0.22405 1.876953,0.67382 0.371556,0.44978 0.558594,1.25248 0.558594,2.40625 v 1.11329 c 0,1.408 0.243534,2.53411 0.732422,3.375 0.508444,0.82133 1.301399,1.37854 2.376953,1.67187 -1.075554,0.29333 -1.868509,0.86029 -2.376953,1.70117 -0.488888,0.82134 -0.732422,1.93575 -0.732422,3.34375 v 1.11524 c 0,1.15377 -0.187038,1.95451 -0.558594,2.40429 -0.371555,0.44978 -0.996954,0.67579 -1.876953,0.67579 h -0.761719 v 4.33984 h 1.730469 c 1.427553,0 2.59068,-0.1656 3.490234,-0.49805 0.899555,-0.33244 1.583402,-0.93836 2.052735,-1.81836 0.469333,-0.88 0.705078,-2.12301 0.705078,-3.72656 v -1.75977 c 0,-0.82133 0.107154,-1.45647 0.322266,-1.90625 0.21511,-0.46933 0.565799,-0.80249 1.054687,-0.99804 0.488889,-0.21512 1.164947,-0.36123 2.025391,-0.43946 v -4.86914 c -0.879999,-0.0782 -1.565799,-0.22434 -2.054688,-0.43945 -0.488888,-0.21511 -0.839576,-0.54827 -1.054687,-0.99805 -0.195556,-0.46933 -0.292969,-1.10447 -0.292969,-1.90625 v -1.75976 c 0,-1.60355 -0.235745,-2.84657 -0.705078,-3.72656 -0.469333,-0.88 -1.15318,-1.48592 -2.052735,-1.81836 C 55.811383,126.1656 54.648256,126 53.220703,126 Z"
       style="-inkscape-font-specification:'HarmonyOS Sans Heavy';fill:#000000"
       id="path4" />
  </g>
  <g
     id="lower"
     style="display:inline">
    <rect
       style="fill:#000000"
       id="rect7"
       width="0.1"
       height="0.1"
       x="114.9"
       y="124.9" />
    <rect
       style="fill:#000000"
       id="rect8"
       width="0.1"
       height="0.1"
       x="0"
       y="0" />
    <path
       d="m 18.75,123.5 22.5,-9 -22.5,-9 2.5,6 H 2.75 v 6 h 18.5 z"
       style="baseline-shift:baseline;display:inline;overflow:visible;vector-effect:none;fill:#000000;enable-background:accumulate;stop-color:#000000;stop-opacity:1"
       id="path22" />
  </g>
  <g
     id="base"
     style="display:inline">
    <rect
       style="fill:#000000"
       id="rect3"
       width="0.1"
       height="0.1"
       x="114.9"
       y="124.9" />
    <rect
       style="fill:#000000"
       id="rect4"
       width="0.1"
       height="0.1"
       x="0"
       y="0" />
    <path
       d="M 51.25,48.691406 V 76.019531 H 69.617187 V 70.34375 H 57.632812 V 48.691406 Z"
       style="-inkscape-font-specification:'HarmonyOS Sans Heavy';fill:#000000"
       id="path2" />
  </g>
  <g
     id="raise"
     style="display:inline">
    <rect
       style="display:inline;fill:#000000"
       id="rect5"
       width="0.1"
       height="0.1"
       x="114.9"
       y="124.9" />
    <rect
       style="display:inline;fill:#000000"
       id="rect6"
       width="0.1"
       height="0.1"
       x="0"
       y="0" />
    <path
       d="M 102.18457,0.02441395 95.463865,15.629883 h 5.636715 l 3.91993,-9.259766 3.95899,9.259766 h 5.59959 L 107.8584,0.02441395 Z"
       style="-inkscape-font-specification:'HarmonyOS Sans Heavy';fill:#000000;stroke-width:6.5"
       id="path14" />
    <path
       d="m 103.32032,40.197266 -5.564458,8.699219 c -1.443554,2.239998 -2.438773,4.01878 -2.986328,5.33789 -0.522666,1.31911 -0.783203,2.700977 -0.783203,4.144531 0,1.916443 0.44775,3.607729 1.34375,5.076172 0.920888,1.443555 2.139982,2.564885 3.658199,3.361328 1.51823,0.821333 3.18702,1.230469 5.00391,1.230469 1.792,0 3.44662,-0.396916 4.96484,-1.193359 1.54311,-0.771555 2.77442,-1.866491 3.69532,-3.285156 0.92088,-1.418666 1.38086,-3.024408 1.38086,-4.816407 0,-1.767109 -0.37248,-3.309796 -1.11914,-4.628906 -0.74667,-1.343999 -1.79272,-2.365612 -3.13672,-3.0625 -1.31911,-0.721777 -2.84958,-1.082031 -4.5918,-1.082031 -0.57245,0 -1.15657,0.0611 -1.75391,0.185547 l 0.52149,-0.671875 C 104.00293,49.417518 104.35289,48.920888 105,48 l 5.15039,-7.802734 z m 0.63281,15.044922 c 0.6471,0 1.22097,0.148599 1.71875,0.447265 0.52266,0.273778 0.91958,0.684868 1.19336,1.232422 0.27378,0.522667 0.41211,1.13319 0.41211,1.830078 0,0.696889 -0.13833,1.319633 -0.41211,1.867188 -0.27378,0.547555 -0.6707,0.983085 -1.19336,1.30664 -0.49778,0.298667 -1.07165,0.447266 -1.71875,0.447266 -0.64712,0 -1.23124,-0.148599 -1.75391,-0.447266 -0.49777,-0.298666 -0.89664,-0.721975 -1.19531,-1.269531 -0.27378,-0.547554 -0.41016,-1.170299 -0.41016,-1.867187 0,-0.696888 0.13638,-1.319632 0.41016,-1.867188 0.29867,-0.547554 0.69754,-0.958644 1.19531,-1.232422 0.52267,-0.298666 1.10679,-0.447265 1.75391,-0.447265 z"
       style="-inkscape-font-specification:'HarmonyOS Sans Heavy';fill:#000000"
       id="path19" />
  </g>
</svg>
