<?xml version="1.0" encoding="UTF-8" standalone="no"?>
<svg
   width="115"
   height="155"
   viewBox="0 0 115 155"
   fill="none"
   version="1.1"
   id="svg3"
   sodipodi:docname="s.svgz"
   inkscape:version="1.4 (e7c3feb100, 2024-10-09)"
   inkscape:export-filename="s.svg"
   inkscape:export-xdpi="96"
   inkscape:export-ydpi="96"
   xmlns:inkscape="http://www.inkscape.org/namespaces/inkscape"
   xmlns:sodipodi="http://sodipodi.sourceforge.net/DTD/sodipodi-0.dtd"
   xmlns="http://www.w3.org/2000/svg"
   xmlns:svg="http://www.w3.org/2000/svg">
  <sodipodi:namedview
     id="namedview1"
     pagecolor="#ffffff"
     bordercolor="#000000"
     borderopacity="0.25"
     inkscape:showpageshadow="2"
     inkscape:pageopacity="0.0"
     inkscape:pagecheckerboard="0"
     inkscape:deskcolor="#d1d1d1"
     inkscape:zoom="2.8284271"
     inkscape:cx="-3.8890873"
     inkscape:cy="108.01056"
     inkscape:window-width="1920"
     inkscape:window-height="1008"
     inkscape:window-x="0"
     inkscape:window-y="0"
     inkscape:window-maximized="1"
     inkscape:current-layer="lower"
     showgrid="true">
    <inkscape:grid
       id="grid1"
       units="px"
       originx="0"
       originy="0"
       spacingx="1"
       spacingy="1"
       empcolor="#0099e5"
       empopacity="0.30196078"
       color="#0099e5"
       opacity="0.14901961"
       empspacing="5"
       enabled="true"
       visible="true" />
    <inkscape:page
       x="0"
       y="0"
       width="115"
       height="155"
       id="page2"
       margin="0"
       bleed="0" />
  </sodipodi:namedview>
  <defs
     id="defs3" />
  <rect
     style="fill:#000000"
     id="side-top-boundary"
     width="0.1"
     height="0.1"
     x="1.5258789e-06"
     y="125" />
  <rect
     style="fill:#000000"
     id="side-bottom-boundary"
     width="0.1"
     height="0.1"
     x="114.9"
     y="154.89999" />
  <rect
     style="fill:#000000"
     id="surface-bottom-boundary"
     width="0.1"
     height="0.1"
     x="114.9"
     y="124.9" />
  <rect
     style="fill:#000000"
     id="surface-top-boundary"
     width="0.1"
     height="0.1"
     x="0"
     y="0" />
  <rect
     style="fill:#000000;stroke-width:1.95257"
     id="rect11"
     width="115"
     height="0.38124847"
     x="0"
     y="124.81406"
     inkscape:label="divider" />
  <g
     inkscape:groupmode="layer"
     id="adjust"
     inkscape:label="adjust">
    <path
       d="M 42.183594,130.96094 47,137.30664 h 4.666016 l -3.470704,-6.3457 z m 24.414062,9.96679 c -2.090664,0 -3.659745,0.80996 -4.705078,2.42774 -1.045333,1.61777 -1.566406,3.63265 -1.566406,6.04687 h 5.15039 c 0.07467,-1.12 0.23744,-1.9544 0.486329,-2.50195 0.248888,-0.57245 0.609142,-0.85742 1.082031,-0.85742 0.298666,0 0.573377,0.11194 0.822265,0.33594 0.273779,0.19911 0.58515,0.5227 0.933594,0.9707 0.647111,0.82133 1.306517,1.46852 1.978516,1.94141 0.696888,0.47288 1.655445,0.70898 2.875,0.70898 2.115554,0 3.694902,-0.80801 4.740234,-2.42578 1.045335,-1.61778 1.580582,-3.63461 1.605469,-6.04883 h -5.152344 c -0.09955,1.12 -0.272595,1.95439 -0.521484,2.50195 -0.248889,0.54756 -0.611096,0.82032 -1.083985,0.82032 -0.298666,0 -0.571423,-0.0997 -0.820312,-0.29883 -0.248889,-0.19911 -0.560261,-0.53492 -0.933594,-1.00781 -0.672,-0.82134 -1.355846,-1.4563 -2.052734,-1.9043 -0.671999,-0.47289 -1.618336,-0.70899 -2.837891,-0.70899 z"
       style="-inkscape-font-specification:'HarmonyOS Sans Heavy';fill:#000000"
       id="path1" />
    <rect
       style="fill:#000000"
       id="rect9"
       width="0.1"
       height="0.1"
       x="1.5258789e-06"
       y="125" />
    <rect
       style="fill:#000000"
       id="rect10"
       width="0.1"
       height="0.1"
       x="114.9"
       y="154.89999" />
  </g>
  <g
     inkscape:groupmode="layer"
     id="lower"
     inkscape:label="lower"
     style="display:inline">
    <rect
       style="fill:#000000"
       id="rect7"
       width="0.1"
       height="0.1"
       x="114.9"
       y="124.9" />
    <rect
       style="fill:#000000"
       id="rect8"
       width="0.1"
       height="0.1"
       x="0"
       y="0" />
    <path
       d="M 38.761719,95.904297 29.728516,113.5625 v 4.36914 h 11.535156 v 5.33789 h 6.197265 v -5.33789 h 3.658204 v -5.45117 h -3.658204 v -5.78711 h -6.197265 v 5.78711 h -4.441406 l 8.548828,-16.576173 z m -34.4550784,0.03711 v 27.328123 h 6.3847654 v -10.26758 h 10.675781 v -5.52539 H 10.691406 v -5.97265 h 11.908203 v -5.562503 z"
       style="-inkscape-font-specification:'HarmonyOS Sans Heavy';fill:#000000"
       id="path4" />
  </g>
  <g
     inkscape:groupmode="layer"
     id="base"
     inkscape:label="base"
     style="display:inline">
    <rect
       style="fill:#000000"
       id="rect3"
       width="0.1"
       height="0.1"
       x="114.9"
       y="124.9" />
    <rect
       style="fill:#000000"
       id="rect4"
       width="0.1"
       height="0.1"
       x="0"
       y="0" />
    <path
       d="m 60.041016,48.167969 c -1.816888,0 -3.522347,0.311371 -5.115235,0.933593 -1.567998,0.622222 -2.848195,1.568558 -3.84375,2.837891 -0.970666,1.269332 -1.457031,2.850634 -1.457031,4.742188 0,1.717332 0.411089,3.109466 1.232422,4.179687 0.821333,1.070221 1.804331,1.867959 2.949219,2.390625 1.169776,0.497777 2.63914,1.006631 4.40625,1.529297 1.194666,0.348445 2.126828,0.659816 2.798828,0.933594 0.671999,0.273777 1.231688,0.621811 1.679687,1.044922 0.448,0.423111 0.671875,0.958358 0.671875,1.605468 0,0.796444 -0.335813,1.406968 -1.007812,1.830078 -0.647111,0.398223 -1.505951,0.597657 -2.576172,0.597657 -1.443555,0 -2.69931,-0.348034 -3.769531,-1.044922 -1.045332,-0.721777 -1.84307,-1.704776 -2.390625,-2.949219 l -5.150391,2.949219 c 0.721777,2.19022 2.113911,3.857065 4.179687,5.001953 2.090666,1.169777 4.394428,1.753906 6.908204,1.753906 1.667554,0 3.297737,-0.284978 4.890625,-0.857422 1.592887,-0.547554 2.911698,-1.457229 3.957031,-2.726562 1.070221,-1.294221 1.605469,-2.936624 1.605469,-4.927735 0,-1.717331 -0.42331,-3.111419 -1.269532,-4.18164 -0.846221,-1.070221 -1.85366,-1.878226 -3.023437,-2.425781 -1.169777,-0.547556 -2.651361,-1.082803 -4.44336,-1.605469 -1.169776,-0.348444 -2.091672,-0.647596 -2.763671,-0.896485 -0.672,-0.248888 -1.219467,-0.572481 -1.642579,-0.970703 -0.42311,-0.398222 -0.634765,-0.894854 -0.634765,-1.492187 0,-0.746666 0.311372,-1.35719 0.933594,-1.830078 0.64711,-0.472889 1.481509,-0.708985 2.501953,-0.708985 1.194665,0 2.202105,0.311372 3.023437,0.933594 0.846222,0.597333 1.468966,1.468393 1.867188,2.613281 l 5.226562,-2.949218 C 69.436712,53.134517 68.789527,51.988745 67.84375,51.042969 66.897973,50.097191 65.739982,49.388904 64.371094,48.916016 63.027095,48.418238 61.584126,48.167969 60.041016,48.167969 Z"
       style="-inkscape-font-specification:'HarmonyOS Sans Heavy';fill:#000000"
       id="path10" />
  </g>
  <g
     inkscape:groupmode="layer"
     id="raise"
     inkscape:label="raise"
     style="display:inline">
    <rect
       style="display:inline;fill:#000000"
       id="rect5"
       width="0.1"
       height="0.1"
       x="114.9"
       y="124.9" />
    <rect
       style="display:inline;fill:#000000"
       id="rect6"
       width="0.1"
       height="0.1"
       x="0"
       y="0" />
    <path
       d="M 89.02964,1.97437 C 88.20219,1.60687 87.35687,2.45219 87.72437,3.27964 L 98.475,27.4847 c 0.3785,0.8521 1.6178,0.7551 1.8591,-0.1454 l 2.5477,-9.5082 c 0.0915,-0.3413 0.358,-0.6078 0.6993,-0.6993 l 9.5082,-2.5477 c 0.9006,-0.2413 0.9975,-1.4806 0.1454,-1.8591 z"
       style="clip-rule:evenodd;fill:#000000;fill-rule:evenodd"
       id="path1-5"
       sodipodi:nodetypes="ccccccccc" />
    <path
       d="M 74.439375,9.6081 V 5.41873 c 0,-0.66818 -0.8079,-1.00281 -1.2804,-0.53033 l -10.1893,10.1893 c -0.2929,0.2929 -0.2929,0.7678 0,1.0607 l 10.1893,10.1893 c 0.4725,0.4725 1.2804,0.1379 1.2804,-0.5303 v -4.1893 h 12 v -12 z"
       style="clip-rule:evenodd;fill:#000000;fill-rule:evenodd"
       id="path1-2" />
  </g>
</svg>
