<?xml version="1.0" encoding="UTF-8" standalone="no"?>
<svg
   width="108.4043"
   height="29.417969"
   viewBox="0 0 108.4043 29.417969"
   fill="none"
   version="1.1"
   id="svg3"
   xmlns="http://www.w3.org/2000/svg"
   xmlns:svg="http://www.w3.org/2000/svg">
  <path
     d="M 82.3125,1.0730979e-7 C 79.873391,1.0730979e-7 77.893221,0.7713432 76.375,2.3144532 c -1.493332,1.518221 -2.238281,3.807809 -2.238281,6.869141 v 0.447265 H 70.84961 v 5.0781248 h 3.287109 v 14.22461 h 6.083984 v -14.22461 h 5.078125 V 9.6308592 h -5.078125 v -0.222656 c 10e-7,-1.443554 0.223876,-2.501829 0.671875,-3.173828 0.448,-0.671999 1.107406,-1.007813 1.978516,-1.007813 0.945777,0 1.804617,0.348034 2.576172,1.044922 l 2.314453,-4.255859 C 87.239053,1.4182922 86.506325,0.93192621 85.560547,0.55859421 84.614771,0.1852608 83.532055,1.0730979e-7 82.3125,1.0730979e-7 Z M 60.47461,0.37304721 c -0.970666,0 -1.805065,0.360254 -2.501953,1.08203099 -0.696889,0.696889 -1.044922,1.543508 -1.044922,2.539063 0,0.970665 0.348033,1.817285 1.044922,2.539062 0.696888,0.696889 1.531287,1.044922 2.501953,1.044922 0.970666,0 1.805065,-0.348033 2.501953,-1.044922 0.696889,-0.721777 1.044922,-1.568397 1.044922,-2.539062 0,-0.995555 -0.360254,-1.842174 -1.082032,-2.539063 C 62.242565,0.73330121 61.420386,0.37304721 60.47461,0.37304721 Z m -31.021485,0.148437 V 28.933594 h 6.085938 v -9.109375 c 0,-1.144888 0.136379,-2.115666 0.410156,-2.91211 0.298667,-0.796444 0.709756,-1.406967 1.232422,-1.830078 0.522667,-0.423111 1.157631,-0.634766 1.904297,-0.634766 1.144887,1e-6 1.952892,0.447751 2.425781,1.34375 0.472889,0.896 0.708984,2.153709 0.708984,3.771485 v 9.371094 h 6.085938 V 17.507812 c 0,-2.762664 -0.622744,-4.852819 -1.867188,-6.271484 -1.244443,-1.4186648 -2.947949,-2.1269528 -5.113281,-2.1269528 -1.269332,0 -2.390663,0.236096 -3.361328,0.708984 -0.970666,0.4728878 -1.77867,1.2075708 -2.425781,2.2031248 V 0.52148421 Z M 11.572266,1.0820312 c -1.8168873,0 -3.5203933,0.311372 -5.1132815,0.933594 -1.5679987,0.622221 -2.8501484,1.568558 -3.8457032,2.837891 -0.9706658,1.269332 -1.4550781,2.84868 -1.4550781,4.740234 0,1.7173318 0.4091361,3.1114188 1.2304687,4.1816398 0.8213327,1.070222 1.8043309,1.866006 2.9492188,2.388672 1.169777,0.497778 2.63914,1.008584 4.40625,1.53125 1.1946653,0.348445 2.1268293,0.659817 2.7988283,0.933594 0.672,0.273777 1.233641,0.621811 1.681641,1.044922 0.447999,0.423111 0.671875,0.958358 0.671875,1.605469 0,0.796444 -0.335813,1.406967 -1.007813,1.830078 -0.64711,0.398222 -1.50595,0.597656 -2.576172,0.597656 -1.4435543,0 -2.7012633,-0.349986 -3.7714843,-1.046875 C 6.4956837,21.938379 5.699899,20.955381 5.1523438,19.710937 L 1.2651479e-7,22.660156 C 0.72177732,24.850377 2.1158647,26.519174 4.1816407,27.664062 c 2.0906647,1.169777 4.392474,1.753907 6.9062503,1.753907 1.667554,0 3.297738,-0.286931 4.890625,-0.859375 1.592887,-0.547556 2.911699,-1.455278 3.957031,-2.72461 1.070222,-1.294221 1.605469,-2.936625 1.605469,-4.927734 0,-1.717332 -0.42331,-3.111419 -1.269531,-4.181641 -0.846222,-1.070221 -1.85366,-1.878226 -3.023438,-2.425781 -1.169776,-0.547555 -2.651361,-1.082803 -4.443359,-1.605469 -1.169777,-0.348444 -2.08972,-0.647595 -2.761719,-0.896484 C 9.3709697,11.547986 8.8235017,11.224394 8.4003907,10.826172 7.9772797,10.42795 7.7656247,9.9293642 7.7656247,9.3320312 c 0,-0.746666 0.311373,-1.355236 0.933594,-1.828125 0.647111,-0.472889 1.4795563,-0.708984 2.5000003,-0.708984 1.194665,0 2.204058,0.309418 3.025391,0.93164 0.846221,0.597333 1.467012,1.468394 1.865234,2.6132818 L 21.316407,7.3906252 C 20.967963,6.0466262 20.320777,4.9028082 19.375,3.9570312 18.429223,3.0112542 17.273185,2.3010142 15.904297,1.8281252 14.560298,1.3303482 13.115375,1.0820312 11.572266,1.0820312 Z m 83.429687,2.351563 v 6.197265 h -3.546875 v 5.1152348 h 3.546875 v 6.607421 c 10e-7,3.011553 0.671625,5.115881 2.015623,6.310547 1.36889,1.169777 3.198514,1.753907 5.488284,1.753907 2.53867,0 4.50467,-0.622745 5.89844,-1.867188 l -2.12695,-4.21875 c -0.42312,0.323555 -0.8342,0.547431 -1.23242,0.671875 -0.39823,0.124445 -0.82154,0.1875 -1.26953,0.1875 -1.04534,0 -1.75362,-0.335813 -2.12696,-1.007812 -0.37333,-0.696889 -0.56054,-1.667666 -0.56054,-2.91211 v -5.52539 h 5.89843 V 9.6308592 H 101.0879 V 3.4335942 Z M 57.451172,9.6308592 V 28.933594 h 6.083985 V 9.6308592 Z"
     style="-inkscape-font-specification:'HarmonyOS Sans Heavy';fill:#000000"
     id="path1" />
  <defs
     id="defs3" />
</svg>
