<?xml version="1.0" encoding="UTF-8" standalone="no"?>
<svg
   width="115"
   height="125"
   viewBox="0 0 115 125"
   fill="none"
   version="1.1"
   id="svg7"
   xmlns="http://www.w3.org/2000/svg"
   xmlns:svg="http://www.w3.org/2000/svg">
  <g
     clip-path="url(#clip0_19_849)"
     id="g6">
    <path
       d="M 48,77.4 V 48 h 19.698 v 7.14 H 55.77 v 4.074 h 9.66 v 6.93 h -9.66 v 4.116 h 12.222 v 7.14 z"
       fill="#000000"
       id="path1" />
    <path
       d="m 97.955078,90 c -2.324,0 -4.284859,0.335813 -5.880859,1.007812 -1.568,0.672001 -2.75636,1.610454 -3.56836,2.814454 -0.812,1.204 -1.21875,2.590203 -1.21875,4.158203 0,1.54 0.40675,2.898221 1.21875,4.074221 0.690432,0.97612 1.650782,1.78879 2.890625,2.41406 -1.639959,0.7511 -2.871841,1.77971 -3.689453,3.08789 -0.84,1.344 -1.259765,2.91113 -1.259765,4.70313 0,1.624 0.419765,3.05315 1.259765,4.28515 0.84,1.204 2.114266,2.15547 3.822266,2.85547 1.708,0.672 3.849781,1.00781 6.425781,1.00781 2.604002,0 4.760752,-0.33581 6.468752,-1.00781 1.708,-0.7 2.98031,-1.65147 3.82031,-2.85547 0.868,-1.232 1.30274,-2.66115 1.30274,-4.28515 0,-1.792 -0.43474,-3.35913 -1.30274,-4.70313 -0.82116,-1.31386 -2.05832,-2.34572 -3.70898,-3.09766 1.25145,-0.63106 2.22387,-1.43127 2.91211,-2.40429 0.84,-1.176 1.25976,-2.534221 1.25976,-4.074221 0,-1.568 -0.41976,-2.954203 -1.25976,-4.158203 -0.812,-1.204 -2.01533,-2.142454 -3.61133,-2.814454 C 102.23994,90.335813 100.27908,90 97.955078,90 Z m 0,6.089844 c 0.924,0 1.679578,0.266828 2.267582,0.798828 0.616,0.532 0.92382,1.21664 0.92382,2.05664 0,0.868001 -0.30782,1.597548 -0.92382,2.185548 -0.588004,0.56 -1.343582,0.83984 -2.267582,0.83984 -0.924,0 -1.679578,-0.27984 -2.267578,-0.83984 -0.56,-0.588 -0.839844,-1.317548 -0.839844,-2.185548 0,-0.839999 0.279844,-1.52464 0.839844,-2.05664 0.588,-0.532 1.343578,-0.798828 2.267578,-0.798828 z m 0,11.634766 c 1.064,0 1.931516,0.32084 2.603512,0.96484 0.672,0.616 1.00782,1.4295 1.00782,2.4375 0,0.84 -0.33582,1.53961 -1.00782,2.09961 -0.671996,0.532 -1.539512,0.79688 -2.603512,0.79688 -0.672,0 -1.274641,-0.12496 -1.806641,-0.37696 -0.532,-0.252 -0.951765,-0.58781 -1.259765,-1.00781 -0.308,-0.448 -0.460938,-0.95172 -0.460938,-1.51172 0,-0.672 0.152938,-1.26162 0.460938,-1.76562 0.308,-0.532 0.727766,-0.9368 1.259765,-1.2168 0.532001,-0.28 1.134641,-0.41992 1.806641,-0.41992 z"
       style="baseline-shift:baseline;display:inline;overflow:visible;vector-effect:none;fill:#000000;enable-background:accumulate;stop-color:#000000;stop-opacity:1"
       id="path7" />
    <path
       d="M 64,119.904 V 90.5039 h 20.118 v 7.14 H 71.77 v 4.2841 h 9.66 v 7.14 h -9.66 v 10.836 z"
       fill="#000000"
       id="path3" />
    <path
       d="M 7.22435,35.0295 C 6.85684,34.2021 7.70217,33.3568 8.52962,33.7243 L 32.7347,44.4749 c 0.8521,0.3785 0.7551,1.6178 -0.1455,1.8591 l -9.5081,2.5477 c -0.3413,0.0914 -0.6079,0.358 -0.6993,0.6993 l -2.5477,9.5082 c -0.2413,0.9005 -1.4807,0.9975 -1.8591,0.1454 z"
       fill="#000000"
       id="path4" />
    <path
       d="M 13,17 H 8.81066 C 8.14248,17 7.80786,16.1921 8.28033,15.7197 L 18.4697,5.53033 c 0.2929,-0.29289 0.7677,-0.29289 1.0606,0 L 29.7197,15.7197 C 30.1921,16.1921 29.8575,17 29.1893,17 H 25 V 29 H 13 Z"
       fill="#000000"
       id="path5" />
    <rect
       width="1"
       height="1"
       fill="#000000"
       id="rect5"
       x="0"
       y="0" />
    <rect
       x="114"
       y="124"
       width="1"
       height="1"
       fill="#000000"
       id="rect6" />
  </g>
  <defs
     id="defs7">
    <clipPath
       id="clip0_19_849">
      <rect
         width="115"
         height="125"
         fill="#ffffff"
         id="rect7"
         x="0"
         y="0" />
    </clipPath>
  </defs>
</svg>
