<svg width="115" height="125" viewBox="0 0 115 125" fill="none" xmlns="http://www.w3.org/2000/svg">
<g clip-path="url(#clip0_19_849)">
<path d="M48 77.4V48H67.698V55.14H55.77V59.214H65.43V66.144H55.77V70.26H67.992V77.4H48Z" fill="black"/>
<path d="M97.955 120.408C95.379 120.408 93.237 120.072 91.529 119.4C89.821 118.7 88.547 117.748 87.707 116.544C86.867 115.312 86.447 113.884 86.447 112.26C86.447 110.468 86.867 108.9 87.707 107.556C88.547 106.212 89.821 105.162 91.529 104.406C93.237 103.622 95.379 103.244 97.955 103.272C100.559 103.244 102.715 103.622 104.423 104.406C106.131 105.162 107.405 106.212 108.245 107.556C109.113 108.9 109.547 110.468 109.547 112.26C109.547 113.884 109.113 115.312 108.245 116.544C107.405 117.748 106.131 118.7 104.423 119.4C102.715 120.072 100.559 120.408 97.955 120.408ZM97.955 114.024C99.019 114.024 99.887 113.758 100.559 113.226C101.231 112.666 101.567 111.966 101.567 111.126C101.567 110.118 101.231 109.306 100.559 108.69C99.887 108.046 99.019 107.724 97.955 107.724C97.283 107.724 96.681 107.864 96.149 108.144C95.617 108.424 95.197 108.83 94.889 109.362C94.581 109.866 94.427 110.454 94.427 111.126C94.427 111.686 94.581 112.19 94.889 112.638C95.197 113.058 95.617 113.394 96.149 113.646C96.681 113.898 97.283 114.024 97.955 114.024ZM97.955 105.75C95.631 105.75 93.671 105.428 92.075 104.784C90.507 104.112 89.317 103.202 88.505 102.054C87.693 100.878 87.287 99.52 87.287 97.98C87.287 96.412 87.693 95.026 88.505 93.822C89.317 92.618 90.507 91.68 92.075 91.008C93.671 90.336 95.631 90 97.955 90C100.279 90 102.239 90.336 103.835 91.008C105.431 91.68 106.635 92.618 107.447 93.822C108.287 95.026 108.707 96.412 108.707 97.98C108.707 99.52 108.287 100.878 107.447 102.054C106.635 103.202 105.431 104.112 103.835 104.784C102.239 105.428 100.279 105.75 97.955 105.75ZM97.955 101.97C98.879 101.97 99.635 101.69 100.223 101.13C100.839 100.542 101.147 99.814 101.147 98.946C101.147 98.106 100.839 97.42 100.223 96.888C99.635 96.356 98.879 96.09 97.955 96.09C97.031 96.09 96.275 96.356 95.687 96.888C95.127 97.42 94.847 98.106 94.847 98.946C94.847 99.814 95.127 100.542 95.687 101.13C96.275 101.69 97.031 101.97 97.955 101.97Z" fill="black"/>
<path d="M64 119.904V90.5039H84.118V97.6439H71.77V101.928H81.43V109.068H71.77V119.904H64Z" fill="black"/>
<path d="M7.22435 35.0295C6.85684 34.2021 7.70217 33.3568 8.52962 33.7243L32.7347 44.4749C33.5868 44.8534 33.4898 46.0927 32.5892 46.334L23.0811 48.8817C22.7398 48.9731 22.4732 49.2397 22.3818 49.581L19.8341 59.0892C19.5928 59.9897 18.3534 60.0867 17.975 59.2346L7.22435 35.0295Z" fill="black"/>
<path d="M13 17H8.81066C8.14248 17 7.80786 16.1921 8.28033 15.7197L18.4697 5.53033C18.7626 5.23744 19.2374 5.23744 19.5303 5.53033L29.7197 15.7197C30.1921 16.1921 29.8575 17 29.1893 17H25V29H13V17Z" fill="black"/>
<rect width="1" height="1" fill="black"/>
<rect x="114" y="124" width="1" height="1" fill="black"/>
</g>
<defs>
<clipPath id="clip0_19_849">
<rect width="115" height="125" fill="white"/>
</clipPath>
</defs>
</svg>
