<svg width="115" height="125" viewBox="0 0 115 125" fill="none" xmlns="http://www.w3.org/2000/svg">
<path fill-rule="evenodd" clip-rule="evenodd" d="M8.52964 7.22437C7.70219 6.85687 6.85687 7.70219 7.22437 8.52964L17.975 32.7347C18.3535 33.5868 19.5928 33.4898 19.8341 32.5893L22.3818 23.0811C22.4733 22.7398 22.7398 22.4733 23.0811 22.3818L32.5893 19.8341C33.4899 19.5928 33.5868 18.3535 32.7347 17.975L8.52964 7.22437ZM52.5 13.8581V9.66873C52.5 9.00055 53.3079 8.66592 53.7804 9.1384L63.9697 19.3277C64.2626 19.6206 64.2626 20.0955 63.9697 20.3884L53.7804 30.5777C53.3079 31.0502 52.5 30.7156 52.5 30.0474V25.8581H40.5V13.8581H52.5ZM47 48V77.4H54.77V66.564H64.43V59.424H54.77V55.14H67.118V48H47ZM97.745 120.408C95.813 120.408 94.133 120.072 92.705 119.4C91.305 118.728 90.143 117.79 89.219 116.586C88.295 115.382 87.595 113.982 87.119 112.386C86.671 110.762 86.447 108.998 86.447 107.094C86.447 105.078 86.657 103.062 87.077 101.046C87.497 99.03 88.183 97.196 89.135 95.544C90.087 93.864 91.375 92.52 92.999 91.512C94.651 90.504 96.695 90 99.131 90C100.783 90 102.351 90.224 103.835 90.672C105.347 91.12 106.705 91.764 107.909 92.604L104.255 98.316C103.387 97.756 102.477 97.364 101.525 97.14C100.573 96.888 99.747 96.762 99.047 96.762C97.507 96.762 96.233 97.49 95.225 98.946C94.5878 99.8665 94.1519 101.167 93.9176 102.849C94.2299 102.544 94.5677 102.265 94.931 102.012C96.163 101.144 97.633 100.71 99.341 100.71C101.189 100.71 102.827 101.172 104.255 102.096C105.683 103.02 106.803 104.252 107.615 105.792C108.427 107.332 108.833 109.04 108.833 110.916C108.833 112.708 108.385 114.332 107.489 115.788C106.593 117.216 105.319 118.35 103.667 119.19C102.015 120.002 100.041 120.408 97.745 120.408ZM97.787 113.94C98.403 113.94 98.963 113.786 99.467 113.478C99.971 113.17 100.363 112.764 100.643 112.26C100.951 111.728 101.105 111.14 101.105 110.496C101.105 109.824 100.951 109.222 100.643 108.69C100.363 108.13 99.971 107.696 99.467 107.388C98.963 107.052 98.403 106.884 97.787 106.884C97.171 106.884 96.597 107.052 96.065 107.388C95.561 107.696 95.155 108.13 94.847 108.69C94.539 109.222 94.385 109.824 94.385 110.496C94.385 111.14 94.539 111.728 94.847 112.26C95.155 112.764 95.561 113.17 96.065 113.478C96.597 113.786 97.171 113.94 97.787 113.94ZM64 119.904V90.504H84.118V97.644H71.77V101.928H81.43V109.068H71.77V119.904H64Z" fill="black"/>
</svg>
