<svg width="115" height="125" viewBox="0 0 115 125" fill="none" xmlns="http://www.w3.org/2000/svg">
<g clip-path="url(#clip0_8_247)">
<path fill-rule="evenodd" clip-rule="evenodd" d="M5 10V39.4H12.77V28.564H22.43V21.424H12.77V17.14H25.118V10H5ZM30.093 42.844C31.129 43.544 32.403 43.894 33.915 43.894C36.043 43.894 37.709 43.348 38.913 42.256C40.117 41.164 40.719 39.806 40.719 38.182C40.719 37.062 40.467 36.04 39.963 35.116C39.487 34.192 38.829 33.45 37.989 32.89C37.149 32.302 36.169 32.008 35.049 32.008C34.097 32.008 33.257 32.26 32.529 32.764C32.3783 32.8665 32.2347 32.9768 32.0982 33.0949C32.2356 32.3233 32.4633 31.723 32.781 31.294C33.341 30.538 33.999 30.16 34.755 30.16C35.147 30.16 35.623 30.23 36.183 30.37C36.743 30.482 37.275 30.706 37.779 31.042L40.173 27.22C39.445 26.716 38.619 26.338 37.695 26.086C36.799 25.806 35.847 25.666 34.839 25.666C33.299 25.666 32.025 25.988 31.017 26.632C30.009 27.248 29.211 28.074 28.623 29.11C28.063 30.146 27.657 31.28 27.405 32.512C27.181 33.716 27.069 34.892 27.069 36.04C27.069 37.552 27.321 38.896 27.825 40.072C28.329 41.248 29.085 42.172 30.093 42.844ZM35.091 39.106C34.783 39.442 34.405 39.61 33.957 39.61C33.509 39.61 33.117 39.442 32.781 39.106C32.445 38.77 32.277 38.364 32.277 37.888C32.277 37.412 32.445 36.992 32.781 36.628C33.117 36.264 33.509 36.082 33.957 36.082C34.405 36.082 34.783 36.264 35.091 36.628C35.427 36.992 35.595 37.412 35.595 37.888C35.595 38.336 35.427 38.742 35.091 39.106ZM47 77.4V48H67.118V55.14H54.77V59.424H64.43V66.564H54.77V77.4H47ZM64.2244 13.5296C63.8569 12.7021 64.7022 11.8568 65.5296 12.2243L89.7347 22.9749C90.5868 23.3534 90.4899 24.5927 89.5893 24.834L80.0811 27.3817C79.7398 27.4732 79.4733 27.7398 79.3818 28.0811L76.8341 37.5892C76.5928 38.4898 75.3535 38.5868 74.975 37.7347L64.2244 13.5296ZM102 20.8578V18.0649C102 17.6195 102.539 17.3964 102.854 17.7114L109.646 24.5043C109.842 24.6995 109.842 25.0161 109.646 25.2114L102.854 32.0043C102.539 32.3193 102 32.0962 102 31.6507V28.8578H94V20.8578H102Z" fill="black"/>
<rect width="1" height="1" fill="black"/>
<rect x="114" y="124" width="1" height="1" fill="black"/>
</g>
<defs>
<clipPath id="clip0_8_247">
<rect width="115" height="125" fill="white"/>
</clipPath>
</defs>
</svg>
