<svg width="115" height="125" viewBox="0 0 115 125" fill="none" xmlns="http://www.w3.org/2000/svg">
<g clip-path="url(#clip0_19_944)">
<path fill-rule="evenodd" clip-rule="evenodd" d="M8.444 37.256C9.508 39.244 10.684 41.092 11.972 42.8H18.356C17.068 40.98 15.892 39.062 14.828 37.046C13.764 35.002 12.924 32.874 12.308 30.662C11.692 28.45 11.384 26.196 11.384 23.9C11.384 21.576 11.692 19.322 12.308 17.138C12.924 14.926 13.764 12.798 14.828 10.754C15.892 8.71 17.068 6.792 18.356 5H11.972C10.684 6.708 9.508 8.57 8.444 10.586C7.38 12.574 6.54 14.688 5.924 16.928C5.308 19.14 5 21.464 5 23.9C5 26.308 5.308 28.632 5.924 30.872C6.54 33.112 7.38 35.24 8.444 37.256ZM49.56 75.434C51.94 76.722 54.67 77.366 57.75 77.366C60.802 77.366 63.504 76.722 65.856 75.434C68.208 74.118 70.042 72.326 71.358 70.058C72.702 67.762 73.374 65.144 73.374 62.204C73.374 59.236 72.702 56.618 71.358 54.35C70.014 52.054 68.166 50.262 65.814 48.974C63.462 47.658 60.746 47 57.666 47C54.614 47 51.912 47.658 49.56 48.974C47.208 50.262 45.36 52.054 44.016 54.35C42.672 56.618 42 59.236 42 62.204C42 65.144 42.672 67.762 44.016 70.058C45.36 72.326 47.208 74.118 49.56 75.434ZM61.74 69.218C60.592 69.89 59.262 70.226 57.75 70.226C56.238 70.226 54.894 69.89 53.718 69.218C52.57 68.518 51.66 67.566 50.988 66.362C50.316 65.158 49.98 63.772 49.98 62.204C49.98 60.636 50.302 59.25 50.946 58.046C51.618 56.814 52.528 55.862 53.676 55.19C54.852 54.49 56.182 54.14 57.666 54.14C59.178 54.14 60.508 54.49 61.656 55.19C62.832 55.862 63.742 56.814 64.386 58.046C65.058 59.25 65.394 60.636 65.394 62.204C65.394 63.772 65.072 65.158 64.428 66.362C63.784 67.566 62.888 68.518 61.74 69.218ZM16.088 46.6001C18.02 46.6001 19.686 46.9361 21.086 47.6081C22.514 48.2801 23.69 49.2181 24.614 50.4221C25.538 51.6261 26.224 53.0401 26.672 54.6641C27.148 56.2601 27.386 58.0101 27.386 59.9141C27.386 61.9301 27.176 63.9461 26.756 65.9621C26.336 67.9781 25.65 69.8261 24.698 71.5061C23.746 73.1581 22.444 74.4881 20.792 75.4961C19.168 76.5041 17.138 77.0081 14.702 77.0081C13.078 77.0081 11.51 76.7841 9.998 76.3361C8.514 75.8881 7.156 75.2441 5.924 74.4041L9.578 68.6921C10.446 69.2521 11.356 69.6581 12.308 69.9101C13.26 70.1341 14.086 70.2461 14.786 70.2461C16.326 70.2461 17.6 69.5181 18.608 68.0621C19.2507 67.1337 19.6886 65.8183 19.9215 64.1158C19.5959 64.4334 19.2421 64.7269 18.86 64.9961C17.656 65.8641 16.2 66.2981 14.492 66.2981C12.644 66.2981 11.006 65.8361 9.578 64.9121C8.15 63.9881 7.03 62.7561 6.218 61.2161C5.406 59.6761 5 57.9681 5 56.0921C5 54.2721 5.448 52.6481 6.344 51.2201C7.24 49.7921 8.514 48.6721 10.166 47.8601C11.846 47.0201 13.82 46.6001 16.088 46.6001ZM16.046 53.0681C15.43 53.0681 14.87 53.2221 14.366 53.5301C13.862 53.8381 13.456 54.2581 13.148 54.7901C12.868 55.2941 12.728 55.8681 12.728 56.5121C12.728 57.1561 12.868 57.7581 13.148 58.3181C13.456 58.8781 13.862 59.3261 14.366 59.6621C14.87 59.9701 15.43 60.1241 16.046 60.1241C16.69 60.1241 17.264 59.9701 17.768 59.6621C18.272 59.3261 18.678 58.8781 18.986 58.3181C19.294 57.7581 19.448 57.1561 19.448 56.5121C19.448 55.8681 19.294 55.2941 18.986 54.7901C18.678 54.2581 18.272 53.8381 17.768 53.5301C17.264 53.2221 16.69 53.0681 16.046 53.0681ZM83.467 117.773L83.6825 120H90.5225V92H83.3225V102.023C82.9627 101.534 82.5493 101.113 82.0825 100.76C81.0159 99.9333 79.6559 99.52 78.0025 99.52C76.1092 99.52 74.4825 99.9333 73.1225 100.76C71.7892 101.587 70.7625 102.787 70.0425 104.36C69.3225 105.907 68.9625 107.787 68.9625 110C68.9625 112.187 69.3225 114.067 70.0425 115.64C70.7625 117.213 71.7892 118.413 73.1225 119.24C74.4825 120.067 76.1092 120.48 78.0025 120.48C79.6559 120.48 81.0159 120.067 82.0825 119.24C82.6131 118.839 83.0746 118.35 83.467 117.773ZM83.3225 109.35V110.654C83.2607 111.141 83.1274 111.59 82.9225 112C82.6292 112.56 82.2159 113.013 81.6825 113.36C81.1759 113.68 80.5892 113.84 79.9225 113.84C79.2825 113.84 78.6959 113.68 78.1625 113.36C77.6559 113.013 77.2559 112.56 76.9625 112C76.6692 111.413 76.5092 110.747 76.4825 110C76.5092 109.253 76.6692 108.6 76.9625 108.04C77.2559 107.453 77.6559 107 78.1625 106.68C78.6692 106.36 79.2425 106.2 79.8825 106.2C80.5759 106.2 81.1759 106.36 81.6825 106.68C82.2159 107 82.6292 107.453 82.9225 108.04C83.1274 108.431 83.2607 108.868 83.3225 109.35ZM46.8375 120V100H53.6375L53.9018 102.431C54.3973 101.715 54.9759 101.132 55.6375 100.68C56.7309 99.9067 57.9709 99.52 59.3575 99.52C60.9842 99.52 62.3309 99.8534 63.3975 100.52C64.4642 101.16 65.2509 102.147 65.7575 103.48C66.2909 104.813 66.5575 106.507 66.5575 108.56V109.76V120H59.3575V109.76C59.3575 108.987 59.2642 108.36 59.0775 107.88C58.9175 107.373 58.6642 106.987 58.3175 106.72C57.9975 106.453 57.5842 106.307 57.0775 106.28C56.0642 106.227 55.3042 106.453 54.7975 106.96C54.2909 107.467 54.0375 108.267 54.0375 109.36V120H46.8375ZM24 92V120H43.04V113.2H31.4V109.28H40.6V102.68H31.4V98.8H42.76V92H24Z" fill="black"/>
<rect width="1" height="1" fill="black"/>
<rect x="114" y="124" width="1" height="1" fill="black"/>
</g>
<defs>
<clipPath id="clip0_19_944">
<rect width="115" height="125" fill="white"/>
</clipPath>
</defs>
</svg>
