<svg width="115" height="50" viewBox="0 0 115 50" fill="none" xmlns="http://www.w3.org/2000/svg">
<g clip-path="url(#clip0_8_298)">
<path fill-rule="evenodd" clip-rule="evenodd" d="M37 16V34.2H49.376V29.78H41.81V27.232H47.79V22.942H41.81V20.42H49.194V16H37ZM56.7584 34.5119C55.8917 34.5119 55.0857 34.3906 54.3404 34.1479C53.5951 33.9053 52.9537 33.5673 52.4164 33.1339C51.8964 32.6833 51.5324 32.1459 51.3244 31.5219L55.0424 30.0659C55.2331 30.5339 55.5017 30.8373 55.8484 30.9759C56.1951 31.0973 56.4984 31.1579 56.7584 31.1579C57.0357 31.1579 57.2611 31.0973 57.4344 30.9759C57.6077 30.8546 57.6944 30.6813 57.6944 30.4559C57.6944 30.2133 57.5731 30.0139 57.3304 29.8579C57.0877 29.6846 56.7151 29.5373 56.2124 29.4159L55.1464 29.1559C53.9851 28.8613 53.1097 28.3499 52.5204 27.6219C51.9311 26.8939 51.6364 26.0446 51.6364 25.0739C51.6364 23.7393 52.1217 22.7079 53.0924 21.9799C54.0804 21.2519 55.4151 20.8879 57.0964 20.8879C58.1191 20.8879 58.9771 21.0179 59.6704 21.2779C60.3811 21.5206 60.9617 21.8673 61.4124 22.3179C61.8631 22.7686 62.2097 23.2886 62.4524 23.8779L58.8384 25.2559C58.7171 24.9093 58.5091 24.6579 58.2144 24.5019C57.9371 24.3459 57.5904 24.2679 57.1744 24.2679C56.8797 24.2679 56.6457 24.3373 56.4724 24.4759C56.3164 24.6146 56.2384 24.7793 56.2384 24.9699C56.2384 25.1779 56.3597 25.3599 56.6024 25.5159C56.8624 25.6546 57.2524 25.7933 57.7724 25.9319L58.8384 26.1919C59.6357 26.3826 60.3291 26.6773 60.9184 27.0759C61.5077 27.4573 61.9671 27.9339 62.2964 28.5059C62.6257 29.0779 62.7904 29.7366 62.7904 30.4819C62.7904 31.3313 62.5391 32.0593 62.0364 32.6659C61.5337 33.2553 60.8317 33.7146 59.9304 34.0439C59.0291 34.3559 57.9717 34.5119 56.7584 34.5119ZM71.2979 34.5119C69.8765 34.5119 68.6112 34.2259 67.5019 33.6539C66.3925 33.0646 65.5259 32.2586 64.9019 31.2359C64.2779 30.1959 63.9659 29.0173 63.9659 27.6999C63.9659 26.3653 64.2779 25.1866 64.9019 24.1639C65.5259 23.1413 66.3839 22.3439 67.4759 21.7719C68.5679 21.1826 69.8245 20.8879 71.2459 20.8879C72.6152 20.8879 73.8719 21.2433 75.0159 21.9539C76.1599 22.6646 76.9745 23.6959 77.4599 25.0479L72.9879 26.5039C72.8492 26.1573 72.5892 25.8713 72.2079 25.6459C71.8439 25.4206 71.4366 25.3079 70.9859 25.3079C70.5525 25.3079 70.1712 25.4119 69.8419 25.6199C69.5125 25.8106 69.2525 26.0879 69.0619 26.4519C68.8712 26.8159 68.7759 27.2319 68.7759 27.6999C68.7759 28.1679 68.8712 28.5839 69.0619 28.9479C69.2525 29.2946 69.5212 29.5719 69.8679 29.7799C70.2146 29.9879 70.6045 30.0919 71.0379 30.0919C71.4712 30.0919 71.8699 29.9793 72.2339 29.7539C72.5979 29.5286 72.8579 29.2426 73.0139 28.8959L77.4859 30.3259C77.0005 31.6779 76.1859 32.7179 75.0419 33.4459C73.9152 34.1566 72.6672 34.5119 71.2979 34.5119Z" fill="black"/>
<rect width="1" height="1" fill="black"/>
<rect x="114" y="49" width="1" height="1" fill="black"/>
</g>
<defs>
<clipPath id="clip0_8_298">
<rect width="115" height="50" fill="white"/>
</clipPath>
</defs>
</svg>
