<svg width="115" height="50" viewBox="0 0 115 50" fill="none" xmlns="http://www.w3.org/2000/svg">
<g clip-path="url(#clip0_19_584)">
<rect width="1" height="1" fill="black"/>
<rect x="114" y="49" width="1" height="1" fill="black"/>
<path fill-rule="evenodd" clip-rule="evenodd" d="M27.4 11V39H46.44V32.2H34.8V28.28H44V21.68H34.8V17.8H46.16V11H27.4ZM57.7975 39.48C56.4642 39.48 55.2242 39.2934 54.0775 38.92C52.9308 38.5467 51.9442 38.0267 51.1175 37.36C50.3175 36.6667 49.7575 35.84 49.4375 34.88L55.1575 32.64C55.4508 33.36 55.8642 33.8267 56.3975 34.04C56.9308 34.2267 57.3975 34.32 57.7975 34.32C58.2242 34.32 58.5708 34.2267 58.8375 34.04C59.1042 33.8534 59.2375 33.5867 59.2375 33.24C59.2375 32.8667 59.0508 32.56 58.6775 32.32C58.3042 32.0534 57.7308 31.8267 56.9575 31.64L55.3175 31.24C53.5308 30.7867 52.1842 30 51.2775 28.88C50.3708 27.76 49.9175 26.4534 49.9175 24.96C49.9175 22.9067 50.6642 21.32 52.1575 20.2C53.6775 19.08 55.7308 18.52 58.3175 18.52C59.8908 18.52 61.2108 18.72 62.2775 19.12C63.3708 19.4934 64.2642 20.0267 64.9575 20.72C65.6508 21.4134 66.1842 22.2134 66.5575 23.12L60.9975 25.24C60.8108 24.7067 60.4908 24.32 60.0375 24.08C59.6108 23.84 59.0775 23.72 58.4375 23.72C57.9842 23.72 57.6242 23.8267 57.3575 24.04C57.1175 24.2534 56.9975 24.5067 56.9975 24.8C56.9975 25.12 57.1842 25.4 57.5575 25.64C57.9575 25.8534 58.5575 26.0667 59.3575 26.28L60.9975 26.68C62.2242 26.9734 63.2908 27.4267 64.1975 28.04C65.1042 28.6267 65.8108 29.36 66.3175 30.24C66.8242 31.12 67.0775 32.1334 67.0775 33.28C67.0775 34.5867 66.6908 35.7067 65.9175 36.64C65.1442 37.5467 64.0642 38.2534 62.6775 38.76C61.2908 39.24 59.6642 39.48 57.7975 39.48ZM80.166 39.48C77.9793 39.48 76.0327 39.04 74.326 38.16C72.6193 37.2534 71.286 36.0134 70.326 34.44C69.366 32.84 68.886 31.0267 68.886 29C68.886 26.9467 69.366 25.1334 70.326 23.56C71.286 21.9867 72.606 20.76 74.286 19.88C75.966 18.9734 77.8993 18.52 80.086 18.52C82.1927 18.52 84.126 19.0667 85.886 20.16C87.646 21.2534 88.8993 22.84 89.646 24.92L82.766 27.16C82.5527 26.6267 82.1527 26.1867 81.566 25.84C81.006 25.4934 80.3793 25.32 79.686 25.32C79.0193 25.32 78.4327 25.48 77.926 25.8C77.4193 26.0934 77.0193 26.52 76.726 27.08C76.4327 27.64 76.286 28.28 76.286 29C76.286 29.72 76.4327 30.36 76.726 30.92C77.0193 31.4534 77.4327 31.88 77.966 32.2C78.4993 32.52 79.0993 32.68 79.766 32.68C80.4327 32.68 81.046 32.5067 81.606 32.16C82.166 31.8134 82.566 31.3734 82.806 30.84L89.686 33.04C88.9393 35.12 87.686 36.72 85.926 37.84C84.1927 38.9334 82.2727 39.48 80.166 39.48Z" fill="black"/>
<rect width="1" height="1" fill="black"/>
<rect x="114" y="49" width="1" height="1" fill="black"/>
</g>
<defs>
<clipPath id="clip0_19_584">
<rect width="115" height="50" fill="white"/>
</clipPath>
</defs>
</svg>
