<svg width="115" height="125" viewBox="0 0 115 125" fill="none" xmlns="http://www.w3.org/2000/svg">
<g clip-path="url(#clip0_19_591)">
<path d="M57.75 78.408C54.67 78.408 51.94 77.764 49.56 76.476C47.208 75.16 45.36 73.368 44.016 71.1C42.672 68.804 42 66.186 42 63.246C42 61.006 42.378 58.962 43.134 57.114C43.918 55.266 45.01 53.656 46.41 52.284C47.81 50.912 49.462 49.862 51.366 49.134C53.27 48.378 55.37 48 57.666 48C60.746 48 63.462 48.658 65.814 49.974C68.166 51.262 70.014 53.054 71.358 55.35C72.702 57.646 73.374 60.278 73.374 63.246C73.374 66.186 72.702 68.804 71.358 71.1C71.0467 71.6364 70.7065 72.1462 70.3373 72.6294L75.702 78.048L70.874 82.752C70.91 82.7314 65.056 76.8829 65.056 76.8829C62.897 77.8996 60.4616 78.408 57.75 78.408ZM57.75 71.268C58.3269 71.268 58.8772 71.2191 59.4011 71.1213L56.742 68.412L61.656 63.75L64.6932 66.8565C65.1604 65.785 65.394 64.5815 65.394 63.246C65.394 61.65 65.058 60.25 64.386 59.046C63.742 57.814 62.832 56.862 61.656 56.19C60.508 55.49 59.178 55.14 57.666 55.14C56.182 55.14 54.852 55.49 53.676 56.19C52.528 56.862 51.618 57.814 50.946 59.046C50.302 60.25 49.98 61.65 49.98 63.246C49.98 64.814 50.316 66.2 50.988 67.404C51.66 68.608 52.57 69.56 53.718 70.26C54.894 70.932 56.238 71.268 57.75 71.268Z" fill="black"/>
<rect width="1" height="1" fill="black"/>
<rect x="114" y="124" width="1" height="1" fill="black"/>
<rect width="1" height="1" fill="black"/>
<rect x="114" y="124" width="1" height="1" fill="black"/>
</g>
<defs>
<clipPath id="clip0_19_591">
<rect width="115" height="125" fill="white"/>
</clipPath>
</defs>
</svg>
