<svg width="115" height="50" viewBox="0 0 115 50" fill="none" xmlns="http://www.w3.org/2000/svg">
<g clip-path="url(#clip0_8_492)">
<path d="M40.5 19.5137C40.2239 19.5137 40 19.7375 40 20.0137V30.9863C40 31.2624 40.2239 31.4863 40.5 31.4863H47.7746C47.9073 31.4863 48.0344 31.539 48.1282 31.6328L57.1054 40.6099C57.4204 40.9249 57.959 40.7018 57.959 40.2564V10.7436C57.959 10.2981 57.4204 10.075 57.1054 10.39L48.1282 19.3672C48.0344 19.461 47.9073 19.5137 47.7746 19.5137H40.5ZM66.9384 25.5C66.9384 22.2574 65.2229 19.4352 62.6565 17.852C62.3401 17.6568 61.9498 17.8957 61.9498 18.2674V32.7175C61.9498 33.088 62.3379 33.327 62.6541 33.134C65.2218 31.5664 66.9384 28.7436 66.9384 25.5ZM62.5583 8.14933C62.2481 8.06741 61.9498 8.30537 61.9498 8.62617V11.7377C61.9498 11.9589 62.0958 12.1531 62.306 12.2218C67.8892 14.0486 71.927 19.3054 71.927 25.5C71.927 31.6946 67.8892 36.9514 62.306 38.7781C62.0958 38.8469 61.9498 39.041 61.9498 39.2623V42.3738C61.9498 42.6946 62.2481 42.9326 62.5583 42.8507C70.2521 40.8187 75.9179 33.8226 75.9179 25.5C75.9179 17.1774 70.2521 10.1813 62.5583 8.14933Z" fill="black"/>
<rect width="1" height="1" fill="black"/>
<rect x="114" y="49" width="1" height="1" fill="black"/>
</g>
<defs>
<clipPath id="clip0_8_492">
<rect width="115" height="50" fill="white"/>
</clipPath>
</defs>
</svg>
