<svg width="115" height="125" viewBox="0 0 115 125" fill="none" xmlns="http://www.w3.org/2000/svg">
<g clip-path="url(#clip0_8_495)">
<path fill-rule="evenodd" clip-rule="evenodd" d="M5 10V39.4H12.77V28.564H22.43V21.424H12.77V17.14H25.118V10H5ZM32.949 43.936C31.969 43.936 31.017 43.796 30.093 43.516C29.169 43.264 28.343 42.886 27.615 42.382L30.009 38.56C30.513 38.896 31.059 39.134 31.647 39.274C32.235 39.386 32.697 39.442 33.033 39.442C33.761 39.442 34.405 39.092 34.965 38.392C35.2938 37.9646 35.5309 37.3296 35.6763 36.4871C35.5571 36.5935 35.432 36.6965 35.301 36.796C34.629 37.328 33.775 37.594 32.739 37.594C31.619 37.594 30.639 37.314 29.799 36.754C28.959 36.166 28.287 35.41 27.783 34.486C27.307 33.534 27.069 32.498 27.069 31.378C27.069 29.782 27.671 28.438 28.875 27.346C30.079 26.226 31.745 25.666 33.873 25.666C35.385 25.666 36.645 26.016 37.653 26.716C38.689 27.388 39.459 28.326 39.963 29.53C40.467 30.706 40.719 32.05 40.719 33.562C40.719 34.71 40.593 35.886 40.341 37.09C40.117 38.294 39.711 39.414 39.123 40.45C38.563 41.486 37.779 42.326 36.771 42.97C35.763 43.614 34.489 43.936 32.949 43.936ZM33.831 33.52C34.279 33.52 34.671 33.338 35.007 32.974C35.343 32.582 35.511 32.148 35.511 31.672C35.511 31.196 35.343 30.79 35.007 30.454C34.671 30.118 34.279 29.95 33.831 29.95C33.383 29.95 32.991 30.118 32.655 30.454C32.347 30.79 32.193 31.196 32.193 31.672C32.193 32.148 32.347 32.582 32.655 32.974C32.991 33.338 33.383 33.52 33.831 33.52ZM46 77.4V48H58.18C60.392 48 62.352 48.434 64.06 49.302C65.768 50.142 67.098 51.318 68.05 52.83C69.03 54.314 69.52 56.036 69.52 57.996C69.52 59.956 69.03 61.706 68.05 63.246C67.1323 64.7034 65.8635 65.8617 64.2434 66.7208L70.696 77.4H61.792L56.5027 68.076H53.77V77.4H46ZM53.77 60.936H57.76C58.46 60.936 59.076 60.81 59.608 60.558C60.14 60.306 60.56 59.956 60.868 59.508C61.176 59.06 61.33 58.556 61.33 57.996C61.33 57.156 60.994 56.47 60.322 55.938C59.678 55.378 58.824 55.098 57.76 55.098H53.77V60.936ZM84.2243 39.5297C83.8568 38.7022 84.7022 37.8569 85.5296 38.2244L109.735 48.975C110.587 49.3535 110.49 50.5928 109.589 50.8341L100.081 53.3818C99.7398 53.4733 99.4732 53.7398 99.3818 54.0811L96.8341 63.5893C96.5928 64.4899 95.3534 64.5868 94.975 63.7347L84.2243 39.5297ZM96.3862 27.6484V32.5703H110.203V27.6484H106.265V14.9219H110.203V10H96.3862V14.9219H100.324V27.6484H96.3862Z" fill="black"/>
<rect width="1" height="1" fill="black"/>
<rect x="114" y="124" width="1" height="1" fill="black"/>
</g>
<defs>
<clipPath id="clip0_8_495">
<rect width="115" height="125" fill="white"/>
</clipPath>
</defs>
</svg>
