<?xml version="1.0" encoding="UTF-8" standalone="no"?>
<svg
   width="115"
   height="50"
   viewBox="0 0 115 50"
   fill="none"
   version="1.1"
   id="svg3"
   sodipodi:docname="shift.svg"
   inkscape:version="1.4 (e7c3feb100, 2024-10-09)"
   xmlns:inkscape="http://www.inkscape.org/namespaces/inkscape"
   xmlns:sodipodi="http://sodipodi.sourceforge.net/DTD/sodipodi-0.dtd"
   xmlns="http://www.w3.org/2000/svg"
   xmlns:svg="http://www.w3.org/2000/svg">
  <sodipodi:namedview
     id="namedview3"
     pagecolor="#ffffff"
     bordercolor="#000000"
     borderopacity="0.25"
     inkscape:showpageshadow="2"
     inkscape:pageopacity="0.0"
     inkscape:pagecheckerboard="0"
     inkscape:deskcolor="#d1d1d1"
     inkscape:zoom="5.7565218"
     inkscape:cx="34.569486"
     inkscape:cy="60.192598"
     inkscape:window-width="1920"
     inkscape:window-height="1008"
     inkscape:window-x="0"
     inkscape:window-y="0"
     inkscape:window-maximized="1"
     inkscape:current-layer="svg3"
     showgrid="true"
     showguides="true">
    <inkscape:grid
       id="grid1"
       units="px"
       originx="0"
       originy="0"
       spacingx="1"
       spacingy="1"
       empcolor="#0099e5"
       empopacity="0.30196078"
       color="#0099e5"
       opacity="0.14901961"
       empspacing="5"
       enabled="true"
       visible="true" />
  </sodipodi:namedview>
  <defs
     id="defs3">
    <clipPath
       id="clip0_19_1027">
      <rect
         width="115"
         height="50"
         fill="white"
         id="rect3" />
    </clipPath>
  </defs>
  <path
     d="m 79.923828,10.033203 c -2.439109,0 -4.417326,0.771343 -5.935547,2.314453 -1.493332,1.518221 -2.240234,3.80781 -2.240234,6.869141 v 0.447265 h -3.285156 v 5.078125 h 3.285156 v 14.222657 h 6.083984 V 24.742187 h 5.078125 v -5.078125 h -5.078125 v -0.224609 c 0,-1.443554 0.223875,-2.499876 0.671875,-3.171875 0.448,-0.671999 1.107405,-1.007812 1.978516,-1.007812 0.945777,0 1.804617,0.348033 2.576172,1.044921 l 2.314453,-4.255859 C 84.850381,11.451495 84.117652,10.96513 83.171875,10.591797 82.226098,10.218464 81.143383,10.033203 79.923828,10.033203 Z M 63.085937,10.40625 c -0.970666,0 -1.805065,0.360254 -2.501953,1.082031 -0.696888,0.696889 -1.044922,1.543508 -1.044922,2.539063 0,0.970665 0.348034,1.817285 1.044922,2.539062 0.696888,0.696889 1.531288,1.044922 2.501953,1.044922 0.970666,0 1.805066,-0.348033 2.501954,-1.044922 0.696888,-0.721777 1.044921,-1.568397 1.044921,-2.539062 10e-7,-0.995555 -0.360253,-1.842174 -1.082031,-2.539063 -0.696888,-0.721777 -1.519066,-1.082031 -2.464844,-1.082031 z m -26.021484,0.148438 v 28.410156 h 6.085938 v -9.109375 c 0,-1.144888 0.136379,-2.113712 0.410156,-2.910157 0.298667,-0.796444 0.709756,-1.406967 1.232422,-1.830078 0.522666,-0.42311 1.157631,-0.634765 1.904297,-0.634765 1.144888,0 1.952893,0.44775 2.425781,1.34375 0.472889,0.895999 0.708984,2.153708 0.708984,3.771484 v 9.369141 h 6.085938 V 27.541016 c 0,-2.762665 -0.622744,-4.852819 -1.867188,-6.271485 -1.244443,-1.418665 -2.94795,-2.126953 -5.113281,-2.126953 -1.269333,0 -2.390663,0.236096 -3.361328,0.708984 -0.970666,0.472889 -1.778671,1.207571 -2.425781,2.203125 V 10.554688 Z m -12.878906,0.560546 c -1.816887,0 -3.522347,0.311372 -5.115235,0.933594 -1.567998,0.622221 -2.850148,1.566605 -3.845703,2.835938 -0.970665,1.269332 -1.455078,2.850633 -1.455078,4.742187 0,1.717332 0.409136,3.111419 1.230469,4.181641 0.821333,1.070221 1.804331,1.866006 2.949219,2.388672 1.169777,0.497777 2.63914,1.008584 4.40625,1.53125 1.194665,0.348444 2.128781,0.659816 2.800781,0.933593 0.671999,0.273778 1.231688,0.621812 1.679687,1.044922 0.448,0.423111 0.671875,0.958358 0.671875,1.605469 10e-7,0.796444 -0.335812,1.406967 -1.007812,1.830078 -0.64711,0.398222 -1.505951,0.595703 -2.576172,0.595703 -1.443555,0 -2.701263,-0.348033 -3.771484,-1.044922 -1.045332,-0.721776 -1.841117,-1.704775 -2.388672,-2.949218 l -5.152344,2.949218 c 0.721777,2.190221 2.115865,3.859019 4.181641,5.003907 2.090664,1.169776 4.392474,1.753906 6.90625,1.753906 1.667554,0 3.297737,-0.286931 4.890625,-0.859375 1.592888,-0.547555 2.911699,-1.455278 3.957031,-2.72461 1.070221,-1.294221 1.605469,-2.936625 1.605469,-4.927734 0,-1.717332 -0.42331,-3.111419 -1.269532,-4.181641 -0.846221,-1.070221 -1.85366,-1.878226 -3.023437,-2.425781 -1.169777,-0.547555 -2.651361,-1.082802 -4.443359,-1.605469 -1.169777,-0.348443 -2.089719,-0.647595 -2.761719,-0.896484 -0.671999,-0.248889 -1.219468,-0.572481 -1.642578,-0.970703 -0.423111,-0.398222 -0.634766,-0.896808 -0.634766,-1.494141 0,-0.746666 0.311372,-1.355236 0.933594,-1.828125 0.64711,-0.472888 1.479556,-0.710937 2.5,-0.710937 1.194665,0 2.204058,0.311372 3.02539,0.933594 0.846222,0.597332 1.467013,1.468393 1.865235,2.613281 l 5.226562,-2.949219 C 33.57929,16.079829 32.934058,14.936012 31.988281,13.990234 31.042504,13.044458 29.884512,12.334217 28.515625,11.861328 27.171626,11.363551 25.728656,11.115234 24.185547,11.115234 Z m 63.427734,2.351563 v 6.197265 h -3.546875 v 5.115235 h 3.546875 v 6.607422 c 0,3.011552 0.67358,5.115881 2.017578,6.310547 1.368888,1.169776 3.196553,1.753906 5.486328,1.753906 2.538665,0 4.506612,-0.622744 5.900393,-1.867188 l -2.128908,-4.21875 c -0.423111,0.323556 -0.8342,0.547431 -1.232422,0.671875 -0.398222,0.124445 -0.821531,0.1875 -1.269531,0.1875 -1.045332,0 -1.75362,-0.335813 -2.126953,-1.007812 -0.373333,-0.696889 -0.560547,-1.667666 -0.560547,-2.91211 v -5.52539 h 5.898437 V 19.664062 H 93.699219 V 13.466797 Z M 60.0625,19.664062 v 19.300782 h 6.083984 V 19.664062 Z"
     style="-inkscape-font-specification:'HarmonyOS Sans Heavy';fill:#000000"
     id="path1" />
  <rect
     style="fill:#000000"
     id="rect2"
     width="1"
     height="1"
     x="0"
     y="0" />
  <rect
     style="fill:#000000"
     id="rect6"
     width="1"
     height="1"
     x="114"
     y="49" />
</svg>
