<?xml version="1.0" encoding="UTF-8" standalone="no"?>
<svg
   width="115"
   height="125"
   viewBox="0 0 115 125"
   fill="none"
   version="1.1"
   id="svg3"
   sodipodi:docname="slash.svg"
   inkscape:version="1.4 (e7c3feb100, 2024-10-09)"
   xmlns:inkscape="http://www.inkscape.org/namespaces/inkscape"
   xmlns:sodipodi="http://sodipodi.sourceforge.net/DTD/sodipodi-0.dtd"
   xmlns="http://www.w3.org/2000/svg"
   xmlns:svg="http://www.w3.org/2000/svg">
  <sodipodi:namedview
     id="namedview3"
     pagecolor="#ffffff"
     bordercolor="#000000"
     borderopacity="0.25"
     inkscape:showpageshadow="2"
     inkscape:pageopacity="0.0"
     inkscape:pagecheckerboard="0"
     inkscape:deskcolor="#d1d1d1"
     inkscape:zoom="22.627417"
     inkscape:cx="92.498406"
     inkscape:cy="23.621786"
     inkscape:window-width="1920"
     inkscape:window-height="1008"
     inkscape:window-x="0"
     inkscape:window-y="0"
     inkscape:window-maximized="1"
     inkscape:current-layer="svg3"
     showgrid="true">
    <inkscape:grid
       id="grid1"
       units="px"
       originx="0"
       originy="0"
       spacingx="1"
       spacingy="1"
       empcolor="#0099e5"
       empopacity="0.30196078"
       color="#0099e5"
       opacity="0.14901961"
       empspacing="5"
       enabled="true"
       visible="true" />
  </sodipodi:namedview>
  <defs
     id="defs3">
    <clipPath
       id="clip0_19_643">
      <rect
         width="115"
         height="125"
         fill="white"
         id="rect3" />
    </clipPath>
  </defs>
  <path
     d="m 65.804687,47.310547 c -2.513776,0 -4.691427,0.598303 -6.533203,1.792969 -1.841776,1.194666 -3.211422,2.949007 -4.107422,5.263671 l 5.003907,2.91211 c 0.547555,-1.368887 1.243622,-2.402721 2.089843,-3.09961 0.846222,-0.696888 1.855614,-1.044921 3.025391,-1.044921 0.895999,0 1.616507,0.199434 2.164063,0.597656 0.547555,0.373333 0.822265,0.89636 0.822265,1.568359 0,0.647111 -0.236095,1.23124 -0.708984,1.753906 -0.448,0.497778 -1.1338,1.108302 -2.054688,1.830079 -1.020443,0.796444 -1.828448,1.516951 -2.425781,2.164062 -0.597333,0.622221 -1.020642,1.432179 -1.269531,2.427734 -0.248889,0.995555 -0.136951,2.139374 0.335937,3.433594 h 4.927735 c -0.09956,-0.796443 -0.01206,-1.504731 0.261718,-2.126953 0.298667,-0.622221 0.683362,-1.157469 1.15625,-1.605469 0.497778,-0.472888 1.183577,-1.032577 2.054688,-1.679687 0.995555,-0.771555 1.791339,-1.445134 2.388672,-2.017578 0.597333,-0.572444 1.095919,-1.268511 1.49414,-2.089844 0.423111,-0.846221 0.634766,-1.816999 0.634766,-2.912109 0,-1.493332 -0.41109,-2.775482 -1.232422,-3.845704 -0.821332,-1.095109 -1.942662,-1.915335 -3.361328,-2.46289 -1.393777,-0.572444 -2.948684,-0.859375 -4.666016,-0.859375 z M 49.191406,48.878906 38.962891,76.207031 h 5.824218 L 55.015625,48.878906 Z m 15.716797,20.607422 c -0.945777,0 -1.766002,0.362207 -2.462891,1.083984 -0.671999,0.696888 -1.007812,1.541555 -1.007812,2.53711 0,0.970666 0.335812,1.805064 1.007812,2.501953 0.672,0.721777 1.492226,1.082031 2.462891,1.082031 0.970666,0 1.805065,-0.360254 2.501953,-1.082031 0.721777,-0.696889 1.082032,-1.531287 1.082031,-2.501953 10e-7,-0.995555 -0.360254,-1.840221 -1.082031,-2.53711 -0.696888,-0.721777 -1.531287,-1.083984 -2.501953,-1.083984 z"
     style="-inkscape-font-specification:'HarmonyOS Sans Heavy';fill:#000000;fill-opacity:1"
     id="path3" />
  <g
     id="g1"
     transform="rotate(42.694438,95.262387,108.34789)">
    <path
       id="path1"
       style="fill:#000000"
       d="m 54.386839,40.857542 c 0.0984,-0.367212 -0.0069,-0.788785 -0.372921,-1.055182 l -5.062841,-3.684542 -1.917852,6.15541 6.503096,-0.688504 c 0.450172,-0.04773 0.752114,-0.359972 0.850518,-0.727182 z M 45.786595,33.812358 42.244844,31.233875 38.524176,43.175483 43.017591,42.69957 Z M 39.141114,29.148313 32.601126,24.21544 c -0.753754,-0.54874 -1.779065,0.154661 -1.537787,1.055167 l 2.548508,9.508859 c 0.0915,0.341274 -0.0068,0.705359 -0.256688,0.955163 l -6.959535,6.959658 c -0.659293,0.659272 -0.123688,1.780621 0.803502,1.682362 l 7.598191,-0.926019 z"
       sodipodi:nodetypes="sccccscccccccccccccc" />
  </g>
  <rect
     style="fill:#000000"
     id="rect1"
     width="1"
     height="1"
     x="0"
     y="0" />
  <rect
     style="fill:#000000"
     id="rect2"
     width="1"
     height="1"
     x="114"
     y="124" />
</svg>
