<svg width="115" height="50" viewBox="0 0 115 50" fill="none" xmlns="http://www.w3.org/2000/svg">
<g clip-path="url(#clip0_8_391)">
<path fill-rule="evenodd" clip-rule="evenodd" d="M22 16V34.2H26.81V28.74H29.54C30.9093 28.74 32.1227 28.4713 33.18 27.934C34.2373 27.3793 35.0607 26.6253 35.65 25.672C36.2567 24.7013 36.56 23.592 36.56 22.344C36.56 21.096 36.2567 19.9953 35.65 19.042C35.0607 18.0887 34.2373 17.3433 33.18 16.806C32.1227 16.2687 30.9093 16 29.54 16H22ZM29.41 24.32H26.81V20.394H29.41C30.0687 20.394 30.5973 20.576 30.996 20.94C31.412 21.304 31.62 21.772 31.62 22.344C31.62 22.9333 31.412 23.41 30.996 23.774C30.5973 24.138 30.0687 24.32 29.41 24.32ZM45.452 34.1999L45.4029 33.0694C45.3848 33.0911 45.3665 33.1126 45.348 33.1339C44.5507 34.0526 43.4327 34.5119 41.994 34.5119C40.486 34.5119 39.3074 34.1739 38.458 33.4979C37.626 32.8046 37.21 31.8166 37.21 30.5339C37.21 29.1819 37.626 28.1853 38.458 27.5439C39.3074 26.8853 40.486 26.5559 41.994 26.5559H45.2624C45.2496 26.431 45.2348 26.3097 45.218 26.1919C45.1487 25.7066 44.9754 25.3253 44.698 25.0479C44.4207 24.7706 43.97 24.6319 43.346 24.6319C42.9127 24.6319 42.5574 24.7359 42.28 24.9439C42.0027 25.1519 41.7687 25.3946 41.578 25.6719L37.496 24.3719C37.86 23.6613 38.3107 23.0459 38.848 22.5259C39.4027 22.0059 40.044 21.6073 40.772 21.3299C41.5174 21.0353 42.3407 20.8879 43.242 20.8879C44.6287 20.8879 45.816 21.1393 46.804 21.6419C47.792 22.1446 48.546 22.8466 49.066 23.7479C49.586 24.6493 49.846 25.6979 49.846 26.8939V34.1999H45.452ZM43.84 29.2339H45.322C45.322 29.6326 45.2354 29.9879 45.062 30.2999C44.8887 30.5946 44.646 30.8286 44.334 31.0019C44.022 31.1579 43.6494 31.2359 43.216 31.2359C42.8174 31.2359 42.5054 31.1666 42.28 31.0279C42.0547 30.8893 41.942 30.6899 41.942 30.4299C41.942 30.0486 42.1067 29.7539 42.436 29.5459C42.7654 29.3379 43.2334 29.2339 43.84 29.2339ZM71.9986 34.5119C71.132 34.5119 70.326 34.3906 69.5806 34.1479C68.8353 33.9053 68.194 33.5673 67.6566 33.1339C67.1366 32.6833 66.7726 32.1459 66.5646 31.5219L70.2826 30.0659C70.4733 30.5339 70.742 30.8373 71.0886 30.9759C71.4353 31.0973 71.7386 31.1579 71.9986 31.1579C72.276 31.1579 72.5013 31.0973 72.6746 30.9759C72.848 30.8546 72.9346 30.6813 72.9346 30.4559C72.9346 30.2133 72.8133 30.0139 72.5706 29.8579C72.328 29.6846 71.9553 29.5373 71.4526 29.4159L70.3866 29.1559C69.2253 28.8613 68.35 28.3499 67.7606 27.6219C67.1713 26.8939 66.8766 26.0446 66.8766 25.0739C66.8766 23.7393 67.362 22.7079 68.3326 21.9799C69.3206 21.2519 70.6553 20.8879 72.3366 20.8879C73.3593 20.8879 74.2173 21.0179 74.9106 21.2779C75.6213 21.5206 76.202 21.8673 76.6526 22.3179C77.1033 22.7686 77.45 23.2886 77.6926 23.8779L74.0786 25.2559C73.9573 24.9093 73.7493 24.6579 73.4546 24.5019C73.1773 24.3459 72.8306 24.2679 72.4146 24.2679C72.12 24.2679 71.886 24.3373 71.7126 24.4759C71.5566 24.6146 71.4786 24.7793 71.4786 24.9699C71.4786 25.1779 71.6 25.3599 71.8426 25.5159C72.1026 25.6546 72.4926 25.7933 73.0126 25.9319L74.0786 26.1919C74.876 26.3826 75.5693 26.6773 76.1586 27.0759C76.748 27.4573 77.2073 27.9339 77.5366 28.5059C77.866 29.0779 78.0306 29.7366 78.0306 30.4819C78.0306 31.3313 77.7793 32.0593 77.2766 32.6659C76.774 33.2553 76.072 33.7146 75.1706 34.0439C74.2693 34.3559 73.212 34.5119 71.9986 34.5119ZM86.4341 34.5119C85.0301 34.5119 83.7821 34.2259 82.6901 33.6539C81.5981 33.0819 80.7401 32.2846 80.1161 31.2619C79.5094 30.2393 79.2061 29.0519 79.2061 27.6999C79.2061 26.3479 79.5094 25.1606 80.1161 24.1379C80.7228 23.1153 81.5634 22.3179 82.6381 21.7459C83.7128 21.1739 84.9521 20.8879 86.3561 20.8879C87.6908 20.8879 88.8608 21.1826 89.8661 21.7719C90.8888 22.3439 91.6861 23.2193 92.2581 24.3979C92.8475 25.5766 93.1421 27.0673 93.1421 28.8699H84.038C84.0805 29.1525 84.1512 29.4125 84.2501 29.6499C84.4234 30.0659 84.6834 30.3866 85.0301 30.6119C85.3768 30.8373 85.8015 30.9499 86.3041 30.9499C86.8761 30.9499 87.3701 30.8199 87.7861 30.5599C88.2194 30.2826 88.4881 29.9446 88.5921 29.5459L92.7001 30.8199C92.3881 31.7213 91.8855 32.4493 91.1921 33.0039C90.5161 33.5413 89.7534 33.9313 88.9041 34.1739C88.0721 34.3993 87.2488 34.5119 86.4341 34.5119ZM88.3798 26.0099H84.0681C84.1183 25.681 84.205 25.4037 84.3281 25.1779C84.5534 24.7966 84.8308 24.5279 85.1601 24.3719C85.5068 24.1986 85.8621 24.1119 86.2261 24.1119C86.5728 24.1119 86.9108 24.1986 87.2401 24.3719C87.5868 24.5279 87.8728 24.7966 88.0981 25.1779C88.2315 25.4037 88.3254 25.681 88.3798 26.0099ZM60.15 32.6234L60.3213 34.2H64.7413V21.2H60.0613V28.116C60.0613 28.8093 59.8967 29.3206 59.5673 29.65C59.238 29.9793 58.744 30.1353 58.0853 30.118C57.756 30.1006 57.4787 30.0053 57.2533 29.832C57.0453 29.6586 56.8807 29.4073 56.7593 29.078C56.6553 28.7486 56.6033 28.3413 56.6033 27.856V21.2H51.9233V27.856V28.636C51.9233 29.9706 52.088 31.0713 52.4173 31.938C52.764 32.8046 53.284 33.4546 53.9773 33.888C54.6707 34.304 55.546 34.512 56.6033 34.512C57.5047 34.512 58.3107 34.2693 59.0213 33.784C59.4515 33.4797 59.8278 33.0928 60.15 32.6234Z" fill="black"/>
<rect width="1" height="1" fill="black"/>
<rect x="114" y="49" width="1" height="1" fill="black"/>
</g>
<defs>
<clipPath id="clip0_8_391">
<rect width="115" height="50" fill="white"/>
</clipPath>
</defs>
</svg>
