<svg width="115" height="125" viewBox="0 0 115 125" fill="none" xmlns="http://www.w3.org/2000/svg">
<g clip-path="url(#clip0_19_721)">
<path fill-rule="evenodd" clip-rule="evenodd" d="M14.7047 16.3839L19.6854 21.3646C19.9714 21.6506 20.4016 21.7362 20.7752 21.5814C21.1489 21.4266 21.3925 21.062 21.3925 20.6575V6.26501C21.3925 5.71273 20.9448 5.26501 20.3925 5.26501H6.00003C5.59557 5.26501 5.23093 5.50866 5.07615 5.88233C4.92137 6.25601 5.00692 6.68612 5.29292 6.97212L10.407 12.0862C8.03651 15.1082 6.5992 18.9002 6.5992 23.0563C6.5992 30.94 11.7367 37.5959 18.8303 39.9491C19.0824 40.0328 19.3575 40.0127 19.5948 39.8933C19.832 39.7738 20.012 39.5649 20.0951 39.3126L21.3424 35.5226C21.5151 34.998 21.2298 34.4328 20.7052 34.2601C16.0012 32.7118 12.5971 28.2722 12.5971 23.0563C12.5971 20.5686 13.3848 18.2854 14.7047 16.3839ZM28.3549 11.2244C27.5275 10.8569 26.6822 11.7022 27.0497 12.5297L37.8003 36.7347C38.1788 37.5868 39.4181 37.4899 39.6594 36.5893L42.2071 27.0811C42.2985 26.7398 42.5651 26.4733 42.9064 26.3818L52.4146 23.8341C53.3151 23.5928 53.4121 22.3535 52.56 21.975L28.3549 11.2244ZM54.316 55.14V77.4H62.086V55.14H70.36V48H46V55.14H54.316ZM88.1239 114.486V119.946H110.048V113.142H97.9099C98.4139 112.554 98.9459 112.036 99.5059 111.588C100.066 111.14 100.612 110.748 101.144 110.412L103.538 108.858C105.358 107.682 106.842 106.38 107.99 104.952C109.166 103.496 109.754 101.718 109.754 99.618C109.754 97.714 109.292 96.048 108.368 94.62C107.472 93.164 106.17 92.03 104.462 91.218C102.782 90.406 100.752 90 98.3719 90C96.2439 90 94.3679 90.406 92.7439 91.218C91.1479 92.002 89.8599 93.052 88.8799 94.368C87.9278 95.684 87.3259 97.098 87.0739 98.61L95.0959 99.912C95.2359 99.408 95.4459 98.946 95.7259 98.526C96.0339 98.106 96.4118 97.77 96.8598 97.518C97.3079 97.266 97.8119 97.14 98.3719 97.14C99.1839 97.14 99.8279 97.252 100.304 97.476C100.808 97.672 101.172 97.966 101.396 98.358C101.648 98.75 101.774 99.198 101.774 99.702C101.774 100.234 101.578 100.766 101.186 101.298C100.794 101.83 100.318 102.32 99.7579 102.768C99.1979 103.188 98.6659 103.566 98.1618 103.902L95.2218 105.792C93.8779 106.66 92.6599 107.64 91.5679 108.732C90.5039 109.796 89.6638 110.846 89.0479 111.882C88.4319 112.89 88.1239 113.758 88.1239 114.486ZM75.537 119.946V100.139C75.0298 100.423 74.5118 100.669 73.983 100.878C72.639 101.41 71.197 101.592 69.657 101.424V94.368C70.469 94.452 71.267 94.298 72.051 93.906C72.863 93.514 73.633 92.996 74.361 92.352C75.117 91.708 75.775 91.078 76.335 90.462L76.4243 90.546H82.887V119.946H75.537ZM47 90.546V119.946H54.77V109.11H64.43V101.97H54.77V97.686H67.118V90.546H47Z" fill="black"/>
<rect width="1" height="1" fill="black"/>
<rect x="114" y="124" width="1" height="1" fill="black"/>
</g>
<defs>
<clipPath id="clip0_19_721">
<rect width="115" height="125" fill="white"/>
</clipPath>
</defs>
</svg>
