<svg width="115" height="125" viewBox="0 0 115 125" fill="none" xmlns="http://www.w3.org/2000/svg">
<g clip-path="url(#clip0_8_399)">
<path fill-rule="evenodd" clip-rule="evenodd" d="M97.0307 22.5C97.0307 18.2914 98.5289 14.4611 100.992 11.4418C101.197 11.1897 101.186 10.8215 100.956 10.5915L96.4211 6.05704C96.031 5.66697 96.3073 5 96.8589 5H109.745C110.087 5 110.364 5.27723 110.364 5.6192V18.5051C110.364 19.0568 109.697 19.333 109.307 18.943L104.81 14.4458C104.552 14.1884 104.129 14.2068 103.909 14.4971C102.225 16.7265 101.197 19.4777 101.197 22.5C101.197 28.1819 104.768 33.0445 109.78 34.9593C110.1 35.0813 110.277 35.43 110.17 35.7548L109.258 38.5271C109.151 38.8525 108.799 39.0301 108.478 38.9108C101.8 36.4299 97.0307 30.0316 97.0307 22.5ZM84.0884 33.3623C83.7209 32.5348 84.5662 31.6895 85.3937 32.057L109.599 42.8077C110.451 43.1861 110.354 44.4254 109.453 44.6668L99.9451 47.2145C99.6038 47.3059 99.3373 47.5725 99.2458 47.9138L96.6981 57.4219C96.4568 58.3225 95.2175 58.4195 94.839 57.5674L84.0884 33.3623ZM5 39.4V10H25.118V17.14H12.77V21.424H22.43V28.564H12.77V39.4H5ZM45.9815 39.022L45.9332 39.064H52.6595V43.6H39.1355V40.03C39.1355 39.61 39.3315 39.092 39.7235 38.476C40.1435 37.86 40.6895 37.216 41.3615 36.544C42.0615 35.872 42.8315 35.27 43.6715 34.738L45.0155 33.898C45.4635 33.618 45.9395 33.282 46.4435 32.89C46.9475 32.47 47.1995 32.036 47.1995 31.588C47.1995 31.224 47.0595 30.93 46.7795 30.706C46.5275 30.482 46.0795 30.37 45.4355 30.37C45.0715 30.37 44.7355 30.51 44.4275 30.79C44.1475 31.042 43.9515 31.378 43.8395 31.798L38.5055 30.958C38.6455 30.006 39.0095 29.138 39.5975 28.354C40.2135 27.542 41.0115 26.884 41.9915 26.38C42.9995 25.876 44.1615 25.624 45.4775 25.624C47.6895 25.624 49.4115 26.17 50.6435 27.262C51.8755 28.354 52.4915 29.782 52.4915 31.546C52.4915 32.918 52.1135 34.024 51.3575 34.864C50.6295 35.704 49.7195 36.474 48.6275 37.174L47.1575 38.098C46.7935 38.322 46.4015 38.63 45.9815 39.022ZM54.316 77.4V55.14H46V48H70.36V55.14H62.086V77.4H54.316ZM30.681 32.2861V43.6H35.553V25.96H31.2725L31.227 25.918C30.611 26.562 29.967 27.122 29.295 27.598C28.623 28.074 27.937 28.27 27.237 28.186V32.89C28.4439 33.0184 29.5919 32.8171 30.681 32.2861Z" fill="black"/>
<rect width="1" height="1" fill="black"/>
<rect x="114" y="124" width="1" height="1" fill="black"/>
</g>
<defs>
<clipPath id="clip0_8_399">
<rect width="115" height="125" fill="white"/>
</clipPath>
</defs>
</svg>
