<svg width="115" height="50" viewBox="0 0 115 50" fill="none" xmlns="http://www.w3.org/2000/svg">
<path fill-rule="evenodd" clip-rule="evenodd" d="M17.88 37.12C20.04 38.3467 22.52 38.96 25.32 38.96C27.48 38.96 29.44 38.5867 31.2 37.84C32.96 37.0933 34.4667 36.0533 35.72 34.72C36.9733 33.36 37.92 31.8 38.56 30.04L31.52 27.8C31.12 28.68 30.64 29.4533 30.08 30.12C29.5467 30.76 28.8933 31.2667 28.12 31.64C27.3733 31.9867 26.48 32.16 25.44 32.16C24.1067 32.16 22.92 31.84 21.88 31.2C20.8667 30.5333 20.0667 29.6267 19.48 28.48C18.8933 27.3067 18.6 25.9733 18.6 24.48C18.6 22.96 18.88 21.6267 19.44 20.48C20.0267 19.3333 20.8267 18.44 21.84 17.8C22.8533 17.1333 24.0133 16.8 25.32 16.8C26.3067 16.8 27.1867 16.9733 27.96 17.32C28.76 17.6667 29.4533 18.1733 30.04 18.84C30.6267 19.48 31.1067 20.24 31.48 21.12L38.52 18.88C37.8533 17.12 36.8933 15.5733 35.64 14.24C34.3867 12.9067 32.8933 11.8667 31.16 11.12C29.4267 10.3733 27.48 10 25.32 10C22.52 10 20.04 10.6267 17.88 11.88C15.7467 13.1067 14.0667 14.8133 12.84 17C11.6133 19.16 11 21.6533 11 24.48C11 27.3067 11.6133 29.8133 12.84 32C14.0667 34.16 15.7467 35.8667 17.88 37.12ZM52.6207 38.48L52.5451 36.7407C52.5278 36.7614 52.5105 36.782 52.493 36.8024C52.4823 36.815 52.4715 36.8275 52.4607 36.84C51.234 38.2533 49.514 38.96 47.3007 38.96C44.9807 38.96 43.1673 38.44 41.8607 37.4C40.5807 36.3333 39.9407 34.8133 39.9407 32.84C39.9407 30.76 40.5807 29.2267 41.8607 28.24C43.1673 27.2267 44.9807 26.72 47.3007 26.72H52.3289C52.3093 26.5278 52.2866 26.3412 52.2607 26.16C52.154 25.4133 51.8873 24.8267 51.4607 24.4C51.034 23.9733 50.3407 23.76 49.3807 23.76C48.714 23.76 48.1673 23.92 47.7407 24.24C47.314 24.56 46.954 24.9333 46.6607 25.36L40.3807 23.36C40.9407 22.2667 41.634 21.32 42.4607 20.52C43.314 19.72 44.3007 19.1067 45.4207 18.68C46.5673 18.2267 47.834 18 49.2207 18C51.354 18 53.1807 18.3867 54.7007 19.16C56.2207 19.9333 57.3807 21.0133 58.1807 22.4C58.9807 23.7867 59.3807 25.4 59.3807 27.24V38.48H52.6207ZM50.1407 30.84H52.4207C52.4207 31.4533 52.2873 32 52.0207 32.48C51.754 32.9333 51.3807 33.2933 50.9007 33.56C50.4207 33.8 49.8473 33.92 49.1807 33.92C48.5673 33.92 48.0873 33.8133 47.7407 33.6C47.394 33.3867 47.2207 33.08 47.2207 32.68C47.2207 32.0933 47.474 31.64 47.9807 31.32C48.4873 31 49.2073 30.84 50.1407 30.84ZM62.9766 18.48V46.48H70.1766V36.4301C70.5395 36.9307 70.9528 37.3606 71.4166 37.72C72.5099 38.5467 73.8832 38.96 75.5366 38.96C77.4299 38.96 79.0432 38.5467 80.3766 37.72C81.7366 36.8933 82.7766 35.6933 83.4966 34.12C84.2166 32.5467 84.5766 30.6667 84.5766 28.48C84.5766 26.2667 84.2166 24.3867 83.4966 22.84C82.7766 21.2667 81.7366 20.0667 80.3766 19.24C79.0432 18.4133 77.4299 18 75.5366 18C73.8832 18 72.5099 18.4133 71.4166 19.24C70.8862 19.651 70.4218 20.1543 70.0233 20.7499L69.7766 18.48H62.9766ZM70.1766 28.48C70.1766 29.2267 70.3232 29.8933 70.6166 30.48C70.9099 31.04 71.3099 31.4933 71.8166 31.84C72.3499 32.16 72.9499 32.32 73.6166 32.32C74.2832 32.32 74.8699 32.16 75.3766 31.84C75.8832 31.4933 76.2832 31.04 76.5766 30.48C76.8966 29.8933 77.0566 29.2267 77.0566 28.48C77.0566 27.7333 76.9099 27.08 76.6166 26.52C76.3232 25.9333 75.9232 25.48 75.4166 25.16C74.9099 24.84 74.3232 24.68 73.6566 24.68C72.9899 24.68 72.3899 24.84 71.8566 25.16C71.3232 25.48 70.9099 25.9333 70.6166 26.52C70.3232 27.08 70.1766 27.7333 70.1766 28.48ZM91.0306 38.4C92.1773 38.7733 93.4173 38.96 94.7506 38.96C96.6173 38.96 98.244 38.72 99.6306 38.24C101.017 37.7333 102.097 37.0267 102.871 36.12C103.644 35.1867 104.031 34.0667 104.031 32.76C104.031 31.6133 103.777 30.6 103.271 29.72C102.764 28.84 102.057 28.1067 101.151 27.52C100.244 26.9067 99.1773 26.4533 97.9506 26.16L96.3106 25.76C95.5106 25.5467 94.9106 25.3333 94.5106 25.12C94.1373 24.88 93.9506 24.6 93.9506 24.28C93.9506 23.9867 94.0706 23.7333 94.3106 23.52C94.5773 23.3067 94.9373 23.2 95.3906 23.2C96.0306 23.2 96.564 23.32 96.9906 23.56C97.444 23.8 97.764 24.1867 97.9506 24.72L103.511 22.6C103.137 21.6933 102.604 20.8933 101.911 20.2C101.217 19.5067 100.324 18.9733 99.2306 18.6C98.164 18.2 96.844 18 95.2706 18C92.684 18 90.6306 18.56 89.1106 19.68C87.6173 20.8 86.8706 22.3867 86.8706 24.44C86.8706 25.9333 87.324 27.24 88.2306 28.36C89.1373 29.48 90.484 30.2667 92.2706 30.72L93.9106 31.12C94.684 31.3067 95.2573 31.5333 95.6306 31.8C96.004 32.04 96.1906 32.3467 96.1906 32.72C96.1906 33.0667 96.0573 33.3333 95.7906 33.52C95.524 33.7067 95.1773 33.8 94.7506 33.8C94.3506 33.8 93.884 33.7067 93.3506 33.52C92.8173 33.3067 92.404 32.84 92.1106 32.12L86.3906 34.36C86.7106 35.32 87.2706 36.1467 88.0706 36.84C88.8973 37.5067 89.884 38.0267 91.0306 38.4Z" fill="black"/>
</svg>
