<svg width="115" height="50" viewBox="0 0 115 50" fill="none" xmlns="http://www.w3.org/2000/svg">
<g clip-path="url(#clip0_5_115)">
<path fill-rule="evenodd" clip-rule="evenodd" d="M31.472 30.628C32.876 31.4253 34.488 31.824 36.308 31.824C37.712 31.824 38.986 31.5813 40.13 31.096C41.274 30.6107 42.2533 29.9347 43.068 29.068C43.8827 28.184 44.498 27.17 44.914 26.026L40.338 24.57C40.078 25.142 39.766 25.6447 39.402 26.078C39.0553 26.494 38.6307 26.8233 38.128 27.066C37.6427 27.2913 37.062 27.404 36.386 27.404C35.5193 27.404 34.748 27.196 34.072 26.78C33.4133 26.3467 32.8933 25.7573 32.512 25.012C32.1307 24.2493 31.94 23.3827 31.94 22.412C31.94 21.424 32.122 20.5573 32.486 19.812C32.8673 19.0667 33.3873 18.486 34.046 18.07C34.7047 17.6367 35.4587 17.42 36.308 17.42C36.9493 17.42 37.5213 17.5327 38.024 17.758C38.544 17.9833 38.9947 18.3127 39.376 18.746C39.7573 19.162 40.0693 19.656 40.312 20.228L44.888 18.772C44.4547 17.628 43.8307 16.6227 43.016 15.756C42.2013 14.8893 41.2307 14.2133 40.104 13.728C38.9773 13.2427 37.712 13 36.308 13C34.488 13 32.876 13.4073 31.472 14.222C30.0853 15.0193 28.9933 16.1287 28.196 17.55C27.3987 18.954 27 20.5747 27 22.412C27 24.2493 27.3987 25.8787 28.196 27.3C28.9933 28.704 30.0853 29.8133 31.472 30.628ZM54.0534 31.512L54.0042 30.3814C53.9862 30.4032 53.9679 30.4247 53.9494 30.446C53.1521 31.3647 52.0341 31.824 50.5954 31.824C49.0874 31.824 47.9087 31.486 47.0594 30.81C46.2274 30.1167 45.8114 29.1287 45.8114 27.846C45.8114 26.494 46.2274 25.4973 47.0594 24.856C47.9087 24.1973 49.0874 23.868 50.5954 23.868H53.8637C53.851 23.7431 53.8362 23.6218 53.8194 23.504C53.7501 23.0187 53.5767 22.6373 53.2994 22.36C53.0221 22.0827 52.5714 21.944 51.9474 21.944C51.5141 21.944 51.1587 22.048 50.8814 22.256C50.6041 22.464 50.3701 22.7067 50.1794 22.984L46.0974 21.684C46.4614 20.9733 46.9121 20.358 47.4494 19.838C48.0041 19.318 48.6454 18.9193 49.3734 18.642C50.1187 18.3473 50.9421 18.2 51.8434 18.2C53.2301 18.2 54.4174 18.4513 55.4054 18.954C56.3934 19.4567 57.1474 20.1587 57.6674 21.06C58.1874 21.9613 58.4474 23.01 58.4474 24.206V31.512H54.0534ZM52.4414 26.546H53.9234C53.9234 26.9447 53.8367 27.3 53.6634 27.612C53.4901 27.9067 53.2474 28.1407 52.9354 28.314C52.6234 28.47 52.2507 28.548 51.8174 28.548C51.4187 28.548 51.1067 28.4787 50.8814 28.34C50.6561 28.2013 50.5434 28.002 50.5434 27.742C50.5434 27.3607 50.7081 27.066 51.0374 26.858C51.3667 26.65 51.8347 26.546 52.4414 26.546ZM60.7848 36.712H65.4648V30.1796C65.7007 30.5049 65.9693 30.7844 66.2708 31.018C66.9814 31.5553 67.8741 31.824 68.9488 31.824C70.1794 31.824 71.2281 31.5553 72.0948 31.018C72.9788 30.4807 73.6548 29.7007 74.1228 28.678C74.5908 27.6553 74.8248 26.4333 74.8248 25.012C74.8248 23.5733 74.5908 22.3513 74.1228 21.346C73.6548 20.3233 72.9788 19.5433 72.0948 19.006C71.2281 18.4687 70.1794 18.2 68.9488 18.2C67.8741 18.2 66.9814 18.4687 66.2708 19.006C65.926 19.2732 65.6242 19.6003 65.3651 19.9874L65.2048 18.512H60.7848V36.712ZM65.4648 25.012C65.4648 25.4973 65.5601 25.9307 65.7508 26.312C65.9414 26.676 66.2014 26.9707 66.5308 27.196C66.8774 27.404 67.2674 27.508 67.7008 27.508C68.1341 27.508 68.5154 27.404 68.8448 27.196C69.1741 26.9707 69.4341 26.676 69.6248 26.312C69.8328 25.9307 69.9368 25.4973 69.9368 25.012C69.9368 24.5267 69.8414 24.102 69.6508 23.738C69.4601 23.3567 69.2001 23.062 68.8708 22.854C68.5414 22.646 68.1601 22.542 67.7268 22.542C67.2934 22.542 66.9034 22.646 66.5568 22.854C66.2101 23.062 65.9414 23.3567 65.7508 23.738C65.5601 24.102 65.4648 24.5267 65.4648 25.012ZM79.0199 31.46C79.7652 31.7027 80.5712 31.824 81.4379 31.824C82.6512 31.824 83.7086 31.668 84.6099 31.356C85.5112 31.0267 86.2132 30.5673 86.7159 29.978C87.2186 29.3713 87.4699 28.6433 87.4699 27.794C87.4699 27.0487 87.3052 26.39 86.9759 25.818C86.6466 25.246 86.1872 24.7693 85.5979 24.388C85.0086 23.9893 84.3152 23.6947 83.5179 23.504L82.4519 23.244C81.9319 23.1053 81.5419 22.9667 81.2819 22.828C81.0392 22.672 80.9179 22.49 80.9179 22.282C80.9179 22.0913 80.9959 21.9267 81.1519 21.788C81.3252 21.6493 81.5592 21.58 81.8539 21.58C82.2699 21.58 82.6166 21.658 82.8939 21.814C83.1886 21.97 83.3966 22.2213 83.5179 22.568L87.1319 21.19C86.8892 20.6007 86.5426 20.0807 86.0919 19.63C85.6412 19.1793 85.0606 18.8327 84.3499 18.59C83.6566 18.33 82.7986 18.2 81.7759 18.2C80.0946 18.2 78.7599 18.564 77.7719 19.292C76.8012 20.02 76.3159 21.0513 76.3159 22.386C76.3159 23.3567 76.6106 24.206 77.1999 24.934C77.7892 25.662 78.6646 26.1733 79.8259 26.468L80.8919 26.728C81.3946 26.8493 81.7672 26.9967 82.0099 27.17C82.2526 27.326 82.3739 27.5253 82.3739 27.768C82.3739 27.9933 82.2872 28.1667 82.1139 28.288C81.9406 28.4093 81.7152 28.47 81.4379 28.47C81.1779 28.47 80.8746 28.4093 80.5279 28.288C80.1812 28.1493 79.9126 27.846 79.7219 27.378L76.0039 28.834C76.2119 29.458 76.5759 29.9953 77.0959 30.446C77.6332 30.8793 78.2746 31.2173 79.0199 31.46Z" fill="black"/>
<rect x="114" y="49" width="1" height="1" fill="black"/>
<rect width="1" height="1" fill="black"/>
</g>
<defs>
<clipPath id="clip0_5_115">
<rect width="115" height="50" fill="white"/>
</clipPath>
</defs>
</svg>
