<svg width="115" height="125" viewBox="0 0 115 125" fill="none" xmlns="http://www.w3.org/2000/svg">
<g clip-path="url(#clip0_19_643)">
<path fill-rule="evenodd" clip-rule="evenodd" d="M12.03 35.492C10.294 35.492 8.74 35.156 7.368 34.484C5.996 33.784 4.918 32.846 4.134 31.67C3.378 30.466 3 29.08 3 27.512C3 26.56 3.182 25.664 3.546 24.824C3.91 23.956 4.414 23.144 5.058 22.388C5.702 21.632 6.444 20.96 7.284 20.372L8.73577 19.3751L8.208 18.734C7.368 17.67 6.71 16.76 6.234 16.004C5.758 15.248 5.422 14.562 5.226 13.946C5.03 13.33 4.932 12.728 4.932 12.14C4.932 10.768 5.31 9.55 6.066 8.486C6.85 7.394 7.886 6.54 9.174 5.924C10.462 5.308 11.904 5 13.5 5C15.264 5 16.832 5.322 18.204 5.966C19.576 6.582 20.64 7.45 21.396 8.57C22.18 9.662 22.572 10.936 22.572 12.392C22.572 13.568 22.278 14.646 21.69 15.626C21.102 16.606 20.206 17.614 19.002 18.65C18.4097 19.1577 17.7357 19.6938 16.98 20.2583L18.96 22.64L21.1692 25.3038C21.5724 24.4528 21.774 23.4809 21.774 22.388H27.78C27.78 24.908 27.108 27.162 25.764 29.15C25.5554 29.4586 25.3343 29.7567 25.1008 30.0443L29.166 34.946H21.69L20.576 33.6182C20.445 33.6842 20.3123 33.7488 20.178 33.812C17.826 34.932 15.11 35.492 12.03 35.492ZM11.568 24.068L12.2221 23.6102L14.466 26.336L16.8406 29.1662C16.4794 29.3179 16.1078 29.4525 15.726 29.57C14.634 29.878 13.57 30.032 12.534 30.032C11.694 30.032 11.008 29.78 10.476 29.276C9.972 28.772 9.72 28.128 9.72 27.344C9.72 26.896 9.804 26.476 9.972 26.084C10.14 25.664 10.35 25.286 10.602 24.95C10.882 24.614 11.204 24.32 11.568 24.068ZM13.5167 16.0922L13.584 16.046C13.92 15.822 14.312 15.542 14.76 15.206C15.208 14.87 15.614 14.45 15.978 13.946C16.37 13.442 16.566 12.868 16.566 12.224C16.566 11.552 16.3 11.034 15.768 10.67C15.236 10.306 14.592 10.124 13.836 10.124C13.052 10.124 12.408 10.32 11.904 10.712C11.428 11.076 11.19 11.58 11.19 12.224C11.19 12.896 11.4 13.484 11.82 13.988C12.24 14.464 12.688 15.024 13.164 15.668L13.5167 16.0922ZM101.387 119.52C99.2272 119.52 97.3072 119.08 95.6272 118.2C93.9472 117.32 92.6272 116.093 91.6672 114.52C90.7339 112.947 90.2672 111.12 90.2672 109.04C90.2672 106.96 90.7339 105.133 91.6672 103.56C92.6005 101.987 93.8939 100.76 95.5472 99.88C97.2005 99 99.1072 98.56 101.267 98.56C103.321 98.56 105.121 99.0133 106.667 99.92C108.241 100.8 109.467 102.147 110.347 103.96C111.254 105.773 111.707 108.067 111.707 110.84H97.7009C97.7663 111.275 97.875 111.675 98.0272 112.04C98.2939 112.68 98.6939 113.173 99.2272 113.52C99.7605 113.867 100.414 114.04 101.187 114.04C102.067 114.04 102.827 113.84 103.467 113.44C104.134 113.013 104.547 112.493 104.707 111.88L111.027 113.84C110.547 115.227 109.774 116.347 108.707 117.2C107.667 118.027 106.494 118.627 105.187 119C103.907 119.347 102.641 119.52 101.387 119.52ZM104.381 106.44H97.7471C97.8244 105.934 97.9578 105.507 98.1472 105.16C98.4939 104.573 98.9205 104.16 99.4272 103.92C99.9605 103.653 100.507 103.52 101.067 103.52C101.601 103.52 102.121 103.653 102.627 103.92C103.161 104.16 103.601 104.573 103.947 105.16C104.152 105.507 104.297 105.934 104.381 106.44ZM55.6422 119.04H62.8422V108.4C62.8422 107.307 63.0955 106.507 63.6022 106C64.1089 105.493 64.8689 105.267 65.8822 105.32C66.3889 105.347 66.8022 105.493 67.1222 105.76C67.4689 106.027 67.7222 106.413 67.8822 106.92C68.0689 107.4 68.1622 108.027 68.1622 108.8V119.04H75.3622V108.4C75.3622 107.307 75.6155 106.507 76.1222 106C76.6289 105.493 77.3889 105.267 78.4022 105.32C78.9089 105.347 79.3222 105.493 79.6422 105.76C79.9889 106.027 80.2422 106.413 80.4022 106.92C80.5889 107.4 80.6822 108.027 80.6822 108.8V119.04H87.8822V107.6C87.8822 104.507 87.2955 102.227 86.1222 100.76C84.9489 99.2933 83.1355 98.56 80.6822 98.56C79.3755 98.56 78.1889 98.9067 77.1222 99.6C76.0822 100.267 75.2422 101.253 74.6022 102.56C74.0956 101.2 73.3089 100.2 72.2422 99.56C71.1755 98.8933 69.8155 98.56 68.1622 98.56C67.0422 98.56 66.0155 98.8133 65.0822 99.32C64.1489 99.8 63.3622 100.52 62.7222 101.48L62.4422 99.04H55.6422V119.04ZM42.2419 119.52C40.1086 119.52 38.2152 119.08 36.5619 118.2C34.9352 117.293 33.6552 116.053 32.7219 114.48C31.7886 112.907 31.3219 111.093 31.3219 109.04C31.3219 106.987 31.7752 105.173 32.6819 103.6C33.6152 102.027 34.8952 100.8 36.5219 99.92C38.1752 99.0133 40.0552 98.56 42.1619 98.56C44.2952 98.56 46.1752 99.0133 47.8019 99.92C49.4552 100.8 50.7352 102.027 51.6419 103.6C52.5752 105.173 53.0419 106.987 53.0419 109.04C53.0419 111.093 52.5752 112.907 51.6419 114.48C50.7352 116.053 49.4686 117.293 47.8419 118.2C46.2152 119.08 44.3486 119.52 42.2419 119.52ZM42.2419 112.88C42.9086 112.88 43.4952 112.72 44.0019 112.4C44.5086 112.053 44.9086 111.6 45.2019 111.04C45.4952 110.453 45.6419 109.787 45.6419 109.04C45.6419 108.293 45.4952 107.64 45.2019 107.08C44.9086 106.493 44.4952 106.04 43.9619 105.72C43.4552 105.373 42.8552 105.2 42.1619 105.2C41.4952 105.2 40.8952 105.373 40.3619 105.72C39.8552 106.04 39.4552 106.493 39.1619 107.08C38.8686 107.64 38.7219 108.293 38.7219 109.04C38.7219 109.787 38.8686 110.453 39.1619 111.04C39.4552 111.6 39.8686 112.053 40.4019 112.4C40.9352 112.72 41.5486 112.88 42.2419 112.88ZM20.72 108.2V119.04H28.12V91.04H20.72V101.4H10.4V91H3V119.04H10.4V108.2H20.72ZM6.318 70.4L16.104 48.14H3V41H24.756V46.46L14.928 70.4H6.318ZM50.796 76.476C52.672 77.428 54.912 77.904 57.516 77.904C60.176 77.904 62.444 77.428 64.32 76.476C66.224 75.524 67.68 74.166 68.688 72.402C69.696 70.61 70.2 68.482 70.2 66.018V48H62.43V66.018C62.43 66.998 62.234 67.838 61.842 68.538C61.478 69.238 60.932 69.77 60.204 70.134C59.476 70.498 58.608 70.68 57.6 70.68C56.592 70.68 55.724 70.498 54.996 70.134C54.296 69.77 53.75 69.238 53.358 68.538C52.966 67.838 52.77 66.998 52.77 66.018V48H45V66.018C45 68.482 45.49 70.61 46.47 72.402C47.478 74.166 48.92 75.524 50.796 76.476Z" fill="black"/>
<rect width="1" height="1" fill="black"/>
<rect x="114" y="124" width="1" height="1" fill="black"/>
</g>
<defs>
<clipPath id="clip0_19_643">
<rect width="115" height="125" fill="white"/>
</clipPath>
</defs>
</svg>
