<svg width="115" height="125" viewBox="0 0 115 125" fill="none" xmlns="http://www.w3.org/2000/svg">
<path fill-rule="evenodd" clip-rule="evenodd" d="M93.03 35.492C91.294 35.492 89.74 35.156 88.368 34.484C86.996 33.784 85.918 32.846 85.134 31.67C84.378 30.466 84 29.08 84 27.512C84 26.56 84.182 25.664 84.546 24.824C84.91 23.956 85.414 23.144 86.058 22.388C86.702 21.632 87.444 20.96 88.284 20.372L89.7358 19.3751L89.208 18.734C88.368 17.67 87.71 16.76 87.234 16.004C86.758 15.248 86.422 14.562 86.226 13.946C86.03 13.33 85.932 12.728 85.932 12.14C85.932 10.768 86.31 9.55 87.066 8.486C87.85 7.394 88.886 6.54 90.174 5.924C91.462 5.308 92.904 5 94.5 5C96.264 5 97.832 5.322 99.204 5.966C100.576 6.582 101.64 7.45 102.396 8.57C103.18 9.662 103.572 10.936 103.572 12.392C103.572 13.568 103.278 14.646 102.69 15.626C102.102 16.606 101.206 17.614 100.002 18.65C99.4097 19.1577 98.7357 19.6938 97.98 20.2583L99.96 22.64L102.169 25.3038C102.572 24.4528 102.774 23.4809 102.774 22.388H108.78C108.78 24.908 108.108 27.162 106.764 29.15C106.555 29.4586 106.334 29.7567 106.101 30.0443L110.166 34.946H102.69L101.576 33.6182C101.445 33.6842 101.312 33.7488 101.178 33.812C98.826 34.932 96.11 35.492 93.03 35.492ZM92.568 24.068L93.2221 23.6102L95.466 26.336L97.8406 29.1662C97.4793 29.3179 97.1078 29.4525 96.726 29.57C95.634 29.878 94.57 30.032 93.534 30.032C92.694 30.032 92.008 29.78 91.476 29.276C90.972 28.772 90.72 28.128 90.72 27.344C90.72 26.896 90.804 26.476 90.972 26.084C91.14 25.664 91.35 25.286 91.602 24.95C91.882 24.614 92.204 24.32 92.568 24.068ZM94.5167 16.0922L94.584 16.046C94.92 15.822 95.312 15.542 95.76 15.206C96.208 14.87 96.614 14.45 96.978 13.946C97.37 13.442 97.566 12.868 97.566 12.224C97.566 11.552 97.3 11.034 96.768 10.67C96.236 10.306 95.592 10.124 94.836 10.124C94.052 10.124 93.408 10.32 92.904 10.712C92.428 11.076 92.19 11.58 92.19 12.224C92.19 12.896 92.4 13.484 92.82 13.988C93.24 14.464 93.688 15.024 94.164 15.668L94.5167 16.0922ZM101.387 119.52C99.2272 119.52 97.3072 119.08 95.6272 118.2C93.9472 117.32 92.6272 116.093 91.6672 114.52C90.7339 112.947 90.2672 111.12 90.2672 109.04C90.2672 106.96 90.7339 105.133 91.6672 103.56C92.6005 101.987 93.8939 100.76 95.5472 99.88C97.2005 99 99.1072 98.56 101.267 98.56C103.321 98.56 105.121 99.0133 106.667 99.92C108.241 100.8 109.467 102.147 110.347 103.96C111.254 105.773 111.707 108.067 111.707 110.84H97.7009C97.7663 111.275 97.875 111.675 98.0272 112.04C98.2939 112.68 98.6939 113.173 99.2272 113.52C99.7605 113.867 100.414 114.04 101.187 114.04C102.067 114.04 102.827 113.84 103.467 113.44C104.134 113.013 104.547 112.493 104.707 111.88L111.027 113.84C110.547 115.227 109.774 116.347 108.707 117.2C107.667 118.027 106.494 118.627 105.187 119C103.907 119.347 102.641 119.52 101.387 119.52ZM104.381 106.44H97.7471C97.8244 105.934 97.9578 105.507 98.1472 105.16C98.4939 104.573 98.9205 104.16 99.4272 103.92C99.9605 103.653 100.507 103.52 101.067 103.52C101.601 103.52 102.121 103.653 102.627 103.92C103.161 104.16 103.601 104.573 103.947 105.16C104.152 105.507 104.297 105.934 104.381 106.44ZM55.6422 119.04H62.8422V108.4C62.8422 107.307 63.0955 106.507 63.6022 106C64.1089 105.493 64.8689 105.267 65.8822 105.32C66.3889 105.347 66.8022 105.493 67.1222 105.76C67.4689 106.027 67.7222 106.413 67.8822 106.92C68.0689 107.4 68.1622 108.027 68.1622 108.8V119.04H75.3622V108.4C75.3622 107.307 75.6155 106.507 76.1222 106C76.6289 105.493 77.3889 105.267 78.4022 105.32C78.9089 105.347 79.3222 105.493 79.6422 105.76C79.9889 106.027 80.2422 106.413 80.4022 106.92C80.5889 107.4 80.6822 108.027 80.6822 108.8V119.04H87.8822V107.6C87.8822 104.507 87.2955 102.227 86.1222 100.76C84.9489 99.2933 83.1355 98.56 80.6822 98.56C79.3755 98.56 78.1889 98.9067 77.1222 99.6C76.0822 100.267 75.2422 101.253 74.6022 102.56C74.0956 101.2 73.3089 100.2 72.2422 99.56C71.1755 98.8933 69.8155 98.56 68.1622 98.56C67.0422 98.56 66.0155 98.8133 65.0822 99.32C64.1489 99.8 63.3622 100.52 62.7222 101.48L62.4422 99.04H55.6422V119.04ZM42.2419 119.52C40.1086 119.52 38.2152 119.08 36.5619 118.2C34.9352 117.293 33.6552 116.053 32.7219 114.48C31.7886 112.907 31.3219 111.093 31.3219 109.04C31.3219 106.987 31.7752 105.173 32.6819 103.6C33.6152 102.027 34.8952 100.8 36.5219 99.92C38.1752 99.0133 40.0552 98.56 42.1619 98.56C44.2952 98.56 46.1752 99.0133 47.8019 99.92C49.4552 100.8 50.7352 102.027 51.6419 103.6C52.5752 105.173 53.0419 106.987 53.0419 109.04C53.0419 111.093 52.5752 112.907 51.6419 114.48C50.7352 116.053 49.4686 117.293 47.8419 118.2C46.2152 119.08 44.3486 119.52 42.2419 119.52ZM42.2419 112.88C42.9086 112.88 43.4952 112.72 44.0019 112.4C44.5086 112.053 44.9086 111.6 45.2019 111.04C45.4952 110.453 45.6419 109.787 45.6419 109.04C45.6419 108.293 45.4952 107.64 45.2019 107.08C44.9086 106.493 44.4952 106.04 43.9619 105.72C43.4552 105.373 42.8552 105.2 42.1619 105.2C41.4952 105.2 40.8952 105.373 40.3619 105.72C39.8552 106.04 39.4552 106.493 39.1619 107.08C38.8686 107.64 38.7219 108.293 38.7219 109.04C38.7219 109.787 38.8686 110.453 39.1619 111.04C39.4552 111.6 39.8686 112.053 40.4019 112.4C40.9352 112.72 41.5486 112.88 42.2419 112.88ZM20.72 108.2V119.04H28.12V91.04H20.72V101.4H10.4V91H3V119.04H10.4V108.2H20.72ZM8.318 34.4L18.104 12.14H5V5H26.756V10.46L16.928 34.4H8.318ZM50.796 76.476C52.672 77.428 54.912 77.904 57.516 77.904C60.176 77.904 62.444 77.428 64.32 76.476C66.224 75.524 67.68 74.166 68.688 72.402C69.696 70.61 70.2 68.482 70.2 66.018V48H62.43V66.018C62.43 66.998 62.234 67.838 61.842 68.538C61.478 69.238 60.932 69.77 60.204 70.134C59.476 70.498 58.608 70.68 57.6 70.68C56.592 70.68 55.724 70.498 54.996 70.134C54.296 69.77 53.75 69.238 53.358 68.538C52.966 67.838 52.77 66.998 52.77 66.018V48H45V66.018C45 68.482 45.49 70.61 46.47 72.402C47.478 74.166 48.92 75.524 50.796 76.476Z" fill="black"/>
</svg>
