<svg width="115" height="125" viewBox="0 0 115 125" fill="none" xmlns="http://www.w3.org/2000/svg">
<g clip-path="url(#clip0_5_81)">
<path fill-rule="evenodd" clip-rule="evenodd" d="M16.518 28.226V21.18H9.81V28.226H5V10H9.81V16.76H16.518V10.026H21.328V28.226H16.518ZM26.8152 27.68C27.8899 28.252 29.1206 28.538 30.5072 28.538C31.8766 28.538 33.0899 28.252 34.1472 27.68C35.2046 27.0907 36.0279 26.2847 36.6172 25.262C37.2239 24.2393 37.5272 23.0607 37.5272 21.726C37.5272 20.3913 37.2239 19.2127 36.6172 18.19C36.0279 17.1673 35.1959 16.37 34.1212 15.798C33.0639 15.2087 31.8419 14.914 30.4552 14.914C29.0859 14.914 27.8639 15.2087 26.7892 15.798C25.7319 16.37 24.8999 17.1673 24.2932 18.19C23.7039 19.2127 23.4092 20.3913 23.4092 21.726C23.4092 23.0607 23.7126 24.2393 24.3192 25.262C24.9259 26.2847 25.7579 27.0907 26.8152 27.68ZM31.6512 23.91C31.3219 24.118 30.9406 24.222 30.5072 24.222C30.0566 24.222 29.6579 24.118 29.3112 23.91C28.9646 23.6847 28.6959 23.39 28.5052 23.026C28.3146 22.6447 28.2192 22.2113 28.2192 21.726C28.2192 21.2407 28.3146 20.816 28.5052 20.452C28.6959 20.0707 28.9559 19.776 29.2852 19.568C29.6319 19.3427 30.0219 19.23 30.4552 19.23C30.9059 19.23 31.2959 19.3427 31.6252 19.568C31.9719 19.776 32.2406 20.0707 32.4312 20.452C32.6219 20.816 32.7172 21.2407 32.7172 21.726C32.7172 22.2113 32.6219 22.6447 32.4312 23.026C32.2406 23.39 31.9806 23.6847 31.6512 23.91ZM39.2174 28.226V15.226H43.6374L43.8194 16.812C44.2354 16.188 44.7467 15.72 45.3534 15.408C45.9601 15.0787 46.6274 14.914 47.3554 14.914C48.4301 14.914 49.3141 15.1307 50.0074 15.564C50.7007 15.98 51.2121 16.63 51.5414 17.514C51.9574 16.6647 52.5034 16.0233 53.1794 15.59C53.8727 15.1393 54.6441 14.914 55.4934 14.914C57.0881 14.914 58.2667 15.3907 59.0294 16.344C59.7921 17.2973 60.1734 18.7793 60.1734 20.79V28.226H55.4934V21.57C55.4934 21.0673 55.4327 20.66 55.3114 20.348C55.2074 20.0187 55.0427 19.7673 54.8174 19.594C54.6094 19.4207 54.3407 19.3253 54.0114 19.308C53.3527 19.2733 52.8587 19.4207 52.5294 19.75C52.2001 20.0793 52.0354 20.5993 52.0354 21.31V28.226H47.3554V21.57C47.3554 21.0673 47.2947 20.66 47.1734 20.348C47.0694 20.0187 46.9047 19.7673 46.6794 19.594C46.4714 19.4207 46.2027 19.3253 45.8734 19.308C45.2147 19.2733 44.7207 19.4207 44.3914 19.75C44.0621 20.0793 43.8974 20.5993 43.8974 21.31V28.226H39.2174ZM68.9517 28.538C67.5477 28.538 66.2997 28.252 65.2077 27.68C64.1157 27.108 63.2577 26.3107 62.6337 25.288C62.027 24.2653 61.7237 23.078 61.7237 21.726C61.7237 20.374 62.027 19.1867 62.6337 18.164C63.2404 17.1413 64.081 16.344 65.1557 15.772C66.2304 15.2 67.4697 14.914 68.8737 14.914C70.2084 14.914 71.3784 15.2087 72.3837 15.798C73.4064 16.37 74.2037 17.2453 74.7757 18.424C75.365 19.6027 75.6597 21.0933 75.6597 22.896H66.5556C66.5981 23.1786 66.6688 23.4386 66.7677 23.676C66.941 24.092 67.201 24.4127 67.5477 24.638C67.8944 24.8633 68.319 24.976 68.8217 24.976C69.3937 24.976 69.8877 24.846 70.3037 24.586C70.737 24.3087 71.0057 23.9707 71.1097 23.572L75.2177 24.846C74.9057 25.7473 74.403 26.4753 73.7097 27.03C73.0337 27.5673 72.271 27.9573 71.4217 28.2C70.5897 28.4253 69.7664 28.538 68.9517 28.538ZM70.8974 20.036H66.5857C66.6359 19.707 66.7226 19.4297 66.8457 19.204C67.071 18.8227 67.3484 18.554 67.6777 18.398C68.0244 18.2247 68.3797 18.138 68.7437 18.138C69.0904 18.138 69.4284 18.2247 69.7577 18.398C70.1044 18.554 70.3904 18.8227 70.6157 19.204C70.7491 19.4297 70.843 19.707 70.8974 20.036ZM101.104 17.14L91.318 39.4H99.928L109.756 15.46V10H88V17.14H101.104ZM92.198 115.408C90.406 115.408 88.81 115.072 87.41 114.4C86.038 113.7 84.96 112.748 84.176 111.544C83.392 110.34 83 108.954 83 107.386C83 106.518 83.154 105.678 83.462 104.866C83.798 104.026 84.26 103.242 84.848 102.514C85.464 101.758 86.178 101.1 86.99 100.54L88.4735 99.5218L87.998 98.944C87.102 97.796 86.416 96.844 85.94 96.088C85.464 95.304 85.142 94.618 84.974 94.03C84.806 93.442 84.722 92.882 84.722 92.35C84.722 90.922 85.128 89.662 85.94 88.57C86.752 87.45 87.844 86.582 89.216 85.966C90.588 85.322 92.114 85 93.794 85C95.67 85 97.322 85.322 98.75 85.966C100.206 86.61 101.34 87.506 102.152 88.654C102.964 89.802 103.37 91.132 103.37 92.644C103.37 93.82 103.076 94.912 102.488 95.92C101.9 96.9 100.976 97.922 99.716 98.986C99.1577 99.4682 98.5217 99.9821 97.808 100.528L99.632 102.724L101.28 104.707C101.553 104.03 101.69 103.271 101.69 102.43H108.494C108.494 104.95 107.794 107.19 106.394 109.15C106.18 109.456 105.952 109.753 105.711 110.038L109.754 114.904H101.27L100.404 113.874C98.0228 114.897 95.2874 115.408 92.198 115.408ZM91.988 104.656L92.4398 104.342L94.634 107.008L96.0753 108.723C95.9598 108.755 95.8433 108.785 95.726 108.814C94.69 109.066 93.71 109.192 92.786 109.192C92.17 109.192 91.666 109.01 91.274 108.646C90.91 108.254 90.728 107.764 90.728 107.176C90.728 106.868 90.77 106.56 90.854 106.252C90.966 105.944 91.106 105.65 91.274 105.37C91.47 105.09 91.708 104.852 91.988 104.656ZM94.088 95.668L93.8871 95.8059L93.668 95.542C93.248 94.982 92.842 94.478 92.45 94.03C92.058 93.582 91.862 93.05 91.862 92.434C91.862 91.902 92.072 91.496 92.492 91.216C92.94 90.908 93.514 90.754 94.214 90.754C94.858 90.754 95.404 90.894 95.852 91.174C96.3 91.454 96.524 91.874 96.524 92.434C96.524 93.022 96.356 93.54 96.02 93.988C95.684 94.436 95.32 94.8 94.928 95.08C94.564 95.332 94.284 95.528 94.088 95.668ZM50.796 76.476C52.672 77.428 54.912 77.904 57.516 77.904C60.176 77.904 62.444 77.428 64.32 76.476C66.224 75.524 67.68 74.166 68.688 72.402C69.696 70.61 70.2 68.482 70.2 66.018V48H62.43V66.018C62.43 66.998 62.234 67.838 61.842 68.538C61.478 69.238 60.932 69.77 60.204 70.134C59.476 70.498 58.608 70.68 57.6 70.68C56.592 70.68 55.724 70.498 54.996 70.134C54.296 69.77 53.75 69.238 53.358 68.538C52.966 67.838 52.77 66.998 52.77 66.018V48H45V66.018C45 68.482 45.49 70.61 46.47 72.402C47.478 74.166 48.92 75.524 50.796 76.476Z" fill="black"/>
<rect width="1" height="1" fill="black"/>
<rect x="114" y="124" width="1" height="1" fill="black"/>
</g>
<defs>
<clipPath id="clip0_5_81">
<rect width="115" height="125" fill="white"/>
</clipPath>
</defs>
</svg>
