<svg width="115" height="50" viewBox="0 0 115 50" fill="none" xmlns="http://www.w3.org/2000/svg">
<path d="M44.5 18.9772C44.2239 18.9772 44 19.2011 44 19.4772V30.4498C44 30.726 44.2239 30.9498 44.5 30.9498H51.7746C51.9073 30.9498 52.0344 31.0025 52.1282 31.0963L61.1054 40.0735C61.4204 40.3885 61.959 40.1654 61.959 39.7199V10.2071C61.959 9.76166 61.4204 9.53857 61.1054 9.85355L52.1282 18.8307C52.0344 18.9245 51.9073 18.9772 51.7746 18.9772H44.5ZM70.9384 24.9635C70.9384 21.7209 69.2229 18.8987 66.6565 17.3155C66.3401 17.1203 65.9498 17.3592 65.9498 17.7309V32.181C65.9498 32.5515 66.3379 32.7906 66.6541 32.5975C69.2218 31.03 70.9384 28.2071 70.9384 24.9635Z" fill="black"/>
</svg>
