<svg width="115" height="125" viewBox="0 0 115 125" fill="none" xmlns="http://www.w3.org/2000/svg">
<g clip-path="url(#clip0_19_807)">
<path d="M62.956 77.4L70.81 48H78.748L70.306 77.4H62.956ZM45.442 77.4L37 48H44.938L52.792 77.4H45.442ZM46.576 77.4L54.01 48H60.898L53.506 77.4H46.576ZM62.242 77.4L54.85 48H61.738L69.592 77.4H62.242Z" fill="black"/>
<path d="M91.5551 120.4L101.341 98.14L109.993 96.46L100.165 120.4H91.5551ZM88.2371 98.14V91H109.993V96.46L101.341 98.14H88.2371Z" fill="black"/>
<path d="M66 120.4V91H86.118V98.14H73.77V102.424H83.43V109.564H73.77V120.4H66Z" fill="black"/>
<path d="M1.22435 8.52965C0.856844 7.70221 1.70217 6.85688 2.52962 7.22439L26.7347 17.975C27.5868 18.3535 27.4898 19.5928 26.5892 19.8341L17.0811 22.3818C16.7398 22.4733 16.4732 22.7398 16.3818 23.0811L13.8341 32.5893C13.5928 33.4899 12.3534 33.5868 11.975 32.7347L1.22435 8.52965Z" fill="black"/>
<path d="M40.6931 30.5703V25.6484H47.1794L44.6306 27.7402V10.8301L47.1794 12.9219H40.6931V8H54.5095V12.9219H47.8474L50.572 10.8301V27.7402L47.8474 25.6484H54.5095V30.5703H40.6931Z" fill="black"/>
<path d="M29 30.5703V25.6484H35.4863L32.9375 27.7402V10.8301L35.4863 12.9219H29V8H42.8164V12.9219H36.1543L38.8789 10.8301V27.7402L36.1543 25.6484H42.8164V30.5703H29Z" fill="black"/>
</g>
<defs>
<clipPath id="clip0_19_807">
<rect width="115" height="125" fill="white"/>
</clipPath>
</defs>
</svg>
