<svg width="115" height="50" viewBox="0 0 115 50" fill="none" xmlns="http://www.w3.org/2000/svg">
<g clip-path="url(#clip0_19_890)">
<path fill-rule="evenodd" clip-rule="evenodd" d="M56.4188 39.48C55.1122 39.48 53.8322 39.3067 52.5788 38.96C51.3255 38.5867 50.1788 38.08 49.1388 37.44C48.1255 36.8 47.2855 36.08 46.6188 35.28C45.9522 34.4534 45.5522 33.5867 45.4188 32.68L52.7788 30.64C53.0188 31.3067 53.4322 31.88 54.0188 32.36C54.6055 32.8134 55.3655 33.0667 56.2988 33.12C57.0455 33.1467 57.6988 32.9467 58.2588 32.52C58.8455 32.0934 59.1388 31.5334 59.1388 30.84C59.1388 30.3867 58.9655 29.96 58.6188 29.56C58.2988 29.1334 57.7788 28.8267 57.0588 28.64L52.8588 27.56C51.4188 27.1867 50.1788 26.6134 49.1388 25.84C48.1255 25.0667 47.3388 24.12 46.7788 23C46.2455 21.88 45.9788 20.6267 45.9788 19.24C45.9788 16.4934 46.8855 14.36 48.6988 12.84C50.5388 11.2934 53.1122 10.52 56.4188 10.52C58.1788 10.52 59.7255 10.7467 61.0588 11.2C62.4188 11.6534 63.5788 12.3734 64.5388 13.36C65.5255 14.32 66.3388 15.5867 66.9788 17.16L59.6588 19.28C59.5255 18.7467 59.1788 18.2134 58.6188 17.68C58.0855 17.1467 57.3522 16.88 56.4188 16.88C55.5122 16.88 54.8055 17.08 54.2988 17.48C53.8188 17.88 53.5788 18.4667 53.5788 19.24C53.5788 19.72 53.7788 20.1467 54.1788 20.52C54.5788 20.8667 55.1522 21.1334 55.8988 21.32L60.1388 22.4C62.2722 22.9334 63.9388 23.9867 65.1388 25.56C66.3388 27.1067 66.9388 28.88 66.9388 30.88C66.9388 32.72 66.5122 34.28 65.6588 35.56C64.8322 36.84 63.6322 37.8134 62.0588 38.48C60.4855 39.1467 58.6055 39.48 56.4188 39.48ZM74.4432 38.16C76.1498 39.04 78.0965 39.48 80.2832 39.48C82.3898 39.48 84.3098 38.9334 86.0432 37.84C87.8032 36.72 89.0565 35.12 89.8032 33.04L82.9232 30.84C82.6832 31.3734 82.2832 31.8134 81.7232 32.16C81.1632 32.5067 80.5498 32.68 79.8832 32.68C79.2165 32.68 78.6165 32.52 78.0832 32.2C77.5498 31.88 77.1365 31.4534 76.8432 30.92C76.5498 30.36 76.4032 29.72 76.4032 29C76.4032 28.28 76.5498 27.64 76.8432 27.08C77.1365 26.52 77.5365 26.0934 78.0432 25.8C78.5498 25.48 79.1365 25.32 79.8032 25.32C80.4965 25.32 81.1232 25.4934 81.6832 25.84C82.2698 26.1867 82.6698 26.6267 82.8832 27.16L89.7632 24.92C89.0165 22.84 87.7632 21.2534 86.0032 20.16C84.2432 19.0667 82.3098 18.52 80.2032 18.52C78.0165 18.52 76.0832 18.9734 74.4032 19.88C72.7232 20.76 71.4032 21.9867 70.4432 23.56C69.4832 25.1334 69.0032 26.9467 69.0032 29C69.0032 31.0267 69.4832 32.84 70.4432 34.44C71.4032 36.0134 72.7365 37.2534 74.4432 38.16ZM99.1954 28.9599V38.9999H91.9954V18.9999H99.1954V22.7404C100.003 21.5777 100.977 20.6776 102.115 20.0399C103.449 19.2933 104.835 18.9199 106.275 18.9199V25.9599C105.022 25.9599 103.849 26.0799 102.755 26.3199C101.689 26.5333 100.822 26.8666 100.155 27.3199C99.5154 27.7733 99.1954 28.3199 99.1954 28.9599ZM12.4 11V39H19.8V30.6H24C26.1067 30.6 27.9734 30.1867 29.6 29.36C31.2267 28.5067 32.4934 27.3467 33.4 25.88C34.3334 24.3867 34.8 22.68 34.8 20.76C34.8 18.84 34.3334 17.1467 33.4 15.68C32.4934 14.2133 31.2267 13.0667 29.6 12.24C27.9734 11.4133 26.1067 11 24 11H12.4ZM23.8 23.8H19.8V17.76H23.8C24.8134 17.76 25.6267 18.04 26.24 18.6C26.88 19.16 27.2 19.88 27.2 20.76C27.2 21.6667 26.88 22.4 26.24 22.96C25.6267 23.52 24.8134 23.8 23.8 23.8Z" fill="black"/>
<rect width="1" height="1" fill="black"/>
<rect x="114" y="49" width="1" height="1" fill="black"/>
</g>
<defs>
<clipPath id="clip0_19_890">
<rect width="115" height="50" fill="white"/>
</clipPath>
</defs>
</svg>
