<svg width="115" height="125" viewBox="0 0 115 125" fill="none" xmlns="http://www.w3.org/2000/svg">
<path fill-rule="evenodd" clip-rule="evenodd" d="M6.19177 14.334V20.634H18.7918V14.334H6.19177ZM93.1075 35.502V30H109.908V35.502H93.1075ZM71.392 48L61.102 64.8642V77.4H53.332V64.933L43 48H51.82L57.196 57.2091L62.572 48H71.392ZM90.3969 119V91H97.1969L97.4436 93.2699C97.8421 92.6743 98.3065 92.171 98.8369 91.76C99.9302 90.9333 101.304 90.52 102.957 90.52C104.85 90.52 106.464 90.9333 107.797 91.76C109.157 92.5867 110.197 93.7867 110.917 95.36C111.637 96.9067 111.997 98.7867 111.997 101C111.997 103.187 111.637 105.067 110.917 106.64C110.197 108.213 109.157 109.413 107.797 110.24C106.464 111.067 104.85 111.48 102.957 111.48C101.304 111.48 99.9302 111.067 98.8369 110.24C98.3731 109.881 97.9598 109.451 97.5968 108.95V119H90.3969ZM98.0368 103C97.7435 102.413 97.5968 101.747 97.5968 101C97.5968 100.253 97.7435 99.6 98.0368 99.04C98.3302 98.4534 98.7435 98 99.2768 97.68C99.8102 97.36 100.41 97.2 101.077 97.2C101.744 97.2 102.33 97.36 102.837 97.68C103.344 98 103.744 98.4534 104.037 99.04C104.33 99.6 104.477 100.253 104.477 101C104.477 101.747 104.317 102.413 103.997 103C103.704 103.56 103.304 104.013 102.797 104.36C102.29 104.68 101.704 104.84 101.037 104.84C100.37 104.84 99.7702 104.68 99.2369 104.36C98.7302 104.013 98.3302 103.56 98.0368 103ZM67.909 110.12C69.6957 111.027 71.829 111.48 74.309 111.48C76.8424 111.48 79.0024 111.027 80.789 110.12C82.6024 109.213 83.989 107.92 84.949 106.24C85.909 104.533 86.389 102.507 86.389 100.16V83H78.989V100.16C78.989 101.093 78.8024 101.893 78.429 102.56C78.0824 103.227 77.5624 103.733 76.869 104.08C76.1757 104.427 75.349 104.6 74.389 104.6C73.429 104.6 72.6024 104.427 71.909 104.08C71.2424 103.733 70.7224 103.227 70.349 102.56C69.9757 101.893 69.789 101.093 69.789 100.16V83H62.389V100.16C62.389 102.507 62.8557 104.533 63.789 106.24C64.749 107.92 66.1224 109.213 67.909 110.12ZM38.28 119.56C36.5467 119.56 35.04 119.467 33.76 119.28C32.5067 119.093 31.44 118.813 30.56 118.44C29.68 118.093 28.92 117.667 28.28 117.16L31.12 111.44C31.5467 111.653 32.04 111.893 32.6 112.16C33.1867 112.453 33.9067 112.707 34.76 112.92C35.6134 113.133 36.6667 113.24 37.92 113.24C38.7467 113.24 39.48 113.08 40.12 112.76C40.76 112.44 41.2534 111.96 41.6 111.32C41.9734 110.68 42.16 109.88 42.16 108.92V107.158C41.6736 107.89 41.0736 108.49 40.36 108.96C39.2667 109.68 37.96 110.04 36.44 110.04C34.5467 110.04 32.92 109.68 31.56 108.96C30.2267 108.213 29.2 107.16 28.48 105.8C27.76 104.413 27.4 102.76 27.4 100.84C27.4 98.68 27.76 96.84 28.48 95.32C29.2 93.7734 30.2267 92.5867 31.56 91.76C32.92 90.9333 34.5467 90.52 36.44 90.52C37.96 90.52 39.2667 90.9333 40.36 91.76C41.0736 92.2996 41.6736 92.9982 42.16 93.8558V91H49.36V108.6C49.36 110.813 48.9334 112.747 48.08 114.4C47.2534 116.053 46.0134 117.32 44.36 118.2C42.7334 119.107 40.7067 119.56 38.28 119.56ZM38.64 104.08C39.3067 104.08 39.8667 103.933 40.32 103.64C40.8 103.32 41.16 102.893 41.4 102.36C41.6667 101.827 41.8 101.227 41.8 100.56C41.8 99.84 41.6667 99.2134 41.4 98.68C41.1334 98.1467 40.76 97.7334 40.28 97.44C39.8267 97.1467 39.2667 97 38.6 97C37.96 97 37.4 97.1467 36.92 97.44C36.44 97.7334 36.0667 98.1467 35.8 98.68C35.5334 99.2134 35.3867 99.84 35.36 100.56C35.3867 101.227 35.5334 101.827 35.8 102.36C36.0667 102.893 36.44 103.32 36.92 103.64C37.4267 103.933 38 104.08 38.64 104.08ZM4 83V111H11.4V102.6H15.6C17.7067 102.6 19.5733 102.187 21.2 101.36C22.8267 100.507 24.0933 99.3467 25 97.88C25.9333 96.3867 26.4 94.68 26.4 92.76C26.4 90.84 25.9333 89.1467 25 87.68C24.0933 86.2133 22.8267 85.0667 21.2 84.24C19.5733 83.4133 17.7067 83 15.6 83H4ZM15.4 95.8H11.4V89.76H15.4C16.4133 89.76 17.2267 90.04 17.84 90.6C18.48 91.16 18.8 91.88 18.8 92.76C18.8 93.6667 18.48 94.4 17.84 94.96C17.2267 95.52 16.4133 95.8 15.4 95.8Z" fill="black"/>
</svg>
